# Made in Blockbench 5.1.6
mtllib juice_table.mtl

v 2.00000000 1.00000000 1.00000000
v 2.00000000 1.00000000 0.00000000
v 2.00000000 0.87500000 1.00000000
v 2.00000000 0.87500000 0.00000000
v 0.00000000 1.00000000 0.00000000
v 0.00000000 1.00000000 1.00000000
v 0.00000000 0.87500000 0.00000000
v 0.00000000 0.87500000 1.00000000
vt 0.5 1
vt 0.75 1
vt 0.75 0.75
vt 0.5 0.75
vt 0.5 1
vt 0.75 1
vt 0.75 0.75
vt 0.5 0.75
vt 0.5 1
vt 0.75 1
vt 0.75 0.75
vt 0.5 0.75
vt 0.5 1
vt 0.75 1
vt 0.75 0.75
vt 0.5 0.75
vt 0.75 1
vt 1 1
vt 1 0.75
vt 0.75 0.75
vt 0.25 1
vt 0.5 1
vt 0.5 0.75
vt 0.25 0.75
vn 0 0 -1
vn 1 0 0
vn 0 0 1
vn -1 0 0
vn 0 1 0
vn 0 -1 0
v 0.25000000 0.87500000 0.25000000
v 0.25000000 0.87500000 0.12500000
v 0.25000000 0.00000000 0.25000000
v 0.25000000 0.00000000 0.12500000
v 0.12500000 0.87500000 0.12500000
v 0.12500000 0.87500000 0.25000000
v 0.12500000 0.00000000 0.12500000
v 0.12500000 0.00000000 0.25000000
vt 0 1
vt 0.25 1
vt 0.25 0.75
vt 0 0.75
vt 0 1
vt 0.25 1
vt 0.25 0.75
vt 0 0.75
vt 0 1
vt 0.25 1
vt 0.25 0.75
vt 0 0.75
vt 0 1
vt 0.25 1
vt 0.25 0.75
vt 0 0.75
vt 0 1
vt 0.25 1
vt 0.25 0.75
vt 0 0.75
vt 0 1
vt 0.25 1
vt 0.25 0.75
vt 0 0.75
vn 0 0 -1
vn 1 0 0
vn 0 0 1
vn -1 0 0
vn 0 1 0
vn 0 -1 0
v 0.25000000 0.87500000 0.87500000
v 0.25000000 0.87500000 0.75000000
v 0.25000000 0.00000000 0.87500000
v 0.25000000 0.00000000 0.75000000
v 0.12500000 0.87500000 0.75000000
v 0.12500000 0.87500000 0.87500000
v 0.12500000 0.00000000 0.75000000
v 0.12500000 0.00000000 0.87500000
vt 0 1
vt 0.25 1
vt 0.25 0.75
vt 0 0.75
vt 0 1
vt 0.25 1
vt 0.25 0.75
vt 0 0.75
vt 0 1
vt 0.25 1
vt 0.25 0.75
vt 0 0.75
vt 0 1
vt 0.25 1
vt 0.25 0.75
vt 0 0.75
vt 0 1
vt 0.25 1
vt 0.25 0.75
vt 0 0.75
vt 0 1
vt 0.25 1
vt 0.25 0.75
vt 0 0.75
vn 0 0 -1
vn 1 0 0
vn 0 0 1
vn -1 0 0
vn 0 1 0
vn 0 -1 0
v 1.87500000 0.87500000 0.25000000
v 1.87500000 0.87500000 0.12500000
v 1.87500000 0.00000000 0.25000000
v 1.87500000 0.00000000 0.12500000
v 1.75000000 0.87500000 0.12500000
v 1.75000000 0.87500000 0.25000000
v 1.75000000 0.00000000 0.12500000
v 1.75000000 0.00000000 0.25000000
vt 0 1
vt 0.25 1
vt 0.25 0.75
vt 0 0.75
vt 0 1
vt 0.25 1
vt 0.25 0.75
vt 0 0.75
vt 0 1
vt 0.25 1
vt 0.25 0.75
vt 0 0.75
vt 0 1
vt 0.25 1
vt 0.25 0.75
vt 0 0.75
vt 0 1
vt 0.25 1
vt 0.25 0.75
vt 0 0.75
vt 0 1
vt 0.25 1
vt 0.25 0.75
vt 0 0.75
vn 0 0 -1
vn 1 0 0
vn 0 0 1
vn -1 0 0
vn 0 1 0
vn 0 -1 0
v 1.87500000 0.75000000 0.87500000
v 1.87500000 0.75000000 0.75000000
v 1.87500000 0.00000000 0.87500000
v 1.87500000 0.00000000 0.75000000
v 1.75000000 0.75000000 0.75000000
v 1.75000000 0.75000000 0.87500000
v 1.75000000 0.00000000 0.75000000
v 1.75000000 0.00000000 0.87500000
vt 0 1
vt 0.25 1
vt 0.25 0.75
vt 0 0.75
vt 0 1
vt 0.25 1
vt 0.25 0.75
vt 0 0.75
vt 0 1
vt 0.25 1
vt 0.25 0.75
vt 0 0.75
vt 0 1
vt 0.25 1
vt 0.25 0.75
vt 0 0.75
vt 0 1
vt 0.25 1
vt 0.25 0.75
vt 0 0.75
vt 0 1
vt 0.25 1
vt 0.25 0.75
vt 0 0.75
vn 0 0 -1
vn 1 0 0
vn 0 0 1
vn -1 0 0
vn 0 1 0
vn 0 -1 0
v 1.87500000 0.87500000 0.12500000
v 1.87500000 0.87500000 0.06250000
v 1.87500000 0.71875000 0.12500000
v 1.87500000 0.71875000 0.06250000
v 0.06250000 0.87500000 0.06250000
v 0.06250000 0.87500000 0.12500000
v 0.06250000 0.71875000 0.06250000
v 0.06250000 0.71875000 0.12500000
vt 0.5 1
vt 0.75 1
vt 0.75 0.75
vt 0.5 0.75
vt 0.5 1
vt 0.75 1
vt 0.75 0.75
vt 0.5 0.75
vt 0.5 1
vt 0.75 1
vt 0.75 0.75
vt 0.5 0.75
vt 0.5 1
vt 0.75 1
vt 0.75 0.75
vt 0.5 0.75
vt 0.5 1
vt 0.75 1
vt 0.75 0.75
vt 0.5 0.75
vt 0.5 1
vt 0.75 1
vt 0.75 0.75
vt 0.5 0.75
vn 0 0 -1
vn 1 0 0
vn 0 0 1
vn -1 0 0
vn 0 1 0
vn 0 -1 0
v 1.87500000 0.87500000 0.93750000
v 1.87500000 0.87500000 0.87500000
v 1.87500000 0.71875000 0.93750000
v 1.87500000 0.71875000 0.87500000
v 0.12500000 0.87500000 0.87500000
v 0.12500000 0.87500000 0.93750000
v 0.12500000 0.71875000 0.87500000
v 0.12500000 0.71875000 0.93750000
vt 0.5 1
vt 0.75 1
vt 0.75 0.75
vt 0.5 0.75
vt 0.5 1
vt 0.75 1
vt 0.75 0.75
vt 0.5 0.75
vt 0.5 1
vt 0.75 1
vt 0.75 0.75
vt 0.5 0.75
vt 0.5 1
vt 0.75 1
vt 0.75 0.75
vt 0.5 0.75
vt 0.5 1
vt 0.75 1
vt 0.75 0.75
vt 0.5 0.75
vt 0.5 1
vt 0.75 1
vt 0.75 0.75
vt 0.5 0.75
vn 0 0 -1
vn 1 0 0
vn 0 0 1
vn -1 0 0
vn 0 1 0
vn 0 -1 0
v 1.81250000 0.25000000 0.81250000
v 1.81250000 0.25000000 0.18750000
v 1.81250000 0.18750000 0.81250000
v 1.81250000 0.18750000 0.18750000
v 0.18750000 0.25000000 0.18750000
v 0.18750000 0.25000000 0.81250000
v 0.18750000 0.18750000 0.18750000
v 0.18750000 0.18750000 0.81250000
vt 0.5 0.25
vt 0.75 0.25
vt 0.75 0
vt 0.5 0
vt 0.5 0.25
vt 0.75 0.25
vt 0.75 0
vt 0.5 0
vt 0.5 0.25
vt 0.75 0.25
vt 0.75 0
vt 0.5 0
vt 0.5 0.25
vt 0.75 0.25
vt 0.75 0
vt 0.5 0
vt 0.5 0.25
vt 0.75 0.25
vt 0.75 0
vt 0.5 0
vt 0.5 0.25
vt 0.75 0.25
vt 0.75 0
vt 0.5 0
vn 0 0 -1
vn 1 0 0
vn 0 0 1
vn -1 0 0
vn 0 1 0
vn 0 -1 0
v 0.25375000 0.08750000 0.25375000
v 0.25375000 0.08750000 0.12125000
v 0.25375000 0.05000000 0.25375000
v 0.25375000 0.05000000 0.12125000
v 0.12125000 0.08750000 0.12125000
v 0.12125000 0.08750000 0.25375000
v 0.12125000 0.05000000 0.12125000
v 0.12125000 0.05000000 0.25375000
vt 0 0.75
vt 0.25 0.75
vt 0.25 0.5
vt 0 0.5
vt 0 0.75
vt 0.25 0.75
vt 0.25 0.5
vt 0 0.5
vt 0 0.75
vt 0.25 0.75
vt 0.25 0.5
vt 0 0.5
vt 0 0.75
vt 0.25 0.75
vt 0.25 0.5
vt 0 0.5
vt 0 0.75
vt 0.25 0.75
vt 0.25 0.5
vt 0 0.5
vt 0 0.75
vt 0.25 0.75
vt 0.25 0.5
vt 0 0.5
vn 0 0 -1
vn 1 0 0
vn 0 0 1
vn -1 0 0
vn 0 1 0
vn 0 -1 0
v 0.25375000 0.08750000 0.87875000
v 0.25375000 0.08750000 0.74625000
v 0.25375000 0.05000000 0.87875000
v 0.25375000 0.05000000 0.74625000
v 0.12125000 0.08750000 0.74625000
v 0.12125000 0.08750000 0.87875000
v 0.12125000 0.05000000 0.74625000
v 0.12125000 0.05000000 0.87875000
vt 0 0.75
vt 0.25 0.75
vt 0.25 0.5
vt 0 0.5
vt 0 0.75
vt 0.25 0.75
vt 0.25 0.5
vt 0 0.5
vt 0 0.75
vt 0.25 0.75
vt 0.25 0.5
vt 0 0.5
vt 0 0.75
vt 0.25 0.75
vt 0.25 0.5
vt 0 0.5
vt 0 0.75
vt 0.25 0.75
vt 0.25 0.5
vt 0 0.5
vt 0 0.75
vt 0.25 0.75
vt 0.25 0.5
vt 0 0.5
vn 0 0 -1
vn 1 0 0
vn 0 0 1
vn -1 0 0
vn 0 1 0
vn 0 -1 0
v 1.87875000 0.08750000 0.25375000
v 1.87875000 0.08750000 0.12125000
v 1.87875000 0.05000000 0.25375000
v 1.87875000 0.05000000 0.12125000
v 1.74625000 0.08750000 0.12125000
v 1.74625000 0.08750000 0.25375000
v 1.74625000 0.05000000 0.12125000
v 1.74625000 0.05000000 0.25375000
vt 0 0.75
vt 0.25 0.75
vt 0.25 0.5
vt 0 0.5
vt 0 0.75
vt 0.25 0.75
vt 0.25 0.5
vt 0 0.5
vt 0 0.75
vt 0.25 0.75
vt 0.25 0.5
vt 0 0.5
vt 0 0.75
vt 0.25 0.75
vt 0.25 0.5
vt 0 0.5
vt 0 0.75
vt 0.25 0.75
vt 0.25 0.5
vt 0 0.5
vt 0 0.75
vt 0.25 0.75
vt 0.25 0.5
vt 0 0.5
vn 0 0 -1
vn 1 0 0
vn 0 0 1
vn -1 0 0
vn 0 1 0
vn 0 -1 0
v 1.87875000 0.08750000 0.87875000
v 1.87875000 0.08750000 0.74625000
v 1.87875000 0.05000000 0.87875000
v 1.87875000 0.05000000 0.74625000
v 1.74625000 0.08750000 0.74625000
v 1.74625000 0.08750000 0.87875000
v 1.74625000 0.05000000 0.74625000
v 1.74625000 0.05000000 0.87875000
vt 0 0.75
vt 0.25 0.75
vt 0.25 0.5
vt 0 0.5
vt 0 0.75
vt 0.25 0.75
vt 0.25 0.5
vt 0 0.5
vt 0 0.75
vt 0.25 0.75
vt 0.25 0.5
vt 0 0.5
vt 0 0.75
vt 0.25 0.75
vt 0.25 0.5
vt 0 0.5
vt 0 0.75
vt 0.25 0.75
vt 0.25 0.5
vt 0 0.5
vt 0 0.75
vt 0.25 0.75
vt 0.25 0.5
vt 0 0.5
vn 0 0 -1
vn 1 0 0
vn 0 0 1
vn -1 0 0
vn 0 1 0
vn 0 -1 0
v 0.13125000 1.00812500 0.11250000
v 0.13125000 1.00812500 0.04375000
v 0.13125000 1.00093750 0.11250000
v 0.13125000 1.00093750 0.04375000
v 0.04375000 1.00812500 0.04375000
v 0.04375000 1.00812500 0.11250000
v 0.04375000 1.00093750 0.04375000
v 0.04375000 1.00093750 0.11250000
vt 0 0.75
vt 0.25 0.75
vt 0.25 0.5
vt 0 0.5
vt 0 0.75
vt 0.25 0.75
vt 0.25 0.5
vt 0 0.5
vt 0 0.75
vt 0.25 0.75
vt 0.25 0.5
vt 0 0.5
vt 0 0.75
vt 0.25 0.75
vt 0.25 0.5
vt 0 0.5
vt 0 0.75
vt 0.25 0.75
vt 0.25 0.5
vt 0 0.5
vt 0 0.75
vt 0.25 0.75
vt 0.25 0.5
vt 0 0.5
vn 0 0 -1
vn 1 0 0
vn 0 0 1
vn -1 0 0
vn 0 1 0
vn 0 -1 0
v 0.13125000 1.00812500 0.95000000
v 0.13125000 1.00812500 0.88125000
v 0.13125000 1.00093750 0.95000000
v 0.13125000 1.00093750 0.88125000
v 0.04375000 1.00812500 0.88125000
v 0.04375000 1.00812500 0.95000000
v 0.04375000 1.00093750 0.88125000
v 0.04375000 1.00093750 0.95000000
vt 0 0.75
vt 0.25 0.75
vt 0.25 0.5
vt 0 0.5
vt 0 0.75
vt 0.25 0.75
vt 0.25 0.5
vt 0 0.5
vt 0 0.75
vt 0.25 0.75
vt 0.25 0.5
vt 0 0.5
vt 0 0.75
vt 0.25 0.75
vt 0.25 0.5
vt 0 0.5
vt 0 0.75
vt 0.25 0.75
vt 0.25 0.5
vt 0 0.5
vt 0 0.75
vt 0.25 0.75
vt 0.25 0.5
vt 0 0.5
vn 0 0 -1
vn 1 0 0
vn 0 0 1
vn -1 0 0
vn 0 1 0
vn 0 -1 0
v 1.95625000 1.00812500 0.11250000
v 1.95625000 1.00812500 0.04375000
v 1.95625000 1.00093750 0.11250000
v 1.95625000 1.00093750 0.04375000
v 1.86875000 1.00812500 0.04375000
v 1.86875000 1.00812500 0.11250000
v 1.86875000 1.00093750 0.04375000
v 1.86875000 1.00093750 0.11250000
vt 0 0.75
vt 0.25 0.75
vt 0.25 0.5
vt 0 0.5
vt 0 0.75
vt 0.25 0.75
vt 0.25 0.5
vt 0 0.5
vt 0 0.75
vt 0.25 0.75
vt 0.25 0.5
vt 0 0.5
vt 0 0.75
vt 0.25 0.75
vt 0.25 0.5
vt 0 0.5
vt 0 0.75
vt 0.25 0.75
vt 0.25 0.5
vt 0 0.5
vt 0 0.75
vt 0.25 0.75
vt 0.25 0.5
vt 0 0.5
vn 0 0 -1
vn 1 0 0
vn 0 0 1
vn -1 0 0
vn 0 1 0
vn 0 -1 0
v 1.95625000 1.00812500 0.95000000
v 1.95625000 1.00812500 0.88125000
v 1.95625000 1.00093750 0.95000000
v 1.95625000 1.00093750 0.88125000
v 1.86875000 1.00812500 0.88125000
v 1.86875000 1.00812500 0.95000000
v 1.86875000 1.00093750 0.88125000
v 1.86875000 1.00093750 0.95000000
vt 0 0.75
vt 0.25 0.75
vt 0.25 0.5
vt 0 0.5
vt 0 0.75
vt 0.25 0.75
vt 0.25 0.5
vt 0 0.5
vt 0 0.75
vt 0.25 0.75
vt 0.25 0.5
vt 0 0.5
vt 0 0.75
vt 0.25 0.75
vt 0.25 0.5
vt 0 0.5
vt 0 0.75
vt 0.25 0.75
vt 0.25 0.5
vt 0 0.5
vt 0 0.75
vt 0.25 0.75
vt 0.25 0.5
vt 0 0.5
vn 0 0 -1
vn 1 0 0
vn 0 0 1
vn -1 0 0
vn 0 1 0
vn 0 -1 0
v 2.00000000 1.00750000 0.03750000
v 2.00000000 1.00750000 -0.00000000
v 2.00000000 1.00000000 0.03750000
v 2.00000000 1.00000000 -0.00000000
v 0.00000000 1.00750000 -0.00000000
v 0.00000000 1.00750000 0.03750000
v 0.00000000 1.00000000 -0.00000000
v 0.00000000 1.00000000 0.03750000
vt 0 1
vt 0.25 1
vt 0.25 0.75
vt 0 0.75
vt 0 1
vt 0.25 1
vt 0.25 0.75
vt 0 0.75
vt 0 1
vt 0.25 1
vt 0.25 0.75
vt 0 0.75
vt 0 1
vt 0.25 1
vt 0.25 0.75
vt 0 0.75
vt 0 1
vt 0.25 1
vt 0.25 0.75
vt 0 0.75
vt 0 1
vt 0.25 1
vt 0.25 0.75
vt 0 0.75
vn 0 0 -1
vn 1 0 0
vn 0 0 1
vn -1 0 0
vn 0 1 0
vn 0 -1 0
v 2.00000000 1.00750000 1.00000000
v 2.00000000 1.00750000 0.96250000
v 2.00000000 1.00000000 1.00000000
v 2.00000000 1.00000000 0.96250000
v 0.00000000 1.00750000 0.96250000
v 0.00000000 1.00750000 1.00000000
v 0.00000000 1.00000000 0.96250000
v 0.00000000 1.00000000 1.00000000
vt 0 1
vt 0.25 1
vt 0.25 0.75
vt 0 0.75
vt 0 1
vt 0.25 1
vt 0.25 0.75
vt 0 0.75
vt 0 1
vt 0.25 1
vt 0.25 0.75
vt 0 0.75
vt 0 1
vt 0.25 1
vt 0.25 0.75
vt 0 0.75
vt 0 1
vt 0.25 1
vt 0.25 0.75
vt 0 0.75
vt 0 1
vt 0.25 1
vt 0.25 0.75
vt 0 0.75
vn 0 0 -1
vn 1 0 0
vn 0 0 1
vn -1 0 0
vn 0 1 0
vn 0 -1 0
v 0.12500000 0.87500000 0.93750000
v 0.12500000 0.87500000 0.12500000
v 0.12500000 0.71875000 0.93750000
v 0.12500000 0.71875000 0.12500000
v 0.06250000 0.87500000 0.12500000
v 0.06250000 0.87500000 0.93750000
v 0.06250000 0.71875000 0.12500000
v 0.06250000 0.71875000 0.93750000
vt 0.5 1
vt 0.75 1
vt 0.75 0.75
vt 0.5 0.75
vt 0.5 1
vt 0.75 1
vt 0.75 0.75
vt 0.5 0.75
vt 0.5 1
vt 0.75 1
vt 0.75 0.75
vt 0.5 0.75
vt 0.5 1
vt 0.75 1
vt 0.75 0.75
vt 0.5 0.75
vt 0.5 1
vt 0.75 1
vt 0.75 0.75
vt 0.5 0.75
vt 0.5 1
vt 0.75 1
vt 0.75 0.75
vt 0.5 0.75
vn 0 0 -1
vn 1 0 0
vn 0 0 1
vn -1 0 0
vn 0 1 0
vn 0 -1 0
v 1.93750000 0.87500000 0.93750000
v 1.93750000 0.87500000 0.06250000
v 1.93750000 0.71875000 0.93750000
v 1.93750000 0.71875000 0.06250000
v 1.87500000 0.87500000 0.06250000
v 1.87500000 0.87500000 0.93750000
v 1.87500000 0.71875000 0.06250000
v 1.87500000 0.71875000 0.93750000
vt 0.5 1
vt 0.75 1
vt 0.75 0.75
vt 0.5 0.75
vt 0.5 1
vt 0.75 1
vt 0.75 0.75
vt 0.5 0.75
vt 0.5 1
vt 0.75 1
vt 0.75 0.75
vt 0.5 0.75
vt 0.5 1
vt 0.75 1
vt 0.75 0.75
vt 0.5 0.75
vt 0.5 1
vt 0.75 1
vt 0.75 0.75
vt 0.5 0.75
vt 0.5 1
vt 0.75 1
vt 0.75 0.75
vt 0.5 0.75
vn 0 0 -1
vn 1 0 0
vn 0 0 1
vn -1 0 0
vn 0 1 0
vn 0 -1 0
v 1.06875000 0.85000000 0.87906250
v 1.06875000 0.85000000 0.87537500
v 1.06875000 0.75000000 0.87906250
v 1.06875000 0.75000000 0.87537500
v 0.93125000 0.85000000 0.87537500
v 0.93125000 0.85000000 0.87906250
v 0.93125000 0.75000000 0.87537500
v 0.93125000 0.75000000 0.87906250
vt 0.75 0.5
vt 1 0.5
vt 1 0.25
vt 0.75 0.25
vt 0.75 0.5
vt 1 0.5
vt 1 0.25
vt 0.75 0.25
vt 0.75 0.5
vt 1 0.5
vt 1 0.25
vt 0.75 0.25
vt 0.75 0.5
vt 1 0.5
vt 1 0.25
vt 0.75 0.25
vt 0.75 0.5
vt 1 0.5
vt 1 0.25
vt 0.75 0.25
vt 0.75 0.5
vt 1 0.5
vt 1 0.25
vt 0.75 0.25
vn 0 0 -1
vn 1 0 0
vn 0 0 1
vn -1 0 0
vn 0 1 0
vn 0 -1 0
v 0.81250000 1.06250000 0.62500000
v 0.81250000 1.06250000 0.12500000
v 0.81250000 1.00000000 0.62500000
v 0.81250000 1.00000000 0.12500000
v 0.18750000 1.06250000 0.12500000
v 0.18750000 1.06250000 0.62500000
v 0.18750000 1.00000000 0.12500000
v 0.18750000 1.00000000 0.62500000
vt 0.25 1
vt 0.5 1
vt 0.5 0.75
vt 0.25 0.75
vt 0.25 1
vt 0.5 1
vt 0.5 0.75
vt 0.25 0.75
vt 0.25 1
vt 0.5 1
vt 0.5 0.75
vt 0.25 0.75
vt 0.25 1
vt 0.5 1
vt 0.5 0.75
vt 0.25 0.75
vt 0.25 1
vt 0.5 1
vt 0.5 0.75
vt 0.25 0.75
vt 0.25 1
vt 0.5 1
vt 0.5 0.75
vt 0.25 0.75
vn 0 0 -1
vn 1 0 0
vn 0 0 1
vn -1 0 0
vn 0 1 0
vn 0 -1 0
v 0.28125000 1.62500000 0.40625000
v 0.28125000 1.62500000 0.31250000
v 0.28125000 1.06250000 0.40625000
v 0.28125000 1.06250000 0.31250000
v 0.21875000 1.62500000 0.31250000
v 0.21875000 1.62500000 0.40625000
v 0.21875000 1.06250000 0.31250000
v 0.21875000 1.06250000 0.40625000
vt 0 1
vt 0.25 1
vt 0.25 0.75
vt 0 0.75
vt 0 1
vt 0.25 1
vt 0.25 0.75
vt 0 0.75
vt 0 1
vt 0.25 1
vt 0.25 0.75
vt 0 0.75
vt 0 1
vt 0.25 1
vt 0.25 0.75
vt 0 0.75
vt 0 1
vt 0.25 1
vt 0.25 0.75
vt 0 0.75
vt 0 1
vt 0.25 1
vt 0.25 0.75
vt 0 0.75
vn 0 0 -1
vn 1 0 0
vn 0 0 1
vn -1 0 0
vn 0 1 0
vn 0 -1 0
v 0.78125000 1.62500000 0.40625000
v 0.78125000 1.62500000 0.31250000
v 0.78125000 1.06250000 0.40625000
v 0.78125000 1.06250000 0.31250000
v 0.71875000 1.62500000 0.31250000
v 0.71875000 1.62500000 0.40625000
v 0.71875000 1.06250000 0.31250000
v 0.71875000 1.06250000 0.40625000
vt 0 1
vt 0.25 1
vt 0.25 0.75
vt 0 0.75
vt 0 1
vt 0.25 1
vt 0.25 0.75
vt 0 0.75
vt 0 1
vt 0.25 1
vt 0.25 0.75
vt 0 0.75
vt 0 1
vt 0.25 1
vt 0.25 0.75
vt 0 0.75
vt 0 1
vt 0.25 1
vt 0.25 0.75
vt 0 0.75
vt 0 1
vt 0.25 1
vt 0.25 0.75
vt 0 0.75
vn 0 0 -1
vn 1 0 0
vn 0 0 1
vn -1 0 0
vn 0 1 0
vn 0 -1 0
v 0.81250000 1.65625000 0.41250000
v 0.81250000 1.65625000 0.30625000
v 0.81250000 1.59375000 0.41250000
v 0.81250000 1.59375000 0.30625000
v 0.18750000 1.65625000 0.30625000
v 0.18750000 1.65625000 0.41250000
v 0.18750000 1.59375000 0.30625000
v 0.18750000 1.59375000 0.41250000
vt 0.25 1
vt 0.5 1
vt 0.5 0.75
vt 0.25 0.75
vt 0.25 1
vt 0.5 1
vt 0.5 0.75
vt 0.25 0.75
vt 0.25 1
vt 0.5 1
vt 0.5 0.75
vt 0.25 0.75
vt 0.25 1
vt 0.5 1
vt 0.5 0.75
vt 0.25 0.75
vt 0.25 1
vt 0.5 1
vt 0.5 0.75
vt 0.25 0.75
vt 0.25 1
vt 0.5 1
vt 0.5 0.75
vt 0.25 0.75
vn 0 0 -1
vn 1 0 0
vn 0 0 1
vn -1 0 0
vn 0 1 0
vn 0 -1 0
v 0.57187500 1.68750000 0.45625000
v 0.57187500 1.68750000 0.35625000
v 0.57187500 1.58750000 0.45625000
v 0.57187500 1.58750000 0.35625000
v 0.47812500 1.68750000 0.35625000
v 0.47812500 1.68750000 0.45625000
v 0.47812500 1.58750000 0.35625000
v 0.47812500 1.58750000 0.45625000
vt 0.25 0.75
vt 0.5 0.75
vt 0.5 0.5
vt 0.25 0.5
vt 0.25 0.75
vt 0.5 0.75
vt 0.5 0.5
vt 0.25 0.5
vt 0.25 0.75
vt 0.5 0.75
vt 0.5 0.5
vt 0.25 0.5
vt 0.25 0.75
vt 0.5 0.75
vt 0.5 0.5
vt 0.25 0.5
vt 0.25 0.75
vt 0.5 0.75
vt 0.5 0.5
vt 0.25 0.5
vt 0.25 0.75
vt 0.5 0.75
vt 0.5 0.5
vt 0.25 0.5
vn 0 0 -1
vn 1 0 0
vn 0 0 1
vn -1 0 0
vn 0 1 0
vn 0 -1 0
v 0.53125000 1.06250000 0.40625000
v 0.53125000 1.31250000 0.40625000
v 0.71875000 1.06250000 0.40625000
v 0.71875000 1.31250000 0.40625000
v 0.66383252 1.06250000 0.53883252
v 0.66383252 1.31250000 0.53883252
v 0.53125000 1.06250000 0.59375000
v 0.53125000 1.31250000 0.59375000
v 0.39866748 1.06250000 0.53883252
v 0.39866748 1.31250000 0.53883252
v 0.34375000 1.06250000 0.40625000
v 0.34375000 1.31250000 0.40625000
v 0.39866748 1.06250000 0.27366748
v 0.39866748 1.31250000 0.27366748
v 0.53125000 1.06250000 0.21875000
v 0.53125000 1.31250000 0.21875000
v 0.66383252 1.06250000 0.27366748
v 0.66383252 1.31250000 0.27366748
vt 0.5 0.75
vt 0.25 0.75
vt 0.25 1
vt 0.5 1
vt 0.375 0.875
vt 0.4545495128834866 0.7954504871165133
vt 0.4875 0.875
vt 0.375 0.875
vt 0.4875 0.875
vt 0.4545495128834866 0.7954504871165133
vt 0.5 0.75
vt 0.25 0.75
vt 0.25 1
vt 0.5 1
vt 0.375 0.875
vt 0.375 0.7625
vt 0.4545495128834866 0.7954504871165133
vt 0.375 0.875
vt 0.4545495128834866 0.7954504871165133
vt 0.375 0.7625
vt 0.5 0.75
vt 0.25 0.75
vt 0.25 1
vt 0.5 1
vt 0.375 0.875
vt 0.2954504871165134 0.7954504871165133
vt 0.375 0.7625
vt 0.375 0.875
vt 0.375 0.7625
vt 0.2954504871165134 0.7954504871165133
vt 0.5 0.75
vt 0.25 0.75
vt 0.25 1
vt 0.5 1
vt 0.375 0.875
vt 0.2625 0.875
vt 0.2954504871165134 0.7954504871165133
vt 0.375 0.875
vt 0.2954504871165134 0.7954504871165133
vt 0.2625 0.875
vt 0.5 0.75
vt 0.25 0.75
vt 0.25 1
vt 0.5 1
vt 0.375 0.875
vt 0.2954504871165134 0.9545495128834866
vt 0.2625 0.875
vt 0.375 0.875
vt 0.2625 0.875
vt 0.2954504871165134 0.9545495128834866
vt 0.5 0.75
vt 0.25 0.75
vt 0.25 1
vt 0.5 1
vt 0.375 0.875
vt 0.375 0.9875
vt 0.2954504871165134 0.9545495128834866
vt 0.375 0.875
vt 0.2954504871165134 0.9545495128834866
vt 0.375 0.9875
vt 0.5 0.75
vt 0.25 0.75
vt 0.25 1
vt 0.5 1
vt 0.375 0.875
vt 0.45454951288348655 0.9545495128834867
vt 0.375 0.9875
vt 0.375 0.875
vt 0.375 0.9875
vt 0.45454951288348655 0.9545495128834867
vt 0.5 0.75
vt 0.25 0.75
vt 0.25 1
vt 0.5 1
vt 0.375 0.875
vt 0.4875 0.875
vt 0.45454951288348655 0.9545495128834867
vt 0.375 0.875
vt 0.45454951288348655 0.9545495128834867
vt 0.4875 0.875
vn 0.9238795325112868 0 0.3826834323650897
vn 0 1 0
vn 0 -1 0
vn 0.3826834323650898 0 0.9238795325112867
vn 0 1 0
vn 0 -1 0
vn -0.3826834323650897 0 0.9238795325112868
vn 0 1 0
vn 0 -1 0
vn -0.9238795325112867 0 0.38268343236508984
vn 0 1 0
vn 0 -1 0
vn -0.9238795325112868 0 -0.38268343236508967
vn 0 1 0
vn 0 -1 0
vn -0.38268343236508984 0 -0.9238795325112867
vn 0 1 0
vn 0 -1 0
vn 0.3826834323650897 0 -0.9238795325112868
vn 0 1 0
vn 0 -1 0
vn 0.9238795325112867 0 -0.38268343236509
vn 0 1 0
vn 0 -1 0
v 0.54062500 1.80000000 0.42187500
v 0.54062500 1.80000000 0.39062500
v 0.54062500 1.36250000 0.42187500
v 0.54062500 1.36250000 0.39062500
v 0.50937500 1.80000000 0.39062500
v 0.50937500 1.80000000 0.42187500
v 0.50937500 1.36250000 0.39062500
v 0.50937500 1.36250000 0.42187500
vt 0 0.75
vt 0.25 0.75
vt 0.25 0.5
vt 0 0.5
vt 0 0.75
vt 0.25 0.75
vt 0.25 0.5
vt 0 0.5
vt 0 0.75
vt 0.25 0.75
vt 0.25 0.5
vt 0 0.5
vt 0 0.75
vt 0.25 0.75
vt 0.25 0.5
vt 0 0.5
vt 0 0.75
vt 0.25 0.75
vt 0.25 0.5
vt 0 0.5
vt 0 0.75
vt 0.25 0.75
vt 0.25 0.5
vt 0 0.5
vn 0 0 -1
vn 1 0 0
vn 0 0 1
vn -1 0 0
vn 0 1 0
vn 0 -1 0
v 0.70625000 1.81250000 0.42500000
v 0.70625000 1.81250000 0.38750000
v 0.70625000 1.78125000 0.42500000
v 0.70625000 1.78125000 0.38750000
v 0.34375000 1.81250000 0.38750000
v 0.34375000 1.81250000 0.42500000
v 0.34375000 1.78125000 0.38750000
v 0.34375000 1.78125000 0.42500000
vt 0.25 0.75
vt 0.5 0.75
vt 0.5 0.5
vt 0.25 0.5
vt 0.25 0.75
vt 0.5 0.75
vt 0.5 0.5
vt 0.25 0.5
vt 0.25 0.75
vt 0.5 0.75
vt 0.5 0.5
vt 0.25 0.5
vt 0.25 0.75
vt 0.5 0.75
vt 0.5 0.5
vt 0.25 0.5
vt 0.25 0.75
vt 0.5 0.75
vt 0.5 0.5
vt 0.25 0.5
vt 0.25 0.75
vt 0.5 0.75
vt 0.5 0.5
vt 0.25 0.5
vn 0 0 -1
vn 1 0 0
vn 0 0 1
vn -1 0 0
vn 0 1 0
vn 0 -1 0
v 0.38125000 1.82000000 0.43000000
v 0.38125000 1.82000000 0.38250000
v 0.38125000 1.77187500 0.43000000
v 0.38125000 1.77187500 0.38250000
v 0.33125000 1.82000000 0.38250000
v 0.33125000 1.82000000 0.43000000
v 0.33125000 1.77187500 0.38250000
v 0.33125000 1.77187500 0.43000000
vt 0 1
vt 0.25 1
vt 0.25 0.75
vt 0 0.75
vt 0 1
vt 0.25 1
vt 0.25 0.75
vt 0 0.75
vt 0 1
vt 0.25 1
vt 0.25 0.75
vt 0 0.75
vt 0 1
vt 0.25 1
vt 0.25 0.75
vt 0 0.75
vt 0 1
vt 0.25 1
vt 0.25 0.75
vt 0 0.75
vt 0 1
vt 0.25 1
vt 0.25 0.75
vt 0 0.75
vn 0 0 -1
vn 1 0 0
vn 0 0 1
vn -1 0 0
vn 0 1 0
vn 0 -1 0
v 0.71875000 1.82000000 0.43000000
v 0.71875000 1.82000000 0.38250000
v 0.71875000 1.77187500 0.43000000
v 0.71875000 1.77187500 0.38250000
v 0.66875000 1.82000000 0.38250000
v 0.66875000 1.82000000 0.43000000
v 0.66875000 1.77187500 0.38250000
v 0.66875000 1.77187500 0.43000000
vt 0 1
vt 0.25 1
vt 0.25 0.75
vt 0 0.75
vt 0 1
vt 0.25 1
vt 0.25 0.75
vt 0 0.75
vt 0 1
vt 0.25 1
vt 0.25 0.75
vt 0 0.75
vt 0 1
vt 0.25 1
vt 0.25 0.75
vt 0 0.75
vt 0 1
vt 0.25 1
vt 0.25 0.75
vt 0 0.75
vt 0 1
vt 0.25 1
vt 0.25 0.75
vt 0 0.75
vn 0 0 -1
vn 1 0 0
vn 0 0 1
vn -1 0 0
vn 0 1 0
vn 0 -1 0
o part_32_rounded_eight_sided_pressing_plate
v 0.53125000 1.31250000 0.40625000
v 0.53125000 1.36875000 0.40625000
v 0.66250000 1.31250000 0.40625000
v 0.66250000 1.36875000 0.40625000
v 0.62405777 1.31250000 0.49905777
v 0.62405777 1.36875000 0.49905777
v 0.53125000 1.31250000 0.53750000
v 0.53125000 1.36875000 0.53750000
v 0.43844223 1.31250000 0.49905777
v 0.43844223 1.36875000 0.49905777
v 0.40000000 1.31250000 0.40625000
v 0.40000000 1.36875000 0.40625000
v 0.43844223 1.31250000 0.31344223
v 0.43844223 1.36875000 0.31344223
v 0.53125000 1.31250000 0.27500000
v 0.53125000 1.36875000 0.27500000
v 0.62405777 1.31250000 0.31344223
v 0.62405777 1.36875000 0.31344223
vt 0.5 0.75
vt 0.25 0.75
vt 0.25 1
vt 0.5 1
vt 0.375 0.875
vt 0.4545495128834866 0.7954504871165133
vt 0.4875 0.875
vt 0.375 0.875
vt 0.4875 0.875
vt 0.4545495128834866 0.7954504871165133
vt 0.5 0.75
vt 0.25 0.75
vt 0.25 1
vt 0.5 1
vt 0.375 0.875
vt 0.375 0.7625
vt 0.4545495128834866 0.7954504871165133
vt 0.375 0.875
vt 0.4545495128834866 0.7954504871165133
vt 0.375 0.7625
vt 0.5 0.75
vt 0.25 0.75
vt 0.25 1
vt 0.5 1
vt 0.375 0.875
vt 0.2954504871165134 0.7954504871165133
vt 0.375 0.7625
vt 0.375 0.875
vt 0.375 0.7625
vt 0.2954504871165134 0.7954504871165133
vt 0.5 0.75
vt 0.25 0.75
vt 0.25 1
vt 0.5 1
vt 0.375 0.875
vt 0.2625 0.875
vt 0.2954504871165134 0.7954504871165133
vt 0.375 0.875
vt 0.2954504871165134 0.7954504871165133
vt 0.2625 0.875
vt 0.5 0.75
vt 0.25 0.75
vt 0.25 1
vt 0.5 1
vt 0.375 0.875
vt 0.2954504871165134 0.9545495128834866
vt 0.2625 0.875
vt 0.375 0.875
vt 0.2625 0.875
vt 0.2954504871165134 0.9545495128834866
vt 0.5 0.75
vt 0.25 0.75
vt 0.25 1
vt 0.5 1
vt 0.375 0.875
vt 0.375 0.9875
vt 0.2954504871165134 0.9545495128834866
vt 0.375 0.875
vt 0.2954504871165134 0.9545495128834866
vt 0.375 0.9875
vt 0.5 0.75
vt 0.25 0.75
vt 0.25 1
vt 0.5 1
vt 0.375 0.875
vt 0.45454951288348655 0.9545495128834867
vt 0.375 0.9875
vt 0.375 0.875
vt 0.375 0.9875
vt 0.45454951288348655 0.9545495128834867
vt 0.5 0.75
vt 0.25 0.75
vt 0.25 1
vt 0.5 1
vt 0.375 0.875
vt 0.4875 0.875
vt 0.45454951288348655 0.9545495128834867
vt 0.375 0.875
vt 0.45454951288348655 0.9545495128834867
vt 0.4875 0.875
vn 0.9238795325112868 0 0.3826834323650896
vn 0 1 0
vn 0 -1 0
vn 0.3826834323650897 0 0.9238795325112867
vn 0 1 0
vn 0 -1 0
vn -0.3826834323650896 0 0.923879532511287
vn 0 1 0
vn 0 -1 0
vn -0.9238795325112867 0 0.3826834323650897
vn 0 1 0
vn 0 -1 0
vn -0.923879532511287 0 -0.3826834323650896
vn 0 1 0
vn 0 -1 0
vn -0.3826834323650898 0 -0.9238795325112867
vn 0 1 0
vn 0 -1 0
vn 0.3826834323650896 0 -0.923879532511287
vn 0 1 0
vn 0 -1 0
vn 0.9238795325112867 0 -0.38268343236508984
vn 0 1 0
vn 0 -1 0
usemtl m_93064393-0add-ca65-e57e-d8c351095e93
f 263/801/205 261/802/205 262/803/205 264/804/205
f 260/805/206 264/806/206 262/807/206
f 259/808/207 261/809/207 263/810/207
f 265/811/208 263/812/208 264/813/208 266/814/208
f 260/815/209 266/816/209 264/817/209
f 259/818/210 263/819/210 265/820/210
f 267/821/211 265/822/211 266/823/211 268/824/211
f 260/825/212 268/826/212 266/827/212
f 259/828/213 265/829/213 267/830/213
f 269/831/214 267/832/214 268/833/214 270/834/214
f 260/835/215 270/836/215 268/837/215
f 259/838/216 267/839/216 269/840/216
f 271/841/217 269/842/217 270/843/217 272/844/217
f 260/845/218 272/846/218 270/847/218
f 259/848/219 269/849/219 271/850/219
f 273/851/220 271/852/220 272/853/220 274/854/220
f 260/855/221 274/856/221 272/857/221
f 259/858/222 271/859/222 273/860/222
f 275/861/223 273/862/223 274/863/223 276/864/223
f 260/865/224 276/866/224 274/867/224
f 259/868/225 273/869/225 275/870/225
f 261/871/226 275/872/226 276/873/226 262/874/226
f 260/875/227 262/876/227 276/877/227
f 259/878/228 275/879/228 261/880/228
v 1.31875000 1.20625000 0.32500000
v 1.31875000 1.20625000 0.18750000
v 1.31875000 1.00000000 0.32500000
v 1.31875000 1.00000000 0.18750000
v 1.18125000 1.20625000 0.18750000
v 1.18125000 1.20625000 0.32500000
v 1.18125000 1.00000000 0.18750000
v 1.18125000 1.00000000 0.32500000
vt 0.75 0.75
vt 1 0.75
vt 1 0.5
vt 0.75 0.5
vt 0.75 0.75
vt 1 0.75
vt 1 0.5
vt 0.75 0.5
vt 0.75 0.75
vt 1 0.75
vt 1 0.5
vt 0.75 0.5
vt 0.75 0.75
vt 1 0.75
vt 1 0.5
vt 0.75 0.5
vt 0.75 0.75
vt 1 0.75
vt 1 0.5
vt 0.75 0.5
vt 0.75 0.75
vt 1 0.75
vt 1 0.5
vt 0.75 0.5
vn 0 0 -1
vn 1 0 0
vn 0 0 1
vn -1 0 0
vn 0 1 0
vn 0 -1 0
v 1.27812500 1.27187500 0.28437500
v 1.27812500 1.27187500 0.22812500
v 1.27812500 1.20625000 0.28437500
v 1.27812500 1.20625000 0.22812500
v 1.22187500 1.27187500 0.22812500
v 1.22187500 1.27187500 0.28437500
v 1.22187500 1.20625000 0.22812500
v 1.22187500 1.20625000 0.28437500
vt 0.5 0.75
vt 0.75 0.75
vt 0.75 0.5
vt 0.5 0.5
vt 0.5 0.75
vt 0.75 0.75
vt 0.75 0.5
vt 0.5 0.5
vt 0.5 0.75
vt 0.75 0.75
vt 0.75 0.5
vt 0.5 0.5
vt 0.5 0.75
vt 0.75 0.75
vt 0.75 0.5
vt 0.5 0.5
vt 0.5 0.75
vt 0.75 0.75
vt 0.75 0.5
vt 0.5 0.5
vt 0.5 0.75
vt 0.75 0.75
vt 0.75 0.5
vt 0.5 0.5
vn 0 0 -1
vn 1 0 0
vn 0 0 1
vn -1 0 0
vn 0 1 0
vn 0 -1 0
v 1.28437500 1.30312500 0.29062500
v 1.28437500 1.30312500 0.22187500
v 1.28437500 1.27187500 0.29062500
v 1.28437500 1.27187500 0.22187500
v 1.21562500 1.30312500 0.22187500
v 1.21562500 1.30312500 0.29062500
v 1.21562500 1.27187500 0.22187500
v 1.21562500 1.27187500 0.29062500
vt 0.25 1
vt 0.5 1
vt 0.5 0.75
vt 0.25 0.75
vt 0.25 1
vt 0.5 1
vt 0.5 0.75
vt 0.25 0.75
vt 0.25 1
vt 0.5 1
vt 0.5 0.75
vt 0.25 0.75
vt 0.25 1
vt 0.5 1
vt 0.5 0.75
vt 0.25 0.75
vt 0.25 1
vt 0.5 1
vt 0.5 0.75
vt 0.25 0.75
vt 0.25 1
vt 0.5 1
vt 0.5 0.75
vt 0.25 0.75
vn 0 0 -1
vn 1 0 0
vn 0 0 1
vn -1 0 0
vn 0 1 0
vn 0 -1 0
v 1.30000000 1.16875000 0.32781250
v 1.30000000 1.16875000 0.32531250
v 1.30000000 1.04375000 0.32781250
v 1.30000000 1.04375000 0.32531250
v 1.20000000 1.16875000 0.32531250
v 1.20000000 1.16875000 0.32781250
v 1.20000000 1.04375000 0.32531250
v 1.20000000 1.04375000 0.32781250
vt 0.75 0.5
vt 1 0.5
vt 1 0.25
vt 0.75 0.25
vt 0.75 0.5
vt 1 0.5
vt 1 0.25
vt 0.75 0.25
vt 0.75 0.5
vt 1 0.5
vt 1 0.25
vt 0.75 0.25
vt 0.75 0.5
vt 1 0.5
vt 1 0.25
vt 0.75 0.25
vt 0.75 0.5
vt 1 0.5
vt 1 0.25
vt 0.75 0.25
vt 0.75 0.5
vt 1 0.5
vt 1 0.25
vt 0.75 0.25
vn 0 0 -1
vn 1 0 0
vn 0 0 1
vn -1 0 0
vn 0 1 0
vn 0 -1 0
v 1.56875000 1.20625000 0.32500000
v 1.56875000 1.20625000 0.18750000
v 1.56875000 1.00000000 0.32500000
v 1.56875000 1.00000000 0.18750000
v 1.43125000 1.20625000 0.18750000
v 1.43125000 1.20625000 0.32500000
v 1.43125000 1.00000000 0.18750000
v 1.43125000 1.00000000 0.32500000
vt 0 0.5
vt 0.25 0.5
vt 0.25 0.25
vt 0 0.25
vt 0 0.5
vt 0.25 0.5
vt 0.25 0.25
vt 0 0.25
vt 0 0.5
vt 0.25 0.5
vt 0.25 0.25
vt 0 0.25
vt 0 0.5
vt 0.25 0.5
vt 0.25 0.25
vt 0 0.25
vt 0 0.5
vt 0.25 0.5
vt 0.25 0.25
vt 0 0.25
vt 0 0.5
vt 0.25 0.5
vt 0.25 0.25
vt 0 0.25
vn 0 0 -1
vn 1 0 0
vn 0 0 1
vn -1 0 0
vn 0 1 0
vn 0 -1 0
v 1.52812500 1.27187500 0.28437500
v 1.52812500 1.27187500 0.22812500
v 1.52812500 1.20625000 0.28437500
v 1.52812500 1.20625000 0.22812500
v 1.47187500 1.27187500 0.22812500
v 1.47187500 1.27187500 0.28437500
v 1.47187500 1.20625000 0.22812500
v 1.47187500 1.20625000 0.28437500
vt 0.5 0.75
vt 0.75 0.75
vt 0.75 0.5
vt 0.5 0.5
vt 0.5 0.75
vt 0.75 0.75
vt 0.75 0.5
vt 0.5 0.5
vt 0.5 0.75
vt 0.75 0.75
vt 0.75 0.5
vt 0.5 0.5
vt 0.5 0.75
vt 0.75 0.75
vt 0.75 0.5
vt 0.5 0.5
vt 0.5 0.75
vt 0.75 0.75
vt 0.75 0.5
vt 0.5 0.5
vt 0.5 0.75
vt 0.75 0.75
vt 0.75 0.5
vt 0.5 0.5
vn 0 0 -1
vn 1 0 0
vn 0 0 1
vn -1 0 0
vn 0 1 0
vn 0 -1 0
v 1.53437500 1.30312500 0.29062500
v 1.53437500 1.30312500 0.22187500
v 1.53437500 1.27187500 0.29062500
v 1.53437500 1.27187500 0.22187500
v 1.46562500 1.30312500 0.22187500
v 1.46562500 1.30312500 0.29062500
v 1.46562500 1.27187500 0.22187500
v 1.46562500 1.27187500 0.29062500
vt 0.25 1
vt 0.5 1
vt 0.5 0.75
vt 0.25 0.75
vt 0.25 1
vt 0.5 1
vt 0.5 0.75
vt 0.25 0.75
vt 0.25 1
vt 0.5 1
vt 0.5 0.75
vt 0.25 0.75
vt 0.25 1
vt 0.5 1
vt 0.5 0.75
vt 0.25 0.75
vt 0.25 1
vt 0.5 1
vt 0.5 0.75
vt 0.25 0.75
vt 0.25 1
vt 0.5 1
vt 0.5 0.75
vt 0.25 0.75
vn 0 0 -1
vn 1 0 0
vn 0 0 1
vn -1 0 0
vn 0 1 0
vn 0 -1 0
v 1.55000000 1.16875000 0.32781250
v 1.55000000 1.16875000 0.32531250
v 1.55000000 1.04375000 0.32781250
v 1.55000000 1.04375000 0.32531250
v 1.45000000 1.16875000 0.32531250
v 1.45000000 1.16875000 0.32781250
v 1.45000000 1.04375000 0.32531250
v 1.45000000 1.04375000 0.32781250
vt 0 0.25
vt 0.25 0.25
vt 0.25 0
vt 0 0
vt 0 0.25
vt 0.25 0.25
vt 0.25 0
vt 0 0
vt 0 0.25
vt 0.25 0.25
vt 0.25 0
vt 0 0
vt 0 0.25
vt 0.25 0.25
vt 0.25 0
vt 0 0
vt 0 0.25
vt 0.25 0.25
vt 0.25 0
vt 0 0
vt 0 0.25
vt 0.25 0.25
vt 0.25 0
vt 0 0
vn 0 0 -1
vn 1 0 0
vn 0 0 1
vn -1 0 0
vn 0 1 0
vn 0 -1 0
v 1.81875000 1.20625000 0.32500000
v 1.81875000 1.20625000 0.18750000
v 1.81875000 1.00000000 0.32500000
v 1.81875000 1.00000000 0.18750000
v 1.68125000 1.20625000 0.18750000
v 1.68125000 1.20625000 0.32500000
v 1.68125000 1.00000000 0.18750000
v 1.68125000 1.00000000 0.32500000
vt 0.25 0.5
vt 0.5 0.5
vt 0.5 0.25
vt 0.25 0.25
vt 0.25 0.5
vt 0.5 0.5
vt 0.5 0.25
vt 0.25 0.25
vt 0.25 0.5
vt 0.5 0.5
vt 0.5 0.25
vt 0.25 0.25
vt 0.25 0.5
vt 0.5 0.5
vt 0.5 0.25
vt 0.25 0.25
vt 0.25 0.5
vt 0.5 0.5
vt 0.5 0.25
vt 0.25 0.25
vt 0.25 0.5
vt 0.5 0.5
vt 0.5 0.25
vt 0.25 0.25
vn 0 0 -1
vn 1 0 0
vn 0 0 1
vn -1 0 0
vn 0 1 0
vn 0 -1 0
v 1.77812500 1.27187500 0.28437500
v 1.77812500 1.27187500 0.22812500
v 1.77812500 1.20625000 0.28437500
v 1.77812500 1.20625000 0.22812500
v 1.72187500 1.27187500 0.22812500
v 1.72187500 1.27187500 0.28437500
v 1.72187500 1.20625000 0.22812500
v 1.72187500 1.20625000 0.28437500
vt 0.5 0.75
vt 0.75 0.75
vt 0.75 0.5
vt 0.5 0.5
vt 0.5 0.75
vt 0.75 0.75
vt 0.75 0.5
vt 0.5 0.5
vt 0.5 0.75
vt 0.75 0.75
vt 0.75 0.5
vt 0.5 0.5
vt 0.5 0.75
vt 0.75 0.75
vt 0.75 0.5
vt 0.5 0.5
vt 0.5 0.75
vt 0.75 0.75
vt 0.75 0.5
vt 0.5 0.5
vt 0.5 0.75
vt 0.75 0.75
vt 0.75 0.5
vt 0.5 0.5
vn 0 0 -1
vn 1 0 0
vn 0 0 1
vn -1 0 0
vn 0 1 0
vn 0 -1 0
v 1.78437500 1.30312500 0.29062500
v 1.78437500 1.30312500 0.22187500
v 1.78437500 1.27187500 0.29062500
v 1.78437500 1.27187500 0.22187500
v 1.71562500 1.30312500 0.22187500
v 1.71562500 1.30312500 0.29062500
v 1.71562500 1.27187500 0.22187500
v 1.71562500 1.27187500 0.29062500
vt 0.25 1
vt 0.5 1
vt 0.5 0.75
vt 0.25 0.75
vt 0.25 1
vt 0.5 1
vt 0.5 0.75
vt 0.25 0.75
vt 0.25 1
vt 0.5 1
vt 0.5 0.75
vt 0.25 0.75
vt 0.25 1
vt 0.5 1
vt 0.5 0.75
vt 0.25 0.75
vt 0.25 1
vt 0.5 1
vt 0.5 0.75
vt 0.25 0.75
vt 0.25 1
vt 0.5 1
vt 0.5 0.75
vt 0.25 0.75
vn 0 0 -1
vn 1 0 0
vn 0 0 1
vn -1 0 0
vn 0 1 0
vn 0 -1 0
v 1.80000000 1.16875000 0.32781250
v 1.80000000 1.16875000 0.32531250
v 1.80000000 1.04375000 0.32781250
v 1.80000000 1.04375000 0.32531250
v 1.70000000 1.16875000 0.32531250
v 1.70000000 1.16875000 0.32781250
v 1.70000000 1.04375000 0.32531250
v 1.70000000 1.04375000 0.32781250
vt 0.25 0.25
vt 0.5 0.25
vt 0.5 0
vt 0.25 0
vt 0.25 0.25
vt 0.5 0.25
vt 0.5 0
vt 0.25 0
vt 0.25 0.25
vt 0.5 0.25
vt 0.5 0
vt 0.25 0
vt 0.25 0.25
vt 0.5 0.25
vt 0.5 0
vt 0.25 0
vt 0.25 0.25
vt 0.5 0.25
vt 0.5 0
vt 0.25 0
vt 0.25 0.25
vt 0.5 0.25
vt 0.5 0
vt 0.25 0
vn 0 0 -1
vn 1 0 0
vn 0 0 1
vn -1 0 0
vn 0 1 0
vn 0 -1 0
v 0.55625000 1.09687500 0.70625000
v 0.55625000 1.09687500 0.58125000
v 0.55625000 1.06875000 0.70625000
v 0.55625000 1.06875000 0.58125000
v 0.50625000 1.09687500 0.58125000
v 0.50625000 1.09687500 0.70625000
v 0.50625000 1.06875000 0.58125000
v 0.50625000 1.06875000 0.70625000
vt 0.25 0.75
vt 0.5 0.75
vt 0.5 0.5
vt 0.25 0.5
vt 0.25 0.75
vt 0.5 0.75
vt 0.5 0.5
vt 0.25 0.5
vt 0.25 0.75
vt 0.5 0.75
vt 0.5 0.5
vt 0.25 0.5
vt 0.25 0.75
vt 0.5 0.75
vt 0.5 0.5
vt 0.25 0.5
vt 0.25 0.75
vt 0.5 0.75
vt 0.5 0.5
vt 0.25 0.5
vt 0.25 0.75
vt 0.5 0.75
vt 0.5 0.5
vt 0.25 0.5
vn 0 0 -1
vn 1 0 0
vn 0 0 1
vn -1 0 0
vn 0 1 0
vn 0 -1 0
v 0.60625000 1.11875000 0.81875000
v 0.60625000 1.11875000 0.66875000
v 0.60625000 1.00000000 0.81875000
v 0.60625000 1.00000000 0.66875000
v 0.45625000 1.11875000 0.66875000
v 0.45625000 1.11875000 0.81875000
v 0.45625000 1.00000000 0.66875000
v 0.45625000 1.00000000 0.81875000
vt 0.75 1
vt 1 1
vt 1 0.75
vt 0.75 0.75
vt 0.75 1
vt 1 1
vt 1 0.75
vt 0.75 0.75
vt 0.75 1
vt 1 1
vt 1 0.75
vt 0.75 0.75
vt 0.75 1
vt 1 1
vt 1 0.75
vt 0.75 0.75
vt 0.75 0.75
vt 1 0.75
vt 1 0.5
vt 0.75 0.5
vt 0.75 1
vt 1 1
vt 1 0.75
vt 0.75 0.75
vn 0 0 -1
vn 1 0 0
vn 0 0 1
vn -1 0 0
vn 0 1 0
vn 0 -1 0
v 0.64687500 1.09375000 0.77500000
v 0.64687500 1.09375000 0.70937500
v 0.64687500 1.03750000 0.77500000
v 0.64687500 1.03750000 0.70937500
v 0.60500000 1.09375000 0.70937500
v 0.60500000 1.09375000 0.77500000
v 0.60500000 1.03750000 0.70937500
v 0.60500000 1.03750000 0.77500000
vt 0.75 1
vt 1 1
vt 1 0.75
vt 0.75 0.75
vt 0.75 1
vt 1 1
vt 1 0.75
vt 0.75 0.75
vt 0.75 1
vt 1 1
vt 1 0.75
vt 0.75 0.75
vt 0.75 1
vt 1 1
vt 1 0.75
vt 0.75 0.75
vt 0.75 1
vt 1 1
vt 1 0.75
vt 0.75 0.75
vt 0.75 1
vt 1 1
vt 1 0.75
vt 0.75 0.75
vn 0 0 -1
vn 1 0 0
vn 0 0 1
vn -1 0 0
vn 0 1 0
vn 0 -1 0
v 0.40625000 1.02187500 0.90625000
v 0.40625000 1.02187500 0.68750000
v 0.40625000 1.00000000 0.90625000
v 0.40625000 1.00000000 0.68750000
v 0.09375000 1.02187500 0.68750000
v 0.09375000 1.02187500 0.90625000
v 0.09375000 1.00000000 0.68750000
v 0.09375000 1.00000000 0.90625000
vt 0.5 0.25
vt 0.75 0.25
vt 0.75 0
vt 0.5 0
vt 0.5 0.25
vt 0.75 0.25
vt 0.75 0
vt 0.5 0
vt 0.5 0.25
vt 0.75 0.25
vt 0.75 0
vt 0.5 0
vt 0.5 0.25
vt 0.75 0.25
vt 0.75 0
vt 0.5 0
vt 0.5 0.25
vt 0.75 0.25
vt 0.75 0
vt 0.5 0
vt 0.5 0.25
vt 0.75 0.25
vt 0.75 0
vt 0.5 0
vn 0 0 -1
vn 1 0 0
vn 0 0 1
vn -1 0 0
vn 0 1 0
vn 0 -1 0
v 0.40625000 1.10000000 0.70625000
v 0.40625000 1.10000000 0.68750000
v 0.40625000 1.02187500 0.70625000
v 0.40625000 1.02187500 0.68750000
v 0.09375000 1.10000000 0.68750000
v 0.09375000 1.10000000 0.70625000
v 0.09375000 1.02187500 0.68750000
v 0.09375000 1.02187500 0.70625000
vt 0 1
vt 0.25 1
vt 0.25 0.75
vt 0 0.75
vt 0 1
vt 0.25 1
vt 0.25 0.75
vt 0 0.75
vt 0 1
vt 0.25 1
vt 0.25 0.75
vt 0 0.75
vt 0 1
vt 0.25 1
vt 0.25 0.75
vt 0 0.75
vt 0 1
vt 0.25 1
vt 0.25 0.75
vt 0 0.75
vt 0 1
vt 0.25 1
vt 0.25 0.75
vt 0 0.75
vn 0 0 -1
vn 1 0 0
vn 0 0 1
vn -1 0 0
vn 0 1 0
vn 0 -1 0
v 0.40625000 1.10000000 0.90625000
v 0.40625000 1.10000000 0.88750000
v 0.40625000 1.02187500 0.90625000
v 0.40625000 1.02187500 0.88750000
v 0.09375000 1.10000000 0.88750000
v 0.09375000 1.10000000 0.90625000
v 0.09375000 1.02187500 0.88750000
v 0.09375000 1.02187500 0.90625000
vt 0 1
vt 0.25 1
vt 0.25 0.75
vt 0 0.75
vt 0 1
vt 0.25 1
vt 0.25 0.75
vt 0 0.75
vt 0 1
vt 0.25 1
vt 0.25 0.75
vt 0 0.75
vt 0 1
vt 0.25 1
vt 0.25 0.75
vt 0 0.75
vt 0 1
vt 0.25 1
vt 0.25 0.75
vt 0 0.75
vt 0 1
vt 0.25 1
vt 0.25 0.75
vt 0 0.75
vn 0 0 -1
vn 1 0 0
vn 0 0 1
vn -1 0 0
vn 0 1 0
vn 0 -1 0
v 0.11250000 1.10000000 0.88750000
v 0.11250000 1.10000000 0.70625000
v 0.11250000 1.02187500 0.88750000
v 0.11250000 1.02187500 0.70625000
v 0.09375000 1.10000000 0.70625000
v 0.09375000 1.10000000 0.88750000
v 0.09375000 1.02187500 0.70625000
v 0.09375000 1.02187500 0.88750000
vt 0 1
vt 0.25 1
vt 0.25 0.75
vt 0 0.75
vt 0 1
vt 0.25 1
vt 0.25 0.75
vt 0 0.75
vt 0 1
vt 0.25 1
vt 0.25 0.75
vt 0 0.75
vt 0 1
vt 0.25 1
vt 0.25 0.75
vt 0 0.75
vt 0 1
vt 0.25 1
vt 0.25 0.75
vt 0 0.75
vt 0 1
vt 0.25 1
vt 0.25 0.75
vt 0 0.75
vn 0 0 -1
vn 1 0 0
vn 0 0 1
vn -1 0 0
vn 0 1 0
vn 0 -1 0
v 0.40625000 1.10000000 0.88750000
v 0.40625000 1.10000000 0.70625000
v 0.40625000 1.02187500 0.88750000
v 0.40625000 1.02187500 0.70625000
v 0.38750000 1.10000000 0.70625000
v 0.38750000 1.10000000 0.88750000
v 0.38750000 1.02187500 0.70625000
v 0.38750000 1.02187500 0.88750000
vt 0 1
vt 0.25 1
vt 0.25 0.75
vt 0 0.75
vt 0 1
vt 0.25 1
vt 0.25 0.75
vt 0 0.75
vt 0 1
vt 0.25 1
vt 0.25 0.75
vt 0 0.75
vt 0 1
vt 0.25 1
vt 0.25 0.75
vt 0 0.75
vt 0 1
vt 0.25 1
vt 0.25 0.75
vt 0 0.75
vt 0 1
vt 0.25 1
vt 0.25 0.75
vt 0 0.75
vn 0 0 -1
vn 1 0 0
vn 0 0 1
vn -1 0 0
vn 0 1 0
vn 0 -1 0
v 0.22187500 1.11250000 0.81562500
v 0.22187500 1.11250000 0.73437500
v 0.22187500 1.03125000 0.81562500
v 0.22187500 1.03125000 0.73437500
v 0.14062500 1.11250000 0.73437500
v 0.14062500 1.11250000 0.81562500
v 0.14062500 1.03125000 0.73437500
v 0.14062500 1.03125000 0.81562500
vt 0.75 0.75
vt 1 0.75
vt 1 0.5
vt 0.75 0.5
vt 0.75 0.75
vt 1 0.75
vt 1 0.5
vt 0.75 0.5
vt 0.75 0.75
vt 1 0.75
vt 1 0.5
vt 0.75 0.5
vt 0.75 0.75
vt 1 0.75
vt 1 0.5
vt 0.75 0.5
vt 0.75 0.75
vt 1 0.75
vt 1 0.5
vt 0.75 0.5
vt 0.75 0.75
vt 1 0.75
vt 1 0.5
vt 0.75 0.5
vn 0 0 -1
vn 1 0 0
vn 0 0 1
vn -1 0 0
vn 0 1 0
vn 0 -1 0
v 0.30937500 1.11562500 0.85312500
v 0.30937500 1.11562500 0.78125000
v 0.30937500 1.03750000 0.85312500
v 0.30937500 1.03750000 0.78125000
v 0.23750000 1.11562500 0.78125000
v 0.23750000 1.11562500 0.85312500
v 0.23750000 1.03750000 0.78125000
v 0.23750000 1.03750000 0.85312500
vt 0 0.5
vt 0.25 0.5
vt 0.25 0.25
vt 0 0.25
vt 0 0.5
vt 0.25 0.5
vt 0.25 0.25
vt 0 0.25
vt 0 0.5
vt 0.25 0.5
vt 0.25 0.25
vt 0 0.25
vt 0 0.5
vt 0.25 0.5
vt 0.25 0.25
vt 0 0.25
vt 0 0.5
vt 0.25 0.5
vt 0.25 0.25
vt 0 0.25
vt 0 0.5
vt 0.25 0.5
vt 0.25 0.25
vt 0 0.25
vn 0 0 -1
vn 1 0 0
vn 0 0 1
vn -1 0 0
vn 0 1 0
vn 0 -1 0
v 0.37500000 1.11875000 0.80625000
v 0.37500000 1.11875000 0.72812500
v 0.37500000 1.03125000 0.80625000
v 0.37500000 1.03125000 0.72812500
v 0.29687500 1.11875000 0.72812500
v 0.29687500 1.11875000 0.80625000
v 0.29687500 1.03125000 0.72812500
v 0.29687500 1.03125000 0.80625000
vt 0.25 0.5
vt 0.5 0.5
vt 0.5 0.25
vt 0.25 0.25
vt 0.25 0.5
vt 0.5 0.5
vt 0.5 0.25
vt 0.25 0.25
vt 0.25 0.5
vt 0.5 0.5
vt 0.5 0.25
vt 0.25 0.25
vt 0.25 0.5
vt 0.5 0.5
vt 0.5 0.25
vt 0.25 0.25
vt 0.25 0.5
vt 0.5 0.5
vt 0.5 0.25
vt 0.25 0.25
vt 0.25 0.5
vt 0.5 0.5
vt 0.5 0.25
vt 0.25 0.25
vn 0 0 -1
vn 1 0 0
vn 0 0 1
vn -1 0 0
vn 0 1 0
vn 0 -1 0
v 0.22187500 1.12312500 0.79062500
v 0.22187500 1.12312500 0.76250000
v 0.22187500 1.11250000 0.79062500
v 0.22187500 1.11250000 0.76250000
v 0.17812500 1.12312500 0.76250000
v 0.17812500 1.12312500 0.79062500
v 0.17812500 1.11250000 0.76250000
v 0.17812500 1.11250000 0.79062500
vt 0.25 0.5
vt 0.5 0.5
vt 0.5 0.25
vt 0.25 0.25
vt 0.25 0.5
vt 0.5 0.5
vt 0.5 0.25
vt 0.25 0.25
vt 0.25 0.5
vt 0.5 0.5
vt 0.5 0.25
vt 0.25 0.25
vt 0.25 0.5
vt 0.5 0.5
vt 0.5 0.25
vt 0.25 0.25
vt 0.25 0.5
vt 0.5 0.5
vt 0.5 0.25
vt 0.25 0.25
vt 0.25 0.5
vt 0.5 0.5
vt 0.5 0.25
vt 0.25 0.25
vn 0 0 -1
vn 1 0 0
vn 0 0 1
vn -1 0 0
vn 0 1 0
vn 0 -1 0
v 0.37187500 1.12937500 0.77500000
v 0.37187500 1.12937500 0.75000000
v 0.37187500 1.11875000 0.77500000
v 0.37187500 1.11875000 0.75000000
v 0.32500000 1.12937500 0.75000000
v 0.32500000 1.12937500 0.77500000
v 0.32500000 1.11875000 0.75000000
v 0.32500000 1.11875000 0.77500000
vt 0.25 0.5
vt 0.5 0.5
vt 0.5 0.25
vt 0.25 0.25
vt 0.25 0.5
vt 0.5 0.5
vt 0.5 0.25
vt 0.25 0.25
vt 0.25 0.5
vt 0.5 0.5
vt 0.5 0.25
vt 0.25 0.25
vt 0.25 0.5
vt 0.5 0.5
vt 0.5 0.25
vt 0.25 0.25
vt 0.25 0.5
vt 0.5 0.5
vt 0.5 0.25
vt 0.25 0.25
vt 0.25 0.5
vt 0.5 0.5
vt 0.5 0.25
vt 0.25 0.25
vn 0 0 -1
vn 1 0 0
vn 0 0 1
vn -1 0 0
vn 0 1 0
vn 0 -1 0
v 1.31250000 1.02625000 0.90625000
v 1.31250000 1.02625000 0.62500000
v 1.31250000 1.00000000 0.90625000
v 1.31250000 1.00000000 0.62500000
v 0.87500000 1.02625000 0.62500000
v 0.87500000 1.02625000 0.90625000
v 0.87500000 1.00000000 0.62500000
v 0.87500000 1.00000000 0.90625000
vt 0.5 0.25
vt 0.75 0.25
vt 0.75 0
vt 0.5 0
vt 0.5 0.25
vt 0.75 0.25
vt 0.75 0
vt 0.5 0
vt 0.5 0.25
vt 0.75 0.25
vt 0.75 0
vt 0.5 0
vt 0.5 0.25
vt 0.75 0.25
vt 0.75 0
vt 0.5 0
vt 0.5 0.25
vt 0.75 0.25
vt 0.75 0
vt 0.5 0
vt 0.5 0.25
vt 0.75 0.25
vt 0.75 0
vt 0.5 0
vn 0 0 -1
vn 1 0 0
vn 0 0 1
vn -1 0 0
vn 0 1 0
vn 0 -1 0
v 1.18142405 1.03875000 0.82738793
v 1.18106953 1.03875000 0.78676447
v 1.18142405 1.02812500 0.82738793
v 1.18106953 1.02812500 0.78676447
v 1.01232595 1.03875000 0.78823707
v 1.01268047 1.03875000 0.82886053
v 1.01232595 1.02812500 0.78823707
v 1.01268047 1.02812500 0.82886053
vt 0 0.75
vt 0.25 0.75
vt 0.25 0.5
vt 0 0.5
vt 0 0.75
vt 0.25 0.75
vt 0.25 0.5
vt 0 0.5
vt 0 0.75
vt 0.25 0.75
vt 0.25 0.5
vt 0 0.5
vt 0 0.75
vt 0.25 0.75
vt 0.25 0.5
vt 0 0.5
vt 0 0.75
vt 0.25 0.75
vt 0.25 0.5
vt 0 0.5
vt 0 0.75
vt 0.25 0.75
vt 0.25 0.5
vt 0 0.5
vn -0.008726535498373935 0 -0.9999619230641713
vn 0.9999619230641713 0 -0.008726535498373935
vn 0.008726535498373935 0 0.9999619230641713
vn -0.9999619230641713 0 0.008726535498373935
vn 0 1 0
vn 0 -1 0
v 1.25224025 1.04500000 0.83065018
v 1.25834766 1.04500000 0.80191709
v 1.25224025 1.02750000 0.83065018
v 1.25834766 1.02750000 0.80191709
v 1.17275975 1.04500000 0.78372482
v 1.16665234 1.04500000 0.81245791
v 1.17275975 1.02750000 0.78372482
v 1.16665234 1.02750000 0.81245791
vt 0.25 1
vt 0.5 1
vt 0.5 0.75
vt 0.25 0.75
vt 0.25 1
vt 0.5 1
vt 0.5 0.75
vt 0.25 0.75
vt 0.25 1
vt 0.5 1
vt 0.5 0.75
vt 0.25 0.75
vt 0.25 1
vt 0.5 1
vt 0.5 0.75
vt 0.25 0.75
vt 0.25 1
vt 0.5 1
vt 0.5 0.75
vt 0.25 0.75
vt 0.25 1
vt 0.5 1
vt 0.5 0.75
vt 0.25 0.75
vn 0.2079116908177593 0 -0.9781476007338057
vn 0.9781476007338057 0 0.2079116908177593
vn -0.2079116908177593 0 0.9781476007338057
vn -0.9781476007338057 0 -0.2079116908177593
vn 0 1 0
vn 0 -1 0
v 1.03125000 1.04250000 0.77812500
v 1.03125000 1.04250000 0.67187500
v 1.03125000 1.02687500 0.77812500
v 1.03125000 1.02687500 0.67187500
v 0.92500000 1.04250000 0.67187500
v 0.92500000 1.04250000 0.77812500
v 0.92500000 1.02687500 0.67187500
v 0.92500000 1.02687500 0.77812500
vt 0.75 0.75
vt 1 0.75
vt 1 0.5
vt 0.75 0.5
vt 0.75 0.75
vt 1 0.75
vt 1 0.5
vt 0.75 0.5
vt 0.75 0.75
vt 1 0.75
vt 1 0.5
vt 0.75 0.5
vt 0.75 0.75
vt 1 0.75
vt 1 0.5
vt 0.75 0.5
vt 0.75 0.75
vt 1 0.75
vt 1 0.5
vt 0.75 0.5
vt 0.75 0.75
vt 1 0.75
vt 1 0.5
vt 0.75 0.5
vn 0 0 -1
vn 1 0 0
vn 0 0 1
vn -1 0 0
vn 0 1 0
vn 0 -1 0
v 1.86875000 1.04500000 0.87500000
v 1.86875000 1.04500000 0.59375000
v 1.86875000 1.00000000 0.87500000
v 1.86875000 1.00000000 0.59375000
v 1.47500000 1.04500000 0.59375000
v 1.47500000 1.04500000 0.87500000
v 1.47500000 1.00000000 0.59375000
v 1.47500000 1.00000000 0.87500000
vt 0.75 1
vt 1 1
vt 1 0.75
vt 0.75 0.75
vt 0.75 1
vt 1 1
vt 1 0.75
vt 0.75 0.75
vt 0.75 1
vt 1 1
vt 1 0.75
vt 0.75 0.75
vt 0.75 1
vt 1 1
vt 1 0.75
vt 0.75 0.75
vt 0.75 0.25
vt 1 0.25
vt 1 0
vt 0.75 0
vt 0.5 1
vt 0.75 1
vt 0.75 0.75
vt 0.5 0.75
vn 0 0 -1
vn 1 0 0
vn 0 0 1
vn -1 0 0
vn 0 1 0
vn 0 -1 0
v 1.49687500 1.05375000 0.88125000
v 1.49687500 1.05375000 0.58750000
v 1.49687500 1.00000000 0.88125000
v 1.49687500 1.00000000 0.58750000
v 1.45937500 1.05375000 0.58750000
v 1.45937500 1.05375000 0.88125000
v 1.45937500 1.00000000 0.58750000
v 1.45937500 1.00000000 0.88125000
vt 0.5 1
vt 0.75 1
vt 0.75 0.75
vt 0.5 0.75
vt 0.5 1
vt 0.75 1
vt 0.75 0.75
vt 0.5 0.75
vt 0.5 1
vt 0.75 1
vt 0.75 0.75
vt 0.5 0.75
vt 0.5 1
vt 0.75 1
vt 0.75 0.75
vt 0.5 0.75
vt 0.5 1
vt 0.75 1
vt 0.75 0.75
vt 0.5 0.75
vt 0.5 1
vt 0.75 1
vt 0.75 0.75
vt 0.5 0.75
vn 0 0 -1
vn 1 0 0
vn 0 0 1
vn -1 0 0
vn 0 1 0
vn 0 -1 0
v 1.85937500 1.05937500 0.89375000
v 1.85937500 1.05937500 0.86562500
v 1.85937500 1.01875000 0.89375000
v 1.85937500 1.01875000 0.86562500
v 1.82500000 1.05937500 0.86562500
v 1.82500000 1.05937500 0.89375000
v 1.82500000 1.01875000 0.86562500
v 1.82500000 1.01875000 0.89375000
vt 0.25 0.75
vt 0.5 0.75
vt 0.5 0.5
vt 0.25 0.5
vt 0.25 0.75
vt 0.5 0.75
vt 0.5 0.5
vt 0.25 0.5
vt 0.25 0.75
vt 0.5 0.75
vt 0.5 0.5
vt 0.25 0.5
vt 0.25 0.75
vt 0.5 0.75
vt 0.5 0.5
vt 0.25 0.5
vt 0.25 0.75
vt 0.5 0.75
vt 0.5 0.5
vt 0.25 0.5
vt 0.25 0.75
vt 0.5 0.75
vt 0.5 0.5
vt 0.25 0.5
vn 0 0 -1
vn 1 0 0
vn 0 0 1
vn -1 0 0
vn 0 1 0
vn 0 -1 0
