# Made in Blockbench 5.1.6
mtllib juice_table.mtl

v 2.00000000 1.00000000 1.00000000
v 2.00000000 1.00000000 0.00000000
v 2.00000000 0.87500000 1.00000000
v 2.00000000 0.87500000 0.00000000
v 0.00000000 1.00000000 0.00000000
v 0.00000000 1.00000000 1.00000000
v 0.00000000 0.87500000 0.00000000
v 0.00000000 0.87500000 1.00000000
vt 0.5 1
vt 0.75 1
vt 0.75 0.75
vt 0.5 0.75
vt 0.5 1
vt 0.75 1
vt 0.75 0.75
vt 0.5 0.75
vt 0.5 1
vt 0.75 1
vt 0.75 0.75
vt 0.5 0.75
vt 0.5 1
vt 0.75 1
vt 0.75 0.75
vt 0.5 0.75
vt 0.75 1
vt 1 1
vt 1 0.75
vt 0.75 0.75
vt 0.25 1
vt 0.5 1
vt 0.5 0.75
vt 0.25 0.75
vn 0 0 -1
vn 1 0 0
vn 0 0 1
vn -1 0 0
vn 0 1 0
vn 0 -1 0
v 0.25000000 0.87500000 0.25000000
v 0.25000000 0.87500000 0.12500000
v 0.25000000 0.00000000 0.25000000
v 0.25000000 0.00000000 0.12500000
v 0.12500000 0.87500000 0.12500000
v 0.12500000 0.87500000 0.25000000
v 0.12500000 0.00000000 0.12500000
v 0.12500000 0.00000000 0.25000000
vt 0 1
vt 0.25 1
vt 0.25 0.75
vt 0 0.75
vt 0 1
vt 0.25 1
vt 0.25 0.75
vt 0 0.75
vt 0 1
vt 0.25 1
vt 0.25 0.75
vt 0 0.75
vt 0 1
vt 0.25 1
vt 0.25 0.75
vt 0 0.75
vt 0 1
vt 0.25 1
vt 0.25 0.75
vt 0 0.75
vt 0 1
vt 0.25 1
vt 0.25 0.75
vt 0 0.75
vn 0 0 -1
vn 1 0 0
vn 0 0 1
vn -1 0 0
vn 0 1 0
vn 0 -1 0
v 0.25000000 0.87500000 0.87500000
v 0.25000000 0.87500000 0.75000000
v 0.25000000 0.00000000 0.87500000
v 0.25000000 0.00000000 0.75000000
v 0.12500000 0.87500000 0.75000000
v 0.12500000 0.87500000 0.87500000
v 0.12500000 0.00000000 0.75000000
v 0.12500000 0.00000000 0.87500000
vt 0 1
vt 0.25 1
vt 0.25 0.75
vt 0 0.75
vt 0 1
vt 0.25 1
vt 0.25 0.75
vt 0 0.75
vt 0 1
vt 0.25 1
vt 0.25 0.75
vt 0 0.75
vt 0 1
vt 0.25 1
vt 0.25 0.75
vt 0 0.75
vt 0 1
vt 0.25 1
vt 0.25 0.75
vt 0 0.75
vt 0 1
vt 0.25 1
vt 0.25 0.75
vt 0 0.75
vn 0 0 -1
vn 1 0 0
vn 0 0 1
vn -1 0 0
vn 0 1 0
vn 0 -1 0
v 1.87500000 0.87500000 0.25000000
v 1.87500000 0.87500000 0.12500000
v 1.87500000 0.00000000 0.25000000
v 1.87500000 0.00000000 0.12500000
v 1.75000000 0.87500000 0.12500000
v 1.75000000 0.87500000 0.25000000
v 1.75000000 0.00000000 0.12500000
v 1.75000000 0.00000000 0.25000000
vt 0 1
vt 0.25 1
vt 0.25 0.75
vt 0 0.75
vt 0 1
vt 0.25 1
vt 0.25 0.75
vt 0 0.75
vt 0 1
vt 0.25 1
vt 0.25 0.75
vt 0 0.75
vt 0 1
vt 0.25 1
vt 0.25 0.75
vt 0 0.75
vt 0 1
vt 0.25 1
vt 0.25 0.75
vt 0 0.75
vt 0 1
vt 0.25 1
vt 0.25 0.75
vt 0 0.75
vn 0 0 -1
vn 1 0 0
vn 0 0 1
vn -1 0 0
vn 0 1 0
vn 0 -1 0
v 1.87500000 0.75000000 0.87500000
v 1.87500000 0.75000000 0.75000000
v 1.87500000 0.00000000 0.87500000
v 1.87500000 0.00000000 0.75000000
v 1.75000000 0.75000000 0.75000000
v 1.75000000 0.75000000 0.87500000
v 1.75000000 0.00000000 0.75000000
v 1.75000000 0.00000000 0.87500000
vt 0 1
vt 0.25 1
vt 0.25 0.75
vt 0 0.75
vt 0 1
vt 0.25 1
vt 0.25 0.75
vt 0 0.75
vt 0 1
vt 0.25 1
vt 0.25 0.75
vt 0 0.75
vt 0 1
vt 0.25 1
vt 0.25 0.75
vt 0 0.75
vt 0 1
vt 0.25 1
vt 0.25 0.75
vt 0 0.75
vt 0 1
vt 0.25 1
vt 0.25 0.75
vt 0 0.75
vn 0 0 -1
vn 1 0 0
vn 0 0 1
vn -1 0 0
vn 0 1 0
vn 0 -1 0
v 1.87500000 0.87500000 0.12500000
v 1.87500000 0.87500000 0.06250000
v 1.87500000 0.71875000 0.12500000
v 1.87500000 0.71875000 0.06250000
v 0.06250000 0.87500000 0.06250000
v 0.06250000 0.87500000 0.12500000
v 0.06250000 0.71875000 0.06250000
v 0.06250000 0.71875000 0.12500000
vt 0.5 1
vt 0.75 1
vt 0.75 0.75
vt 0.5 0.75
vt 0.5 1
vt 0.75 1
vt 0.75 0.75
vt 0.5 0.75
vt 0.5 1
vt 0.75 1
vt 0.75 0.75
vt 0.5 0.75
vt 0.5 1
vt 0.75 1
vt 0.75 0.75
vt 0.5 0.75
vt 0.5 1
vt 0.75 1
vt 0.75 0.75
vt 0.5 0.75
vt 0.5 1
vt 0.75 1
vt 0.75 0.75
vt 0.5 0.75
vn 0 0 -1
vn 1 0 0
vn 0 0 1
vn -1 0 0
vn 0 1 0
vn 0 -1 0
v 1.87500000 0.87500000 0.93750000
v 1.87500000 0.87500000 0.87500000
v 1.87500000 0.71875000 0.93750000
v 1.87500000 0.71875000 0.87500000
v 0.12500000 0.87500000 0.87500000
v 0.12500000 0.87500000 0.93750000
v 0.12500000 0.71875000 0.87500000
v 0.12500000 0.71875000 0.93750000
vt 0.5 1
vt 0.75 1
vt 0.75 0.75
vt 0.5 0.75
vt 0.5 1
vt 0.75 1
vt 0.75 0.75
vt 0.5 0.75
vt 0.5 1
vt 0.75 1
vt 0.75 0.75
vt 0.5 0.75
vt 0.5 1
vt 0.75 1
vt 0.75 0.75
vt 0.5 0.75
vt 0.5 1
vt 0.75 1
vt 0.75 0.75
vt 0.5 0.75
vt 0.5 1
vt 0.75 1
vt 0.75 0.75
vt 0.5 0.75
vn 0 0 -1
vn 1 0 0
vn 0 0 1
vn -1 0 0
vn 0 1 0
vn 0 -1 0
v 1.81250000 0.25000000 0.81250000
v 1.81250000 0.25000000 0.18750000
v 1.81250000 0.18750000 0.81250000
v 1.81250000 0.18750000 0.18750000
v 0.18750000 0.25000000 0.18750000
v 0.18750000 0.25000000 0.81250000
v 0.18750000 0.18750000 0.18750000
v 0.18750000 0.18750000 0.81250000
vt 0.5 0.25
vt 0.75 0.25
vt 0.75 0
vt 0.5 0
vt 0.5 0.25
vt 0.75 0.25
vt 0.75 0
vt 0.5 0
vt 0.5 0.25
vt 0.75 0.25
vt 0.75 0
vt 0.5 0
vt 0.5 0.25
vt 0.75 0.25
vt 0.75 0
vt 0.5 0
vt 0.5 0.25
vt 0.75 0.25
vt 0.75 0
vt 0.5 0
vt 0.5 0.25
vt 0.75 0.25
vt 0.75 0
vt 0.5 0
vn 0 0 -1
vn 1 0 0
vn 0 0 1
vn -1 0 0
vn 0 1 0
vn 0 -1 0
v 0.25375000 0.08750000 0.25375000
v 0.25375000 0.08750000 0.12125000
v 0.25375000 0.05000000 0.25375000
v 0.25375000 0.05000000 0.12125000
v 0.12125000 0.08750000 0.12125000
v 0.12125000 0.08750000 0.25375000
v 0.12125000 0.05000000 0.12125000
v 0.12125000 0.05000000 0.25375000
vt 0 0.75
vt 0.25 0.75
vt 0.25 0.5
vt 0 0.5
vt 0 0.75
vt 0.25 0.75
vt 0.25 0.5
vt 0 0.5
vt 0 0.75
vt 0.25 0.75
vt 0.25 0.5
vt 0 0.5
vt 0 0.75
vt 0.25 0.75
vt 0.25 0.5
vt 0 0.5
vt 0 0.75
vt 0.25 0.75
vt 0.25 0.5
vt 0 0.5
vt 0 0.75
vt 0.25 0.75
vt 0.25 0.5
vt 0 0.5
vn 0 0 -1
vn 1 0 0
vn 0 0 1
vn -1 0 0
vn 0 1 0
vn 0 -1 0
v 0.25375000 0.08750000 0.87875000
v 0.25375000 0.08750000 0.74625000
v 0.25375000 0.05000000 0.87875000
v 0.25375000 0.05000000 0.74625000
v 0.12125000 0.08750000 0.74625000
v 0.12125000 0.08750000 0.87875000
v 0.12125000 0.05000000 0.74625000
v 0.12125000 0.05000000 0.87875000
vt 0 0.75
vt 0.25 0.75
vt 0.25 0.5
vt 0 0.5
vt 0 0.75
vt 0.25 0.75
vt 0.25 0.5
vt 0 0.5
vt 0 0.75
vt 0.25 0.75
vt 0.25 0.5
vt 0 0.5
vt 0 0.75
vt 0.25 0.75
vt 0.25 0.5
vt 0 0.5
vt 0 0.75
vt 0.25 0.75
vt 0.25 0.5
vt 0 0.5
vt 0 0.75
vt 0.25 0.75
vt 0.25 0.5
vt 0 0.5
vn 0 0 -1
vn 1 0 0
vn 0 0 1
vn -1 0 0
vn 0 1 0
vn 0 -1 0
v 1.87875000 0.08750000 0.25375000
v 1.87875000 0.08750000 0.12125000
v 1.87875000 0.05000000 0.25375000
v 1.87875000 0.05000000 0.12125000
v 1.74625000 0.08750000 0.12125000
v 1.74625000 0.08750000 0.25375000
v 1.74625000 0.05000000 0.12125000
v 1.74625000 0.05000000 0.25375000
vt 0 0.75
vt 0.25 0.75
vt 0.25 0.5
vt 0 0.5
vt 0 0.75
vt 0.25 0.75
vt 0.25 0.5
vt 0 0.5
vt 0 0.75
vt 0.25 0.75
vt 0.25 0.5
vt 0 0.5
vt 0 0.75
vt 0.25 0.75
vt 0.25 0.5
vt 0 0.5
vt 0 0.75
vt 0.25 0.75
vt 0.25 0.5
vt 0 0.5
vt 0 0.75
vt 0.25 0.75
vt 0.25 0.5
vt 0 0.5
vn 0 0 -1
vn 1 0 0
vn 0 0 1
vn -1 0 0
vn 0 1 0
vn 0 -1 0
v 1.87875000 0.08750000 0.87875000
v 1.87875000 0.08750000 0.74625000
v 1.87875000 0.05000000 0.87875000
v 1.87875000 0.05000000 0.74625000
v 1.74625000 0.08750000 0.74625000
v 1.74625000 0.08750000 0.87875000
v 1.74625000 0.05000000 0.74625000
v 1.74625000 0.05000000 0.87875000
vt 0 0.75
vt 0.25 0.75
vt 0.25 0.5
vt 0 0.5
vt 0 0.75
vt 0.25 0.75
vt 0.25 0.5
vt 0 0.5
vt 0 0.75
vt 0.25 0.75
vt 0.25 0.5
vt 0 0.5
vt 0 0.75
vt 0.25 0.75
vt 0.25 0.5
vt 0 0.5
vt 0 0.75
vt 0.25 0.75
vt 0.25 0.5
vt 0 0.5
vt 0 0.75
vt 0.25 0.75
vt 0.25 0.5
vt 0 0.5
vn 0 0 -1
vn 1 0 0
vn 0 0 1
vn -1 0 0
vn 0 1 0
vn 0 -1 0
v 0.13125000 1.00812500 0.11250000
v 0.13125000 1.00812500 0.04375000
v 0.13125000 1.00093750 0.11250000
v 0.13125000 1.00093750 0.04375000
v 0.04375000 1.00812500 0.04375000
v 0.04375000 1.00812500 0.11250000
v 0.04375000 1.00093750 0.04375000
v 0.04375000 1.00093750 0.11250000
vt 0 0.75
vt 0.25 0.75
vt 0.25 0.5
vt 0 0.5
vt 0 0.75
vt 0.25 0.75
vt 0.25 0.5
vt 0 0.5
vt 0 0.75
vt 0.25 0.75
vt 0.25 0.5
vt 0 0.5
vt 0 0.75
vt 0.25 0.75
vt 0.25 0.5
vt 0 0.5
vt 0 0.75
vt 0.25 0.75
vt 0.25 0.5
vt 0 0.5
vt 0 0.75
vt 0.25 0.75
vt 0.25 0.5
vt 0 0.5
vn 0 0 -1
vn 1 0 0
vn 0 0 1
vn -1 0 0
vn 0 1 0
vn 0 -1 0
v 0.13125000 1.00812500 0.95000000
v 0.13125000 1.00812500 0.88125000
v 0.13125000 1.00093750 0.95000000
v 0.13125000 1.00093750 0.88125000
v 0.04375000 1.00812500 0.88125000
v 0.04375000 1.00812500 0.95000000
v 0.04375000 1.00093750 0.88125000
v 0.04375000 1.00093750 0.95000000
vt 0 0.75
vt 0.25 0.75
vt 0.25 0.5
vt 0 0.5
vt 0 0.75
vt 0.25 0.75
vt 0.25 0.5
vt 0 0.5
vt 0 0.75
vt 0.25 0.75
vt 0.25 0.5
vt 0 0.5
vt 0 0.75
vt 0.25 0.75
vt 0.25 0.5
vt 0 0.5
vt 0 0.75
vt 0.25 0.75
vt 0.25 0.5
vt 0 0.5
vt 0 0.75
vt 0.25 0.75
vt 0.25 0.5
vt 0 0.5
vn 0 0 -1
vn 1 0 0
vn 0 0 1
vn -1 0 0
vn 0 1 0
vn 0 -1 0
v 1.95625000 1.00812500 0.11250000
v 1.95625000 1.00812500 0.04375000
v 1.95625000 1.00093750 0.11250000
v 1.95625000 1.00093750 0.04375000
v 1.86875000 1.00812500 0.04375000
v 1.86875000 1.00812500 0.11250000
v 1.86875000 1.00093750 0.04375000
v 1.86875000 1.00093750 0.11250000
vt 0 0.75
vt 0.25 0.75
vt 0.25 0.5
vt 0 0.5
vt 0 0.75
vt 0.25 0.75
vt 0.25 0.5
vt 0 0.5
vt 0 0.75
vt 0.25 0.75
vt 0.25 0.5
vt 0 0.5
vt 0 0.75
vt 0.25 0.75
vt 0.25 0.5
vt 0 0.5
vt 0 0.75
vt 0.25 0.75
vt 0.25 0.5
vt 0 0.5
vt 0 0.75
vt 0.25 0.75
vt 0.25 0.5
vt 0 0.5
vn 0 0 -1
vn 1 0 0
vn 0 0 1
vn -1 0 0
vn 0 1 0
vn 0 -1 0
v 1.95625000 1.00812500 0.95000000
v 1.95625000 1.00812500 0.88125000
v 1.95625000 1.00093750 0.95000000
v 1.95625000 1.00093750 0.88125000
v 1.86875000 1.00812500 0.88125000
v 1.86875000 1.00812500 0.95000000
v 1.86875000 1.00093750 0.88125000
v 1.86875000 1.00093750 0.95000000
vt 0 0.75
vt 0.25 0.75
vt 0.25 0.5
vt 0 0.5
vt 0 0.75
vt 0.25 0.75
vt 0.25 0.5
vt 0 0.5
vt 0 0.75
vt 0.25 0.75
vt 0.25 0.5
vt 0 0.5
vt 0 0.75
vt 0.25 0.75
vt 0.25 0.5
vt 0 0.5
vt 0 0.75
vt 0.25 0.75
vt 0.25 0.5
vt 0 0.5
vt 0 0.75
vt 0.25 0.75
vt 0.25 0.5
vt 0 0.5
vn 0 0 -1
vn 1 0 0
vn 0 0 1
vn -1 0 0
vn 0 1 0
vn 0 -1 0
v 2.00000000 1.00750000 0.03750000
v 2.00000000 1.00750000 -0.00000000
v 2.00000000 1.00000000 0.03750000
v 2.00000000 1.00000000 -0.00000000
v 0.00000000 1.00750000 -0.00000000
v 0.00000000 1.00750000 0.03750000
v 0.00000000 1.00000000 -0.00000000
v 0.00000000 1.00000000 0.03750000
vt 0 1
vt 0.25 1
vt 0.25 0.75
vt 0 0.75
vt 0 1
vt 0.25 1
vt 0.25 0.75
vt 0 0.75
vt 0 1
vt 0.25 1
vt 0.25 0.75
vt 0 0.75
vt 0 1
vt 0.25 1
vt 0.25 0.75
vt 0 0.75
vt 0 1
vt 0.25 1
vt 0.25 0.75
vt 0 0.75
vt 0 1
vt 0.25 1
vt 0.25 0.75
vt 0 0.75
vn 0 0 -1
vn 1 0 0
vn 0 0 1
vn -1 0 0
vn 0 1 0
vn 0 -1 0
v 2.00000000 1.00750000 1.00000000
v 2.00000000 1.00750000 0.96250000
v 2.00000000 1.00000000 1.00000000
v 2.00000000 1.00000000 0.96250000
v 0.00000000 1.00750000 0.96250000
v 0.00000000 1.00750000 1.00000000
v 0.00000000 1.00000000 0.96250000
v 0.00000000 1.00000000 1.00000000
vt 0 1
vt 0.25 1
vt 0.25 0.75
vt 0 0.75
vt 0 1
vt 0.25 1
vt 0.25 0.75
vt 0 0.75
vt 0 1
vt 0.25 1
vt 0.25 0.75
vt 0 0.75
vt 0 1
vt 0.25 1
vt 0.25 0.75
vt 0 0.75
vt 0 1
vt 0.25 1
vt 0.25 0.75
vt 0 0.75
vt 0 1
vt 0.25 1
vt 0.25 0.75
vt 0 0.75
vn 0 0 -1
vn 1 0 0
vn 0 0 1
vn -1 0 0
vn 0 1 0
vn 0 -1 0
v 0.12500000 0.87500000 0.93750000
v 0.12500000 0.87500000 0.12500000
v 0.12500000 0.71875000 0.93750000
v 0.12500000 0.71875000 0.12500000
v 0.06250000 0.87500000 0.12500000
v 0.06250000 0.87500000 0.93750000
v 0.06250000 0.71875000 0.12500000
v 0.06250000 0.71875000 0.93750000
vt 0.5 1
vt 0.75 1
vt 0.75 0.75
vt 0.5 0.75
vt 0.5 1
vt 0.75 1
vt 0.75 0.75
vt 0.5 0.75
vt 0.5 1
vt 0.75 1
vt 0.75 0.75
vt 0.5 0.75
vt 0.5 1
vt 0.75 1
vt 0.75 0.75
vt 0.5 0.75
vt 0.5 1
vt 0.75 1
vt 0.75 0.75
vt 0.5 0.75
vt 0.5 1
vt 0.75 1
vt 0.75 0.75
vt 0.5 0.75
vn 0 0 -1
vn 1 0 0
vn 0 0 1
vn -1 0 0
vn 0 1 0
vn 0 -1 0
v 1.93750000 0.87500000 0.93750000
v 1.93750000 0.87500000 0.06250000
v 1.93750000 0.71875000 0.93750000
v 1.93750000 0.71875000 0.06250000
v 1.87500000 0.87500000 0.06250000
v 1.87500000 0.87500000 0.93750000
v 1.87500000 0.71875000 0.06250000
v 1.87500000 0.71875000 0.93750000
vt 0.5 1
vt 0.75 1
vt 0.75 0.75
vt 0.5 0.75
vt 0.5 1
vt 0.75 1
vt 0.75 0.75
vt 0.5 0.75
vt 0.5 1
vt 0.75 1
vt 0.75 0.75
vt 0.5 0.75
vt 0.5 1
vt 0.75 1
vt 0.75 0.75
vt 0.5 0.75
vt 0.5 1
vt 0.75 1
vt 0.75 0.75
vt 0.5 0.75
vt 0.5 1
vt 0.75 1
vt 0.75 0.75
vt 0.5 0.75
vn 0 0 -1
vn 1 0 0
vn 0 0 1
vn -1 0 0
vn 0 1 0
vn 0 -1 0
v 1.06875000 0.85000000 0.87906250
v 1.06875000 0.85000000 0.87537500
v 1.06875000 0.75000000 0.87906250
v 1.06875000 0.75000000 0.87537500
v 0.93125000 0.85000000 0.87537500
v 0.93125000 0.85000000 0.87906250
v 0.93125000 0.75000000 0.87537500
v 0.93125000 0.75000000 0.87906250
vt 0.75 0.5
vt 1 0.5
vt 1 0.25
vt 0.75 0.25
vt 0.75 0.5
vt 1 0.5
vt 1 0.25
vt 0.75 0.25
vt 0.75 0.5
vt 1 0.5
vt 1 0.25
vt 0.75 0.25
vt 0.75 0.5
vt 1 0.5
vt 1 0.25
vt 0.75 0.25
vt 0.75 0.5
vt 1 0.5
vt 1 0.25
vt 0.75 0.25
vt 0.75 0.5
vt 1 0.5
vt 1 0.25
vt 0.75 0.25
vn 0 0 -1
vn 1 0 0
vn 0 0 1
vn -1 0 0
vn 0 1 0
vn 0 -1 0
v 0.81250000 1.06250000 0.62500000
v 0.81250000 1.06250000 0.12500000
v 0.81250000 1.00000000 0.62500000
v 0.81250000 1.00000000 0.12500000
v 0.18750000 1.06250000 0.12500000
v 0.18750000 1.06250000 0.62500000
v 0.18750000 1.00000000 0.12500000
v 0.18750000 1.00000000 0.62500000
vt 0.25 1
vt 0.5 1
vt 0.5 0.75
vt 0.25 0.75
vt 0.25 1
vt 0.5 1
vt 0.5 0.75
vt 0.25 0.75
vt 0.25 1
vt 0.5 1
vt 0.5 0.75
vt 0.25 0.75
vt 0.25 1
vt 0.5 1
vt 0.5 0.75
vt 0.25 0.75
vt 0.25 1
vt 0.5 1
vt 0.5 0.75
vt 0.25 0.75
vt 0.25 1
vt 0.5 1
vt 0.5 0.75
vt 0.25 0.75
vn 0 0 -1
vn 1 0 0
vn 0 0 1
vn -1 0 0
vn 0 1 0
vn 0 -1 0
v 0.28125000 1.62500000 0.40625000
v 0.28125000 1.62500000 0.31250000
v 0.28125000 1.06250000 0.40625000
v 0.28125000 1.06250000 0.31250000
v 0.21875000 1.62500000 0.31250000
v 0.21875000 1.62500000 0.40625000
v 0.21875000 1.06250000 0.31250000
v 0.21875000 1.06250000 0.40625000
vt 0 1
vt 0.25 1
vt 0.25 0.75
vt 0 0.75
vt 0 1
vt 0.25 1
vt 0.25 0.75
vt 0 0.75
vt 0 1
vt 0.25 1
vt 0.25 0.75
vt 0 0.75
vt 0 1
vt 0.25 1
vt 0.25 0.75
vt 0 0.75
vt 0 1
vt 0.25 1
vt 0.25 0.75
vt 0 0.75
vt 0 1
vt 0.25 1
vt 0.25 0.75
vt 0 0.75
vn 0 0 -1
vn 1 0 0
vn 0 0 1
vn -1 0 0
vn 0 1 0
vn 0 -1 0
v 0.78125000 1.62500000 0.40625000
v 0.78125000 1.62500000 0.31250000
v 0.78125000 1.06250000 0.40625000
v 0.78125000 1.06250000 0.31250000
v 0.71875000 1.62500000 0.31250000
v 0.71875000 1.62500000 0.40625000
v 0.71875000 1.06250000 0.31250000
v 0.71875000 1.06250000 0.40625000
vt 0 1
vt 0.25 1
vt 0.25 0.75
vt 0 0.75
vt 0 1
vt 0.25 1
vt 0.25 0.75
vt 0 0.75
vt 0 1
vt 0.25 1
vt 0.25 0.75
vt 0 0.75
vt 0 1
vt 0.25 1
vt 0.25 0.75
vt 0 0.75
vt 0 1
vt 0.25 1
vt 0.25 0.75
vt 0 0.75
vt 0 1
vt 0.25 1
vt 0.25 0.75
vt 0 0.75
vn 0 0 -1
vn 1 0 0
vn 0 0 1
vn -1 0 0
vn 0 1 0
vn 0 -1 0
v 0.81250000 1.65625000 0.41250000
v 0.81250000 1.65625000 0.30625000
v 0.81250000 1.59375000 0.41250000
v 0.81250000 1.59375000 0.30625000
v 0.18750000 1.65625000 0.30625000
v 0.18750000 1.65625000 0.41250000
v 0.18750000 1.59375000 0.30625000
v 0.18750000 1.59375000 0.41250000
vt 0.25 1
vt 0.5 1
vt 0.5 0.75
vt 0.25 0.75
vt 0.25 1
vt 0.5 1
vt 0.5 0.75
vt 0.25 0.75
vt 0.25 1
vt 0.5 1
vt 0.5 0.75
vt 0.25 0.75
vt 0.25 1
vt 0.5 1
vt 0.5 0.75
vt 0.25 0.75
vt 0.25 1
vt 0.5 1
vt 0.5 0.75
vt 0.25 0.75
vt 0.25 1
vt 0.5 1
vt 0.5 0.75
vt 0.25 0.75
vn 0 0 -1
vn 1 0 0
vn 0 0 1
vn -1 0 0
vn 0 1 0
vn 0 -1 0
v 0.57187500 1.68750000 0.45625000
v 0.57187500 1.68750000 0.35625000
v 0.57187500 1.58750000 0.45625000
v 0.57187500 1.58750000 0.35625000
v 0.47812500 1.68750000 0.35625000
v 0.47812500 1.68750000 0.45625000
v 0.47812500 1.58750000 0.35625000
v 0.47812500 1.58750000 0.45625000
vt 0.25 0.75
vt 0.5 0.75
vt 0.5 0.5
vt 0.25 0.5
vt 0.25 0.75
vt 0.5 0.75
vt 0.5 0.5
vt 0.25 0.5
vt 0.25 0.75
vt 0.5 0.75
vt 0.5 0.5
vt 0.25 0.5
vt 0.25 0.75
vt 0.5 0.75
vt 0.5 0.5
vt 0.25 0.5
vt 0.25 0.75
vt 0.5 0.75
vt 0.5 0.5
vt 0.25 0.5
vt 0.25 0.75
vt 0.5 0.75
vt 0.5 0.5
vt 0.25 0.5
vn 0 0 -1
vn 1 0 0
vn 0 0 1
vn -1 0 0
vn 0 1 0
vn 0 -1 0
v 0.53125000 1.06250000 0.40625000
v 0.53125000 1.31250000 0.40625000
v 0.71875000 1.06250000 0.40625000
v 0.71875000 1.31250000 0.40625000
v 0.66383252 1.06250000 0.53883252
v 0.66383252 1.31250000 0.53883252
v 0.53125000 1.06250000 0.59375000
v 0.53125000 1.31250000 0.59375000
v 0.39866748 1.06250000 0.53883252
v 0.39866748 1.31250000 0.53883252
v 0.34375000 1.06250000 0.40625000
v 0.34375000 1.31250000 0.40625000
v 0.39866748 1.06250000 0.27366748
v 0.39866748 1.31250000 0.27366748
v 0.53125000 1.06250000 0.21875000
v 0.53125000 1.31250000 0.21875000
v 0.66383252 1.06250000 0.27366748
v 0.66383252 1.31250000 0.27366748
vt 0.5 0.75
vt 0.25 0.75
vt 0.25 1
vt 0.5 1
vt 0.375 0.875
vt 0.4545495128834866 0.7954504871165133
vt 0.4875 0.875
vt 0.375 0.875
vt 0.4875 0.875
vt 0.4545495128834866 0.7954504871165133
vt 0.5 0.75
vt 0.25 0.75
vt 0.25 1
vt 0.5 1
vt 0.375 0.875
vt 0.375 0.7625
vt 0.4545495128834866 0.7954504871165133
vt 0.375 0.875
vt 0.4545495128834866 0.7954504871165133
vt 0.375 0.7625
vt 0.5 0.75
vt 0.25 0.75
vt 0.25 1
vt 0.5 1
vt 0.375 0.875
vt 0.2954504871165134 0.7954504871165133
vt 0.375 0.7625
vt 0.375 0.875
vt 0.375 0.7625
vt 0.2954504871165134 0.7954504871165133
vt 0.5 0.75
vt 0.25 0.75
vt 0.25 1
vt 0.5 1
vt 0.375 0.875
vt 0.2625 0.875
vt 0.2954504871165134 0.7954504871165133
vt 0.375 0.875
vt 0.2954504871165134 0.7954504871165133
vt 0.2625 0.875
vt 0.5 0.75
vt 0.25 0.75
vt 0.25 1
vt 0.5 1
vt 0.375 0.875
vt 0.2954504871165134 0.9545495128834866
vt 0.2625 0.875
vt 0.375 0.875
vt 0.2625 0.875
vt 0.2954504871165134 0.9545495128834866
vt 0.5 0.75
vt 0.25 0.75
vt 0.25 1
vt 0.5 1
vt 0.375 0.875
vt 0.375 0.9875
vt 0.2954504871165134 0.9545495128834866
vt 0.375 0.875
vt 0.2954504871165134 0.9545495128834866
vt 0.375 0.9875
vt 0.5 0.75
vt 0.25 0.75
vt 0.25 1
vt 0.5 1
vt 0.375 0.875
vt 0.45454951288348655 0.9545495128834867
vt 0.375 0.9875
vt 0.375 0.875
vt 0.375 0.9875
vt 0.45454951288348655 0.9545495128834867
vt 0.5 0.75
vt 0.25 0.75
vt 0.25 1
vt 0.5 1
vt 0.375 0.875
vt 0.4875 0.875
vt 0.45454951288348655 0.9545495128834867
vt 0.375 0.875
vt 0.45454951288348655 0.9545495128834867
vt 0.4875 0.875
vn 0.9238795325112868 0 0.3826834323650897
vn 0 1 0
vn 0 -1 0
vn 0.3826834323650898 0 0.9238795325112867
vn 0 1 0
vn 0 -1 0
vn -0.3826834323650897 0 0.9238795325112868
vn 0 1 0
vn 0 -1 0
vn -0.9238795325112867 0 0.38268343236508984
vn 0 1 0
vn 0 -1 0
vn -0.9238795325112868 0 -0.38268343236508967
vn 0 1 0
vn 0 -1 0
vn -0.38268343236508984 0 -0.9238795325112867
vn 0 1 0
vn 0 -1 0
vn 0.3826834323650897 0 -0.9238795325112868
vn 0 1 0
vn 0 -1 0
vn 0.9238795325112867 0 -0.38268343236509
vn 0 1 0
vn 0 -1 0
o part_28_simple_press_spindle
v 0.54062500 1.80000000 0.42187500
v 0.54062500 1.80000000 0.39062500
v 0.54062500 1.36250000 0.42187500
v 0.54062500 1.36250000 0.39062500
v 0.50937500 1.80000000 0.39062500
v 0.50937500 1.80000000 0.42187500
v 0.50937500 1.36250000 0.39062500
v 0.50937500 1.36250000 0.42187500
vt 0 0.75
vt 0.25 0.75
vt 0.25 0.5
vt 0 0.5
vt 0 0.75
vt 0.25 0.75
vt 0.25 0.5
vt 0 0.5
vt 0 0.75
vt 0.25 0.75
vt 0.25 0.5
vt 0 0.5
vt 0 0.75
vt 0.25 0.75
vt 0.25 0.5
vt 0 0.5
vt 0 0.75
vt 0.25 0.75
vt 0.25 0.5
vt 0 0.5
vt 0 0.75
vt 0.25 0.75
vt 0.25 0.5
vt 0 0.5
vn 0 0 -1
vn 1 0 0
vn 0 0 1
vn -1 0 0
vn 0 1 0
vn 0 -1 0
usemtl m_93064393-0add-ca65-e57e-d8c351095e93
f 230/708/181 233/707/181 231/706/181 228/705/181
f 229/712/182 230/711/182 228/710/182 227/709/182
f 234/716/183 229/715/183 227/714/183 232/713/183
f 233/720/184 234/719/184 232/718/184 231/717/184
f 232/724/185 227/723/185 228/722/185 231/721/185
f 233/728/186 230/727/186 229/726/186 234/725/186
o part_29_single_crank_handle
v 0.70625000 1.81250000 0.42500000
v 0.70625000 1.81250000 0.38750000
v 0.70625000 1.78125000 0.42500000
v 0.70625000 1.78125000 0.38750000
v 0.34375000 1.81250000 0.38750000
v 0.34375000 1.81250000 0.42500000
v 0.34375000 1.78125000 0.38750000
v 0.34375000 1.78125000 0.42500000
vt 0.25 0.75
vt 0.5 0.75
vt 0.5 0.5
vt 0.25 0.5
vt 0.25 0.75
vt 0.5 0.75
vt 0.5 0.5
vt 0.25 0.5
vt 0.25 0.75
vt 0.5 0.75
vt 0.5 0.5
vt 0.25 0.5
vt 0.25 0.75
vt 0.5 0.75
vt 0.5 0.5
vt 0.25 0.5
vt 0.25 0.75
vt 0.5 0.75
vt 0.5 0.5
vt 0.25 0.5
vt 0.25 0.75
vt 0.5 0.75
vt 0.5 0.5
vt 0.25 0.5
vn 0 0 -1
vn 1 0 0
vn 0 0 1
vn -1 0 0
vn 0 1 0
vn 0 -1 0
usemtl m_93064393-0add-ca65-e57e-d8c351095e93
f 238/732/187 241/731/187 239/730/187 236/729/187
f 237/736/188 238/735/188 236/734/188 235/733/188
f 242/740/189 237/739/189 235/738/189 240/737/189
f 241/744/190 242/743/190 240/742/190 239/741/190
f 240/748/191 235/747/191 236/746/191 239/745/191
f 241/752/192 238/751/192 237/750/192 242/749/192
o part_30_wood_crank_grip_5_3
v 0.38125000 1.82000000 0.43000000
v 0.38125000 1.82000000 0.38250000
v 0.38125000 1.77187500 0.43000000
v 0.38125000 1.77187500 0.38250000
v 0.33125000 1.82000000 0.38250000
v 0.33125000 1.82000000 0.43000000
v 0.33125000 1.77187500 0.38250000
v 0.33125000 1.77187500 0.43000000
vt 0 1
vt 0.25 1
vt 0.25 0.75
vt 0 0.75
vt 0 1
vt 0.25 1
vt 0.25 0.75
vt 0 0.75
vt 0 1
vt 0.25 1
vt 0.25 0.75
vt 0 0.75
vt 0 1
vt 0.25 1
vt 0.25 0.75
vt 0 0.75
vt 0 1
vt 0.25 1
vt 0.25 0.75
vt 0 0.75
vt 0 1
vt 0.25 1
vt 0.25 0.75
vt 0 0.75
vn 0 0 -1
vn 1 0 0
vn 0 0 1
vn -1 0 0
vn 0 1 0
vn 0 -1 0
usemtl m_93064393-0add-ca65-e57e-d8c351095e93
f 246/756/193 249/755/193 247/754/193 244/753/193
f 245/760/194 246/759/194 244/758/194 243/757/194
f 250/764/195 245/763/195 243/762/195 248/761/195
f 249/768/196 250/767/196 248/766/196 247/765/196
f 248/772/197 243/771/197 244/770/197 247/769/197
f 249/776/198 246/775/198 245/774/198 250/773/198
o part_31_wood_crank_grip_10_7
v 0.71875000 1.82000000 0.43000000
v 0.71875000 1.82000000 0.38250000
v 0.71875000 1.77187500 0.43000000
v 0.71875000 1.77187500 0.38250000
v 0.66875000 1.82000000 0.38250000
v 0.66875000 1.82000000 0.43000000
v 0.66875000 1.77187500 0.38250000
v 0.66875000 1.77187500 0.43000000
vt 0 1
vt 0.25 1
vt 0.25 0.75
vt 0 0.75
vt 0 1
vt 0.25 1
vt 0.25 0.75
vt 0 0.75
vt 0 1
vt 0.25 1
vt 0.25 0.75
vt 0 0.75
vt 0 1
vt 0.25 1
vt 0.25 0.75
vt 0 0.75
vt 0 1
vt 0.25 1
vt 0.25 0.75
vt 0 0.75
vt 0 1
vt 0.25 1
vt 0.25 0.75
vt 0 0.75
vn 0 0 -1
vn 1 0 0
vn 0 0 1
vn -1 0 0
vn 0 1 0
vn 0 -1 0
usemtl m_93064393-0add-ca65-e57e-d8c351095e93
f 254/780/199 257/779/199 255/778/199 252/777/199
f 253/784/200 254/783/200 252/782/200 251/781/200
f 258/788/201 253/787/201 251/786/201 256/785/201
f 257/792/202 258/791/202 256/790/202 255/789/202
f 256/796/203 251/795/203 252/794/203 255/793/203
f 257/800/204 254/799/204 253/798/204 258/797/204
v 0.53125000 1.31250000 0.40625000
v 0.53125000 1.36875000 0.40625000
v 0.66250000 1.31250000 0.40625000
v 0.66250000 1.36875000 0.40625000
v 0.62405777 1.31250000 0.49905777
v 0.62405777 1.36875000 0.49905777
v 0.53125000 1.31250000 0.53750000
v 0.53125000 1.36875000 0.53750000
v 0.43844223 1.31250000 0.49905777
v 0.43844223 1.36875000 0.49905777
v 0.40000000 1.31250000 0.40625000
v 0.40000000 1.36875000 0.40625000
v 0.43844223 1.31250000 0.31344223
v 0.43844223 1.36875000 0.31344223
v 0.53125000 1.31250000 0.27500000
v 0.53125000 1.36875000 0.27500000
v 0.62405777 1.31250000 0.31344223
v 0.62405777 1.36875000 0.31344223
vt 0.5 0.75
vt 0.25 0.75
vt 0.25 1
vt 0.5 1
vt 0.375 0.875
vt 0.4545495128834866 0.7954504871165133
vt 0.4875 0.875
vt 0.375 0.875
vt 0.4875 0.875
vt 0.4545495128834866 0.7954504871165133
vt 0.5 0.75
vt 0.25 0.75
vt 0.25 1
vt 0.5 1
vt 0.375 0.875
vt 0.375 0.7625
vt 0.4545495128834866 0.7954504871165133
vt 0.375 0.875
vt 0.4545495128834866 0.7954504871165133
vt 0.375 0.7625
vt 0.5 0.75
vt 0.25 0.75
vt 0.25 1
vt 0.5 1
vt 0.375 0.875
vt 0.2954504871165134 0.7954504871165133
vt 0.375 0.7625
vt 0.375 0.875
vt 0.375 0.7625
vt 0.2954504871165134 0.7954504871165133
vt 0.5 0.75
vt 0.25 0.75
vt 0.25 1
vt 0.5 1
vt 0.375 0.875
vt 0.2625 0.875
vt 0.2954504871165134 0.7954504871165133
vt 0.375 0.875
vt 0.2954504871165134 0.7954504871165133
vt 0.2625 0.875
vt 0.5 0.75
vt 0.25 0.75
vt 0.25 1
vt 0.5 1
vt 0.375 0.875
vt 0.2954504871165134 0.9545495128834866
vt 0.2625 0.875
vt 0.375 0.875
vt 0.2625 0.875
vt 0.2954504871165134 0.9545495128834866
vt 0.5 0.75
vt 0.25 0.75
vt 0.25 1
vt 0.5 1
vt 0.375 0.875
vt 0.375 0.9875
vt 0.2954504871165134 0.9545495128834866
vt 0.375 0.875
vt 0.2954504871165134 0.9545495128834866
vt 0.375 0.9875
vt 0.5 0.75
vt 0.25 0.75
vt 0.25 1
vt 0.5 1
vt 0.375 0.875
vt 0.45454951288348655 0.9545495128834867
vt 0.375 0.9875
vt 0.375 0.875
vt 0.375 0.9875
vt 0.45454951288348655 0.9545495128834867
vt 0.5 0.75
vt 0.25 0.75
vt 0.25 1
vt 0.5 1
vt 0.375 0.875
vt 0.4875 0.875
vt 0.45454951288348655 0.9545495128834867
vt 0.375 0.875
vt 0.45454951288348655 0.9545495128834867
vt 0.4875 0.875
vn 0.9238795325112868 0 0.3826834323650896
vn 0 1 0
vn 0 -1 0
vn 0.3826834323650897 0 0.9238795325112867
vn 0 1 0
vn 0 -1 0
vn -0.3826834323650896 0 0.923879532511287
vn 0 1 0
vn 0 -1 0
vn -0.9238795325112867 0 0.3826834323650897
vn 0 1 0
vn 0 -1 0
vn -0.923879532511287 0 -0.3826834323650896
vn 0 1 0
vn 0 -1 0
vn -0.3826834323650898 0 -0.9238795325112867
vn 0 1 0
vn 0 -1 0
vn 0.3826834323650896 0 -0.923879532511287
vn 0 1 0
vn 0 -1 0
vn 0.9238795325112867 0 -0.38268343236508984
vn 0 1 0
vn 0 -1 0
v 1.31875000 1.20625000 0.32500000
v 1.31875000 1.20625000 0.18750000
v 1.31875000 1.00000000 0.32500000
v 1.31875000 1.00000000 0.18750000
v 1.18125000 1.20625000 0.18750000
v 1.18125000 1.20625000 0.32500000
v 1.18125000 1.00000000 0.18750000
v 1.18125000 1.00000000 0.32500000
vt 0.75 0.75
vt 1 0.75
vt 1 0.5
vt 0.75 0.5
vt 0.75 0.75
vt 1 0.75
vt 1 0.5
vt 0.75 0.5
vt 0.75 0.75
vt 1 0.75
vt 1 0.5
vt 0.75 0.5
vt 0.75 0.75
vt 1 0.75
vt 1 0.5
vt 0.75 0.5
vt 0.75 0.75
vt 1 0.75
vt 1 0.5
vt 0.75 0.5
vt 0.75 0.75
vt 1 0.75
vt 1 0.5
vt 0.75 0.5
vn 0 0 -1
vn 1 0 0
vn 0 0 1
vn -1 0 0
vn 0 1 0
vn 0 -1 0
v 1.27812500 1.27187500 0.28437500
v 1.27812500 1.27187500 0.22812500
v 1.27812500 1.20625000 0.28437500
v 1.27812500 1.20625000 0.22812500
v 1.22187500 1.27187500 0.22812500
v 1.22187500 1.27187500 0.28437500
v 1.22187500 1.20625000 0.22812500
v 1.22187500 1.20625000 0.28437500
vt 0.5 0.75
vt 0.75 0.75
vt 0.75 0.5
vt 0.5 0.5
vt 0.5 0.75
vt 0.75 0.75
vt 0.75 0.5
vt 0.5 0.5
vt 0.5 0.75
vt 0.75 0.75
vt 0.75 0.5
vt 0.5 0.5
vt 0.5 0.75
vt 0.75 0.75
vt 0.75 0.5
vt 0.5 0.5
vt 0.5 0.75
vt 0.75 0.75
vt 0.75 0.5
vt 0.5 0.5
vt 0.5 0.75
vt 0.75 0.75
vt 0.75 0.5
vt 0.5 0.5
vn 0 0 -1
vn 1 0 0
vn 0 0 1
vn -1 0 0
vn 0 1 0
vn 0 -1 0
v 1.28437500 1.30312500 0.29062500
v 1.28437500 1.30312500 0.22187500
v 1.28437500 1.27187500 0.29062500
v 1.28437500 1.27187500 0.22187500
v 1.21562500 1.30312500 0.22187500
v 1.21562500 1.30312500 0.29062500
v 1.21562500 1.27187500 0.22187500
v 1.21562500 1.27187500 0.29062500
vt 0.25 1
vt 0.5 1
vt 0.5 0.75
vt 0.25 0.75
vt 0.25 1
vt 0.5 1
vt 0.5 0.75
vt 0.25 0.75
vt 0.25 1
vt 0.5 1
vt 0.5 0.75
vt 0.25 0.75
vt 0.25 1
vt 0.5 1
vt 0.5 0.75
vt 0.25 0.75
vt 0.25 1
vt 0.5 1
vt 0.5 0.75
vt 0.25 0.75
vt 0.25 1
vt 0.5 1
vt 0.5 0.75
vt 0.25 0.75
vn 0 0 -1
vn 1 0 0
vn 0 0 1
vn -1 0 0
vn 0 1 0
vn 0 -1 0
v 1.30000000 1.16875000 0.32781250
v 1.30000000 1.16875000 0.32531250
v 1.30000000 1.04375000 0.32781250
v 1.30000000 1.04375000 0.32531250
v 1.20000000 1.16875000 0.32531250
v 1.20000000 1.16875000 0.32781250
v 1.20000000 1.04375000 0.32531250
v 1.20000000 1.04375000 0.32781250
vt 0.75 0.5
vt 1 0.5
vt 1 0.25
vt 0.75 0.25
vt 0.75 0.5
vt 1 0.5
vt 1 0.25
vt 0.75 0.25
vt 0.75 0.5
vt 1 0.5
vt 1 0.25
vt 0.75 0.25
vt 0.75 0.5
vt 1 0.5
vt 1 0.25
vt 0.75 0.25
vt 0.75 0.5
vt 1 0.5
vt 1 0.25
vt 0.75 0.25
vt 0.75 0.5
vt 1 0.5
vt 1 0.25
vt 0.75 0.25
vn 0 0 -1
vn 1 0 0
vn 0 0 1
vn -1 0 0
vn 0 1 0
vn 0 -1 0
v 1.56875000 1.20625000 0.32500000
v 1.56875000 1.20625000 0.18750000
v 1.56875000 1.00000000 0.32500000
v 1.56875000 1.00000000 0.18750000
v 1.43125000 1.20625000 0.18750000
v 1.43125000 1.20625000 0.32500000
v 1.43125000 1.00000000 0.18750000
v 1.43125000 1.00000000 0.32500000
vt 0 0.5
vt 0.25 0.5
vt 0.25 0.25
vt 0 0.25
vt 0 0.5
vt 0.25 0.5
vt 0.25 0.25
vt 0 0.25
vt 0 0.5
vt 0.25 0.5
vt 0.25 0.25
vt 0 0.25
vt 0 0.5
vt 0.25 0.5
vt 0.25 0.25
vt 0 0.25
vt 0 0.5
vt 0.25 0.5
vt 0.25 0.25
vt 0 0.25
vt 0 0.5
vt 0.25 0.5
vt 0.25 0.25
vt 0 0.25
vn 0 0 -1
vn 1 0 0
vn 0 0 1
vn -1 0 0
vn 0 1 0
vn 0 -1 0
v 1.52812500 1.27187500 0.28437500
v 1.52812500 1.27187500 0.22812500
v 1.52812500 1.20625000 0.28437500
v 1.52812500 1.20625000 0.22812500
v 1.47187500 1.27187500 0.22812500
v 1.47187500 1.27187500 0.28437500
v 1.47187500 1.20625000 0.22812500
v 1.47187500 1.20625000 0.28437500
vt 0.5 0.75
vt 0.75 0.75
vt 0.75 0.5
vt 0.5 0.5
vt 0.5 0.75
vt 0.75 0.75
vt 0.75 0.5
vt 0.5 0.5
vt 0.5 0.75
vt 0.75 0.75
vt 0.75 0.5
vt 0.5 0.5
vt 0.5 0.75
vt 0.75 0.75
vt 0.75 0.5
vt 0.5 0.5
vt 0.5 0.75
vt 0.75 0.75
vt 0.75 0.5
vt 0.5 0.5
vt 0.5 0.75
vt 0.75 0.75
vt 0.75 0.5
vt 0.5 0.5
vn 0 0 -1
vn 1 0 0
vn 0 0 1
vn -1 0 0
vn 0 1 0
vn 0 -1 0
v 1.53437500 1.30312500 0.29062500
v 1.53437500 1.30312500 0.22187500
v 1.53437500 1.27187500 0.29062500
v 1.53437500 1.27187500 0.22187500
v 1.46562500 1.30312500 0.22187500
v 1.46562500 1.30312500 0.29062500
v 1.46562500 1.27187500 0.22187500
v 1.46562500 1.27187500 0.29062500
vt 0.25 1
vt 0.5 1
vt 0.5 0.75
vt 0.25 0.75
vt 0.25 1
vt 0.5 1
vt 0.5 0.75
vt 0.25 0.75
vt 0.25 1
vt 0.5 1
vt 0.5 0.75
vt 0.25 0.75
vt 0.25 1
vt 0.5 1
vt 0.5 0.75
vt 0.25 0.75
vt 0.25 1
vt 0.5 1
vt 0.5 0.75
vt 0.25 0.75
vt 0.25 1
vt 0.5 1
vt 0.5 0.75
vt 0.25 0.75
vn 0 0 -1
vn 1 0 0
vn 0 0 1
vn -1 0 0
vn 0 1 0
vn 0 -1 0
v 1.55000000 1.16875000 0.32781250
v 1.55000000 1.16875000 0.32531250
v 1.55000000 1.04375000 0.32781250
v 1.55000000 1.04375000 0.32531250
v 1.45000000 1.16875000 0.32531250
v 1.45000000 1.16875000 0.32781250
v 1.45000000 1.04375000 0.32531250
v 1.45000000 1.04375000 0.32781250
vt 0 0.25
vt 0.25 0.25
vt 0.25 0
vt 0 0
vt 0 0.25
vt 0.25 0.25
vt 0.25 0
vt 0 0
vt 0 0.25
vt 0.25 0.25
vt 0.25 0
vt 0 0
vt 0 0.25
vt 0.25 0.25
vt 0.25 0
vt 0 0
vt 0 0.25
vt 0.25 0.25
vt 0.25 0
vt 0 0
vt 0 0.25
vt 0.25 0.25
vt 0.25 0
vt 0 0
vn 0 0 -1
vn 1 0 0
vn 0 0 1
vn -1 0 0
vn 0 1 0
vn 0 -1 0
v 1.81875000 1.20625000 0.32500000
v 1.81875000 1.20625000 0.18750000
v 1.81875000 1.00000000 0.32500000
v 1.81875000 1.00000000 0.18750000
v 1.68125000 1.20625000 0.18750000
v 1.68125000 1.20625000 0.32500000
v 1.68125000 1.00000000 0.18750000
v 1.68125000 1.00000000 0.32500000
vt 0.25 0.5
vt 0.5 0.5
vt 0.5 0.25
vt 0.25 0.25
vt 0.25 0.5
vt 0.5 0.5
vt 0.5 0.25
vt 0.25 0.25
vt 0.25 0.5
vt 0.5 0.5
vt 0.5 0.25
vt 0.25 0.25
vt 0.25 0.5
vt 0.5 0.5
vt 0.5 0.25
vt 0.25 0.25
vt 0.25 0.5
vt 0.5 0.5
vt 0.5 0.25
vt 0.25 0.25
vt 0.25 0.5
vt 0.5 0.5
vt 0.5 0.25
vt 0.25 0.25
vn 0 0 -1
vn 1 0 0
vn 0 0 1
vn -1 0 0
vn 0 1 0
vn 0 -1 0
v 1.77812500 1.27187500 0.28437500
v 1.77812500 1.27187500 0.22812500
v 1.77812500 1.20625000 0.28437500
v 1.77812500 1.20625000 0.22812500
v 1.72187500 1.27187500 0.22812500
v 1.72187500 1.27187500 0.28437500
v 1.72187500 1.20625000 0.22812500
v 1.72187500 1.20625000 0.28437500
vt 0.5 0.75
vt 0.75 0.75
vt 0.75 0.5
vt 0.5 0.5
vt 0.5 0.75
vt 0.75 0.75
vt 0.75 0.5
vt 0.5 0.5
vt 0.5 0.75
vt 0.75 0.75
vt 0.75 0.5
vt 0.5 0.5
vt 0.5 0.75
vt 0.75 0.75
vt 0.75 0.5
vt 0.5 0.5
vt 0.5 0.75
vt 0.75 0.75
vt 0.75 0.5
vt 0.5 0.5
vt 0.5 0.75
vt 0.75 0.75
vt 0.75 0.5
vt 0.5 0.5
vn 0 0 -1
vn 1 0 0
vn 0 0 1
vn -1 0 0
vn 0 1 0
vn 0 -1 0
v 1.78437500 1.30312500 0.29062500
v 1.78437500 1.30312500 0.22187500
v 1.78437500 1.27187500 0.29062500
v 1.78437500 1.27187500 0.22187500
v 1.71562500 1.30312500 0.22187500
v 1.71562500 1.30312500 0.29062500
v 1.71562500 1.27187500 0.22187500
v 1.71562500 1.27187500 0.29062500
vt 0.25 1
vt 0.5 1
vt 0.5 0.75
vt 0.25 0.75
vt 0.25 1
vt 0.5 1
vt 0.5 0.75
vt 0.25 0.75
vt 0.25 1
vt 0.5 1
vt 0.5 0.75
vt 0.25 0.75
vt 0.25 1
vt 0.5 1
vt 0.5 0.75
vt 0.25 0.75
vt 0.25 1
vt 0.5 1
vt 0.5 0.75
vt 0.25 0.75
vt 0.25 1
vt 0.5 1
vt 0.5 0.75
vt 0.25 0.75
vn 0 0 -1
vn 1 0 0
vn 0 0 1
vn -1 0 0
vn 0 1 0
vn 0 -1 0
v 1.80000000 1.16875000 0.32781250
v 1.80000000 1.16875000 0.32531250
v 1.80000000 1.04375000 0.32781250
v 1.80000000 1.04375000 0.32531250
v 1.70000000 1.16875000 0.32531250
v 1.70000000 1.16875000 0.32781250
v 1.70000000 1.04375000 0.32531250
v 1.70000000 1.04375000 0.32781250
vt 0.25 0.25
vt 0.5 0.25
vt 0.5 0
vt 0.25 0
vt 0.25 0.25
vt 0.5 0.25
vt 0.5 0
vt 0.25 0
vt 0.25 0.25
vt 0.5 0.25
vt 0.5 0
vt 0.25 0
vt 0.25 0.25
vt 0.5 0.25
vt 0.5 0
vt 0.25 0
vt 0.25 0.25
vt 0.5 0.25
vt 0.5 0
vt 0.25 0
vt 0.25 0.25
vt 0.5 0.25
vt 0.5 0
vt 0.25 0
vn 0 0 -1
vn 1 0 0
vn 0 0 1
vn -1 0 0
vn 0 1 0
vn 0 -1 0
v 0.55625000 1.09687500 0.70625000
v 0.55625000 1.09687500 0.58125000
v 0.55625000 1.06875000 0.70625000
v 0.55625000 1.06875000 0.58125000
v 0.50625000 1.09687500 0.58125000
v 0.50625000 1.09687500 0.70625000
v 0.50625000 1.06875000 0.58125000
v 0.50625000 1.06875000 0.70625000
vt 0.25 0.75
vt 0.5 0.75
vt 0.5 0.5
vt 0.25 0.5
vt 0.25 0.75
vt 0.5 0.75
vt 0.5 0.5
vt 0.25 0.5
vt 0.25 0.75
vt 0.5 0.75
vt 0.5 0.5
vt 0.25 0.5
vt 0.25 0.75
vt 0.5 0.75
vt 0.5 0.5
vt 0.25 0.5
vt 0.25 0.75
vt 0.5 0.75
vt 0.5 0.5
vt 0.25 0.5
vt 0.25 0.75
vt 0.5 0.75
vt 0.5 0.5
vt 0.25 0.5
vn 0 0 -1
vn 1 0 0
vn 0 0 1
vn -1 0 0
vn 0 1 0
vn 0 -1 0
v 0.60625000 1.11875000 0.81875000
v 0.60625000 1.11875000 0.66875000
v 0.60625000 1.00000000 0.81875000
v 0.60625000 1.00000000 0.66875000
v 0.45625000 1.11875000 0.66875000
v 0.45625000 1.11875000 0.81875000
v 0.45625000 1.00000000 0.66875000
v 0.45625000 1.00000000 0.81875000
vt 0.75 1
vt 1 1
vt 1 0.75
vt 0.75 0.75
vt 0.75 1
vt 1 1
vt 1 0.75
vt 0.75 0.75
vt 0.75 1
vt 1 1
vt 1 0.75
vt 0.75 0.75
vt 0.75 1
vt 1 1
vt 1 0.75
vt 0.75 0.75
vt 0.75 0.75
vt 1 0.75
vt 1 0.5
vt 0.75 0.5
vt 0.75 1
vt 1 1
vt 1 0.75
vt 0.75 0.75
vn 0 0 -1
vn 1 0 0
vn 0 0 1
vn -1 0 0
vn 0 1 0
vn 0 -1 0
v 0.64687500 1.09375000 0.77500000
v 0.64687500 1.09375000 0.70937500
v 0.64687500 1.03750000 0.77500000
v 0.64687500 1.03750000 0.70937500
v 0.60500000 1.09375000 0.70937500
v 0.60500000 1.09375000 0.77500000
v 0.60500000 1.03750000 0.70937500
v 0.60500000 1.03750000 0.77500000
vt 0.75 1
vt 1 1
vt 1 0.75
vt 0.75 0.75
vt 0.75 1
vt 1 1
vt 1 0.75
vt 0.75 0.75
vt 0.75 1
vt 1 1
vt 1 0.75
vt 0.75 0.75
vt 0.75 1
vt 1 1
vt 1 0.75
vt 0.75 0.75
vt 0.75 1
vt 1 1
vt 1 0.75
vt 0.75 0.75
vt 0.75 1
vt 1 1
vt 1 0.75
vt 0.75 0.75
vn 0 0 -1
vn 1 0 0
vn 0 0 1
vn -1 0 0
vn 0 1 0
vn 0 -1 0
v 0.40625000 1.02187500 0.90625000
v 0.40625000 1.02187500 0.68750000
v 0.40625000 1.00000000 0.90625000
v 0.40625000 1.00000000 0.68750000
v 0.09375000 1.02187500 0.68750000
v 0.09375000 1.02187500 0.90625000
v 0.09375000 1.00000000 0.68750000
v 0.09375000 1.00000000 0.90625000
vt 0.5 0.25
vt 0.75 0.25
vt 0.75 0
vt 0.5 0
vt 0.5 0.25
vt 0.75 0.25
vt 0.75 0
vt 0.5 0
vt 0.5 0.25
vt 0.75 0.25
vt 0.75 0
vt 0.5 0
vt 0.5 0.25
vt 0.75 0.25
vt 0.75 0
vt 0.5 0
vt 0.5 0.25
vt 0.75 0.25
vt 0.75 0
vt 0.5 0
vt 0.5 0.25
vt 0.75 0.25
vt 0.75 0
vt 0.5 0
vn 0 0 -1
vn 1 0 0
vn 0 0 1
vn -1 0 0
vn 0 1 0
vn 0 -1 0
v 0.40625000 1.10000000 0.70625000
v 0.40625000 1.10000000 0.68750000
v 0.40625000 1.02187500 0.70625000
v 0.40625000 1.02187500 0.68750000
v 0.09375000 1.10000000 0.68750000
v 0.09375000 1.10000000 0.70625000
v 0.09375000 1.02187500 0.68750000
v 0.09375000 1.02187500 0.70625000
vt 0 1
vt 0.25 1
vt 0.25 0.75
vt 0 0.75
vt 0 1
vt 0.25 1
vt 0.25 0.75
vt 0 0.75
vt 0 1
vt 0.25 1
vt 0.25 0.75
vt 0 0.75
vt 0 1
vt 0.25 1
vt 0.25 0.75
vt 0 0.75
vt 0 1
vt 0.25 1
vt 0.25 0.75
vt 0 0.75
vt 0 1
vt 0.25 1
vt 0.25 0.75
vt 0 0.75
vn 0 0 -1
vn 1 0 0
vn 0 0 1
vn -1 0 0
vn 0 1 0
vn 0 -1 0
v 0.40625000 1.10000000 0.90625000
v 0.40625000 1.10000000 0.88750000
v 0.40625000 1.02187500 0.90625000
v 0.40625000 1.02187500 0.88750000
v 0.09375000 1.10000000 0.88750000
v 0.09375000 1.10000000 0.90625000
v 0.09375000 1.02187500 0.88750000
v 0.09375000 1.02187500 0.90625000
vt 0 1
vt 0.25 1
vt 0.25 0.75
vt 0 0.75
vt 0 1
vt 0.25 1
vt 0.25 0.75
vt 0 0.75
vt 0 1
vt 0.25 1
vt 0.25 0.75
vt 0 0.75
vt 0 1
vt 0.25 1
vt 0.25 0.75
vt 0 0.75
vt 0 1
vt 0.25 1
vt 0.25 0.75
vt 0 0.75
vt 0 1
vt 0.25 1
vt 0.25 0.75
vt 0 0.75
vn 0 0 -1
vn 1 0 0
vn 0 0 1
vn -1 0 0
vn 0 1 0
vn 0 -1 0
v 0.11250000 1.10000000 0.88750000
v 0.11250000 1.10000000 0.70625000
v 0.11250000 1.02187500 0.88750000
v 0.11250000 1.02187500 0.70625000
v 0.09375000 1.10000000 0.70625000
v 0.09375000 1.10000000 0.88750000
v 0.09375000 1.02187500 0.70625000
v 0.09375000 1.02187500 0.88750000
vt 0 1
vt 0.25 1
vt 0.25 0.75
vt 0 0.75
vt 0 1
vt 0.25 1
vt 0.25 0.75
vt 0 0.75
vt 0 1
vt 0.25 1
vt 0.25 0.75
vt 0 0.75
vt 0 1
vt 0.25 1
vt 0.25 0.75
vt 0 0.75
vt 0 1
vt 0.25 1
vt 0.25 0.75
vt 0 0.75
vt 0 1
vt 0.25 1
vt 0.25 0.75
vt 0 0.75
vn 0 0 -1
vn 1 0 0
vn 0 0 1
vn -1 0 0
vn 0 1 0
vn 0 -1 0
v 0.40625000 1.10000000 0.88750000
v 0.40625000 1.10000000 0.70625000
v 0.40625000 1.02187500 0.88750000
v 0.40625000 1.02187500 0.70625000
v 0.38750000 1.10000000 0.70625000
v 0.38750000 1.10000000 0.88750000
v 0.38750000 1.02187500 0.70625000
v 0.38750000 1.02187500 0.88750000
vt 0 1
vt 0.25 1
vt 0.25 0.75
vt 0 0.75
vt 0 1
vt 0.25 1
vt 0.25 0.75
vt 0 0.75
vt 0 1
vt 0.25 1
vt 0.25 0.75
vt 0 0.75
vt 0 1
vt 0.25 1
vt 0.25 0.75
vt 0 0.75
vt 0 1
vt 0.25 1
vt 0.25 0.75
vt 0 0.75
vt 0 1
vt 0.25 1
vt 0.25 0.75
vt 0 0.75
vn 0 0 -1
vn 1 0 0
vn 0 0 1
vn -1 0 0
vn 0 1 0
vn 0 -1 0
v 0.22187500 1.11250000 0.81562500
v 0.22187500 1.11250000 0.73437500
v 0.22187500 1.03125000 0.81562500
v 0.22187500 1.03125000 0.73437500
v 0.14062500 1.11250000 0.73437500
v 0.14062500 1.11250000 0.81562500
v 0.14062500 1.03125000 0.73437500
v 0.14062500 1.03125000 0.81562500
vt 0.75 0.75
vt 1 0.75
vt 1 0.5
vt 0.75 0.5
vt 0.75 0.75
vt 1 0.75
vt 1 0.5
vt 0.75 0.5
vt 0.75 0.75
vt 1 0.75
vt 1 0.5
vt 0.75 0.5
vt 0.75 0.75
vt 1 0.75
vt 1 0.5
vt 0.75 0.5
vt 0.75 0.75
vt 1 0.75
vt 1 0.5
vt 0.75 0.5
vt 0.75 0.75
vt 1 0.75
vt 1 0.5
vt 0.75 0.5
vn 0 0 -1
vn 1 0 0
vn 0 0 1
vn -1 0 0
vn 0 1 0
vn 0 -1 0
v 0.30937500 1.11562500 0.85312500
v 0.30937500 1.11562500 0.78125000
v 0.30937500 1.03750000 0.85312500
v 0.30937500 1.03750000 0.78125000
v 0.23750000 1.11562500 0.78125000
v 0.23750000 1.11562500 0.85312500
v 0.23750000 1.03750000 0.78125000
v 0.23750000 1.03750000 0.85312500
vt 0 0.5
vt 0.25 0.5
vt 0.25 0.25
vt 0 0.25
vt 0 0.5
vt 0.25 0.5
vt 0.25 0.25
vt 0 0.25
vt 0 0.5
vt 0.25 0.5
vt 0.25 0.25
vt 0 0.25
vt 0 0.5
vt 0.25 0.5
vt 0.25 0.25
vt 0 0.25
vt 0 0.5
vt 0.25 0.5
vt 0.25 0.25
vt 0 0.25
vt 0 0.5
vt 0.25 0.5
vt 0.25 0.25
vt 0 0.25
vn 0 0 -1
vn 1 0 0
vn 0 0 1
vn -1 0 0
vn 0 1 0
vn 0 -1 0
v 0.37500000 1.11875000 0.80625000
v 0.37500000 1.11875000 0.72812500
v 0.37500000 1.03125000 0.80625000
v 0.37500000 1.03125000 0.72812500
v 0.29687500 1.11875000 0.72812500
v 0.29687500 1.11875000 0.80625000
v 0.29687500 1.03125000 0.72812500
v 0.29687500 1.03125000 0.80625000
vt 0.25 0.5
vt 0.5 0.5
vt 0.5 0.25
vt 0.25 0.25
vt 0.25 0.5
vt 0.5 0.5
vt 0.5 0.25
vt 0.25 0.25
vt 0.25 0.5
vt 0.5 0.5
vt 0.5 0.25
vt 0.25 0.25
vt 0.25 0.5
vt 0.5 0.5
vt 0.5 0.25
vt 0.25 0.25
vt 0.25 0.5
vt 0.5 0.5
vt 0.5 0.25
vt 0.25 0.25
vt 0.25 0.5
vt 0.5 0.5
vt 0.5 0.25
vt 0.25 0.25
vn 0 0 -1
vn 1 0 0
vn 0 0 1
vn -1 0 0
vn 0 1 0
vn 0 -1 0
v 0.22187500 1.12312500 0.79062500
v 0.22187500 1.12312500 0.76250000
v 0.22187500 1.11250000 0.79062500
v 0.22187500 1.11250000 0.76250000
v 0.17812500 1.12312500 0.76250000
v 0.17812500 1.12312500 0.79062500
v 0.17812500 1.11250000 0.76250000
v 0.17812500 1.11250000 0.79062500
vt 0.25 0.5
vt 0.5 0.5
vt 0.5 0.25
vt 0.25 0.25
vt 0.25 0.5
vt 0.5 0.5
vt 0.5 0.25
vt 0.25 0.25
vt 0.25 0.5
vt 0.5 0.5
vt 0.5 0.25
vt 0.25 0.25
vt 0.25 0.5
vt 0.5 0.5
vt 0.5 0.25
vt 0.25 0.25
vt 0.25 0.5
vt 0.5 0.5
vt 0.5 0.25
vt 0.25 0.25
vt 0.25 0.5
vt 0.5 0.5
vt 0.5 0.25
vt 0.25 0.25
vn 0 0 -1
vn 1 0 0
vn 0 0 1
vn -1 0 0
vn 0 1 0
vn 0 -1 0
v 0.37187500 1.12937500 0.77500000
v 0.37187500 1.12937500 0.75000000
v 0.37187500 1.11875000 0.77500000
v 0.37187500 1.11875000 0.75000000
v 0.32500000 1.12937500 0.75000000
v 0.32500000 1.12937500 0.77500000
v 0.32500000 1.11875000 0.75000000
v 0.32500000 1.11875000 0.77500000
vt 0.25 0.5
vt 0.5 0.5
vt 0.5 0.25
vt 0.25 0.25
vt 0.25 0.5
vt 0.5 0.5
vt 0.5 0.25
vt 0.25 0.25
vt 0.25 0.5
vt 0.5 0.5
vt 0.5 0.25
vt 0.25 0.25
vt 0.25 0.5
vt 0.5 0.5
vt 0.5 0.25
vt 0.25 0.25
vt 0.25 0.5
vt 0.5 0.5
vt 0.5 0.25
vt 0.25 0.25
vt 0.25 0.5
vt 0.5 0.5
vt 0.5 0.25
vt 0.25 0.25
vn 0 0 -1
vn 1 0 0
vn 0 0 1
vn -1 0 0
vn 0 1 0
vn 0 -1 0
v 1.31250000 1.02625000 0.90625000
v 1.31250000 1.02625000 0.62500000
v 1.31250000 1.00000000 0.90625000
v 1.31250000 1.00000000 0.62500000
v 0.87500000 1.02625000 0.62500000
v 0.87500000 1.02625000 0.90625000
v 0.87500000 1.00000000 0.62500000
v 0.87500000 1.00000000 0.90625000
vt 0.5 0.25
vt 0.75 0.25
vt 0.75 0
vt 0.5 0
vt 0.5 0.25
vt 0.75 0.25
vt 0.75 0
vt 0.5 0
vt 0.5 0.25
vt 0.75 0.25
vt 0.75 0
vt 0.5 0
vt 0.5 0.25
vt 0.75 0.25
vt 0.75 0
vt 0.5 0
vt 0.5 0.25
vt 0.75 0.25
vt 0.75 0
vt 0.5 0
vt 0.5 0.25
vt 0.75 0.25
vt 0.75 0
vt 0.5 0
vn 0 0 -1
vn 1 0 0
vn 0 0 1
vn -1 0 0
vn 0 1 0
vn 0 -1 0
v 1.18142405 1.03875000 0.82738793
v 1.18106953 1.03875000 0.78676447
v 1.18142405 1.02812500 0.82738793
v 1.18106953 1.02812500 0.78676447
v 1.01232595 1.03875000 0.78823707
v 1.01268047 1.03875000 0.82886053
v 1.01232595 1.02812500 0.78823707
v 1.01268047 1.02812500 0.82886053
vt 0 0.75
vt 0.25 0.75
vt 0.25 0.5
vt 0 0.5
vt 0 0.75
vt 0.25 0.75
vt 0.25 0.5
vt 0 0.5
vt 0 0.75
vt 0.25 0.75
vt 0.25 0.5
vt 0 0.5
vt 0 0.75
vt 0.25 0.75
vt 0.25 0.5
vt 0 0.5
vt 0 0.75
vt 0.25 0.75
vt 0.25 0.5
vt 0 0.5
vt 0 0.75
vt 0.25 0.75
vt 0.25 0.5
vt 0 0.5
vn -0.008726535498373935 0 -0.9999619230641713
vn 0.9999619230641713 0 -0.008726535498373935
vn 0.008726535498373935 0 0.9999619230641713
vn -0.9999619230641713 0 0.008726535498373935
vn 0 1 0
vn 0 -1 0
v 1.25224025 1.04500000 0.83065018
v 1.25834766 1.04500000 0.80191709
v 1.25224025 1.02750000 0.83065018
v 1.25834766 1.02750000 0.80191709
v 1.17275975 1.04500000 0.78372482
v 1.16665234 1.04500000 0.81245791
v 1.17275975 1.02750000 0.78372482
v 1.16665234 1.02750000 0.81245791
vt 0.25 1
vt 0.5 1
vt 0.5 0.75
vt 0.25 0.75
vt 0.25 1
vt 0.5 1
vt 0.5 0.75
vt 0.25 0.75
vt 0.25 1
vt 0.5 1
vt 0.5 0.75
vt 0.25 0.75
vt 0.25 1
vt 0.5 1
vt 0.5 0.75
vt 0.25 0.75
vt 0.25 1
vt 0.5 1
vt 0.5 0.75
vt 0.25 0.75
vt 0.25 1
vt 0.5 1
vt 0.5 0.75
vt 0.25 0.75
vn 0.2079116908177593 0 -0.9781476007338057
vn 0.9781476007338057 0 0.2079116908177593
vn -0.2079116908177593 0 0.9781476007338057
vn -0.9781476007338057 0 -0.2079116908177593
vn 0 1 0
vn 0 -1 0
v 1.03125000 1.04250000 0.77812500
v 1.03125000 1.04250000 0.67187500
v 1.03125000 1.02687500 0.77812500
v 1.03125000 1.02687500 0.67187500
v 0.92500000 1.04250000 0.67187500
v 0.92500000 1.04250000 0.77812500
v 0.92500000 1.02687500 0.67187500
v 0.92500000 1.02687500 0.77812500
vt 0.75 0.75
vt 1 0.75
vt 1 0.5
vt 0.75 0.5
vt 0.75 0.75
vt 1 0.75
vt 1 0.5
vt 0.75 0.5
vt 0.75 0.75
vt 1 0.75
vt 1 0.5
vt 0.75 0.5
vt 0.75 0.75
vt 1 0.75
vt 1 0.5
vt 0.75 0.5
vt 0.75 0.75
vt 1 0.75
vt 1 0.5
vt 0.75 0.5
vt 0.75 0.75
vt 1 0.75
vt 1 0.5
vt 0.75 0.5
vn 0 0 -1
vn 1 0 0
vn 0 0 1
vn -1 0 0
vn 0 1 0
vn 0 -1 0
v 1.86875000 1.04500000 0.87500000
v 1.86875000 1.04500000 0.59375000
v 1.86875000 1.00000000 0.87500000
v 1.86875000 1.00000000 0.59375000
v 1.47500000 1.04500000 0.59375000
v 1.47500000 1.04500000 0.87500000
v 1.47500000 1.00000000 0.59375000
v 1.47500000 1.00000000 0.87500000
vt 0.75 1
vt 1 1
vt 1 0.75
vt 0.75 0.75
vt 0.75 1
vt 1 1
vt 1 0.75
vt 0.75 0.75
vt 0.75 1
vt 1 1
vt 1 0.75
vt 0.75 0.75
vt 0.75 1
vt 1 1
vt 1 0.75
vt 0.75 0.75
vt 0.75 0.25
vt 1 0.25
vt 1 0
vt 0.75 0
vt 0.5 1
vt 0.75 1
vt 0.75 0.75
vt 0.5 0.75
vn 0 0 -1
vn 1 0 0
vn 0 0 1
vn -1 0 0
vn 0 1 0
vn 0 -1 0
v 1.49687500 1.05375000 0.88125000
v 1.49687500 1.05375000 0.58750000
v 1.49687500 1.00000000 0.88125000
v 1.49687500 1.00000000 0.58750000
v 1.45937500 1.05375000 0.58750000
v 1.45937500 1.05375000 0.88125000
v 1.45937500 1.00000000 0.58750000
v 1.45937500 1.00000000 0.88125000
vt 0.5 1
vt 0.75 1
vt 0.75 0.75
vt 0.5 0.75
vt 0.5 1
vt 0.75 1
vt 0.75 0.75
vt 0.5 0.75
vt 0.5 1
vt 0.75 1
vt 0.75 0.75
vt 0.5 0.75
vt 0.5 1
vt 0.75 1
vt 0.75 0.75
vt 0.5 0.75
vt 0.5 1
vt 0.75 1
vt 0.75 0.75
vt 0.5 0.75
vt 0.5 1
vt 0.75 1
vt 0.75 0.75
vt 0.5 0.75
vn 0 0 -1
vn 1 0 0
vn 0 0 1
vn -1 0 0
vn 0 1 0
vn 0 -1 0
v 1.85937500 1.05937500 0.89375000
v 1.85937500 1.05937500 0.86562500
v 1.85937500 1.01875000 0.89375000
v 1.85937500 1.01875000 0.86562500
v 1.82500000 1.05937500 0.86562500
v 1.82500000 1.05937500 0.89375000
v 1.82500000 1.01875000 0.86562500
v 1.82500000 1.01875000 0.89375000
vt 0.25 0.75
vt 0.5 0.75
vt 0.5 0.5
vt 0.25 0.5
vt 0.25 0.75
vt 0.5 0.75
vt 0.5 0.5
vt 0.25 0.5
vt 0.25 0.75
vt 0.5 0.75
vt 0.5 0.5
vt 0.25 0.5
vt 0.25 0.75
vt 0.5 0.75
vt 0.5 0.5
vt 0.25 0.5
vt 0.25 0.75
vt 0.5 0.75
vt 0.5 0.5
vt 0.25 0.5
vt 0.25 0.75
vt 0.5 0.75
vt 0.5 0.5
vt 0.25 0.5
vn 0 0 -1
vn 1 0 0
vn 0 0 1
vn -1 0 0
vn 0 1 0
vn 0 -1 0
