<svg xmlns="http://www.w3.org/2000/svg" width="512" height="512" viewBox="0 0 512 512" role="img" aria-label="Just Enough Juices bottle icon"><title>Just Enough Juices bottle icon</title>
<polygon points="48,0 464,0 512,48 512,464 464,512 48,512 0,464 0,48" fill="#123c31"/>
<polygon points="48,18 464,18 494,48 494,464 464,494 48,494 18,464 18,48" fill="#225445"/>
<polygon points="213,82 299,82 299,152 332,185 348,185 348,385 332,401 180,401 164,385 164,185 180,185 213,152" fill="#123c31"/>
<rect x="225" y="94" width="62" height="36" fill="#bf7846"/>
<rect x="225" y="94" width="62" height="10" fill="#edbc76"/>
<rect x="225" y="140" width="62" height="28" fill="#c2f0d7"/>
<rect x="210" y="130" width="92" height="15" fill="#ffc64b"/>
<rect x="221" y="133" width="58" height="5" fill="#fff3c4"/>
<polygon points="225,164 287,164 320,197 336,197 336,376 324,389 188,389 176,376 176,197 192,197" fill="#75cda0"/>
<rect x="186" y="217" width="140" height="159" fill="#f58a35"/>
<rect x="186" y="217" width="140" height="18" fill="#ffc64b"/>
<rect x="302" y="235" width="24" height="141" fill="#da5b31"/>
<rect x="189" y="238" width="13" height="115" fill="#ffd77f"/>
<rect x="187" y="190" width="13" height="22" fill="#d9ffe6"/>
<rect x="213" y="173" width="12" height="21" fill="#d9ffe6"/>
<rect x="205" y="262" width="102" height="82" fill="#123c31"/>
<rect x="211" y="268" width="90" height="70" fill="#fff3c4"/>
<rect x="226" y="291" width="60" height="26" fill="#d94c42"/>
<rect x="232" y="284" width="48" height="40" fill="#eb6650"/>
<rect x="246" y="280" width="16" height="10" fill="#fff3c4"/>
<rect x="250" y="276" width="6" height="14" fill="#123c31"/>
<rect x="256" y="272" width="18" height="8" fill="#4e9e59"/>
<rect x="236" y="291" width="8" height="12" fill="#ffaf80"/>
<rect x="208" y="363" width="74" height="6" fill="#ffc64b"/>
<polygon points="297,80 317,60 359,60 359,82 339,102 297,102" fill="#123c31"/>
<polygon points="307,85 326,69 348,69 348,77 332,92 307,92" fill="#8be3a3"/>
<polygon points="180,129 160,110 160,88 185,88 205,109 205,129" fill="#123c31"/>
<polygon points="187,118 171,104 171,98 182,98 194,111 194,118" fill="#58ba72"/>
<rect x="189" y="434" width="22" height="22" fill="#123c31"/>
<rect x="197" y="434" width="22" height="22" fill="#123c31"/>
<rect x="205" y="434" width="22" height="22" fill="#123c31"/>
<rect x="213" y="434" width="22" height="22" fill="#123c31"/>
<rect x="221" y="434" width="22" height="22" fill="#123c31"/>
<rect x="213" y="442" width="22" height="22" fill="#123c31"/>
<rect x="213" y="450" width="22" height="22" fill="#123c31"/>
<rect x="213" y="458" width="22" height="22" fill="#123c31"/>
<rect x="189" y="466" width="22" height="22" fill="#123c31"/>
<rect x="213" y="466" width="22" height="22" fill="#123c31"/>
<rect x="189" y="474" width="22" height="22" fill="#123c31"/>
<rect x="213" y="474" width="22" height="22" fill="#123c31"/>
<rect x="197" y="482" width="22" height="22" fill="#123c31"/>
<rect x="205" y="482" width="22" height="22" fill="#123c31"/>
<rect x="237" y="434" width="22" height="22" fill="#123c31"/>
<rect x="245" y="434" width="22" height="22" fill="#123c31"/>
<rect x="253" y="434" width="22" height="22" fill="#123c31"/>
<rect x="261" y="434" width="22" height="22" fill="#123c31"/>
<rect x="269" y="434" width="22" height="22" fill="#123c31"/>
<rect x="237" y="442" width="22" height="22" fill="#123c31"/>
<rect x="237" y="450" width="22" height="22" fill="#123c31"/>
<rect x="237" y="458" width="22" height="22" fill="#123c31"/>
<rect x="245" y="458" width="22" height="22" fill="#123c31"/>
<rect x="253" y="458" width="22" height="22" fill="#123c31"/>
<rect x="261" y="458" width="22" height="22" fill="#123c31"/>
<rect x="237" y="466" width="22" height="22" fill="#123c31"/>
<rect x="237" y="474" width="22" height="22" fill="#123c31"/>
<rect x="237" y="482" width="22" height="22" fill="#123c31"/>
<rect x="245" y="482" width="22" height="22" fill="#123c31"/>
<rect x="253" y="482" width="22" height="22" fill="#123c31"/>
<rect x="261" y="482" width="22" height="22" fill="#123c31"/>
<rect x="269" y="482" width="22" height="22" fill="#123c31"/>
<rect x="285" y="434" width="22" height="22" fill="#123c31"/>
<rect x="293" y="434" width="22" height="22" fill="#123c31"/>
<rect x="301" y="434" width="22" height="22" fill="#123c31"/>
<rect x="309" y="434" width="22" height="22" fill="#123c31"/>
<rect x="317" y="434" width="22" height="22" fill="#123c31"/>
<rect x="309" y="442" width="22" height="22" fill="#123c31"/>
<rect x="309" y="450" width="22" height="22" fill="#123c31"/>
<rect x="309" y="458" width="22" height="22" fill="#123c31"/>
<rect x="285" y="466" width="22" height="22" fill="#123c31"/>
<rect x="309" y="466" width="22" height="22" fill="#123c31"/>
<rect x="285" y="474" width="22" height="22" fill="#123c31"/>
<rect x="309" y="474" width="22" height="22" fill="#123c31"/>
<rect x="293" y="482" width="22" height="22" fill="#123c31"/>
<rect x="301" y="482" width="22" height="22" fill="#123c31"/>
<rect x="181" y="420" width="22" height="22" fill="#123c31"/>
<rect x="189" y="420" width="22" height="22" fill="#123c31"/>
<rect x="197" y="420" width="22" height="22" fill="#123c31"/>
<rect x="205" y="420" width="22" height="22" fill="#123c31"/>
<rect x="213" y="420" width="22" height="22" fill="#123c31"/>
<rect x="205" y="428" width="22" height="22" fill="#123c31"/>
<rect x="205" y="436" width="22" height="22" fill="#123c31"/>
<rect x="205" y="444" width="22" height="22" fill="#123c31"/>
<rect x="181" y="452" width="22" height="22" fill="#123c31"/>
<rect x="205" y="452" width="22" height="22" fill="#123c31"/>
<rect x="181" y="460" width="22" height="22" fill="#123c31"/>
<rect x="205" y="460" width="22" height="22" fill="#123c31"/>
<rect x="189" y="468" width="22" height="22" fill="#123c31"/>
<rect x="197" y="468" width="22" height="22" fill="#123c31"/>
<rect x="229" y="420" width="22" height="22" fill="#123c31"/>
<rect x="237" y="420" width="22" height="22" fill="#123c31"/>
<rect x="245" y="420" width="22" height="22" fill="#123c31"/>
<rect x="253" y="420" width="22" height="22" fill="#123c31"/>
<rect x="261" y="420" width="22" height="22" fill="#123c31"/>
<rect x="229" y="428" width="22" height="22" fill="#123c31"/>
<rect x="229" y="436" width="22" height="22" fill="#123c31"/>
<rect x="229" y="444" width="22" height="22" fill="#123c31"/>
<rect x="237" y="444" width="22" height="22" fill="#123c31"/>
<rect x="245" y="444" width="22" height="22" fill="#123c31"/>
<rect x="253" y="444" width="22" height="22" fill="#123c31"/>
<rect x="229" y="452" width="22" height="22" fill="#123c31"/>
<rect x="229" y="460" width="22" height="22" fill="#123c31"/>
<rect x="229" y="468" width="22" height="22" fill="#123c31"/>
<rect x="237" y="468" width="22" height="22" fill="#123c31"/>
<rect x="245" y="468" width="22" height="22" fill="#123c31"/>
<rect x="253" y="468" width="22" height="22" fill="#123c31"/>
<rect x="261" y="468" width="22" height="22" fill="#123c31"/>
<rect x="277" y="420" width="22" height="22" fill="#123c31"/>
<rect x="285" y="420" width="22" height="22" fill="#123c31"/>
<rect x="293" y="420" width="22" height="22" fill="#123c31"/>
<rect x="301" y="420" width="22" height="22" fill="#123c31"/>
<rect x="309" y="420" width="22" height="22" fill="#123c31"/>
<rect x="301" y="428" width="22" height="22" fill="#123c31"/>
<rect x="301" y="436" width="22" height="22" fill="#123c31"/>
<rect x="301" y="444" width="22" height="22" fill="#123c31"/>
<rect x="277" y="452" width="22" height="22" fill="#123c31"/>
<rect x="301" y="452" width="22" height="22" fill="#123c31"/>
<rect x="277" y="460" width="22" height="22" fill="#123c31"/>
<rect x="301" y="460" width="22" height="22" fill="#123c31"/>
<rect x="285" y="468" width="22" height="22" fill="#123c31"/>
<rect x="293" y="468" width="22" height="22" fill="#123c31"/>
<rect x="188" y="427" width="8" height="8" fill="#ffc64b"/>
<rect x="188" y="427" width="8" height="3" fill="#fff3c4"/>
<rect x="196" y="427" width="8" height="8" fill="#ffc64b"/>
<rect x="196" y="427" width="8" height="3" fill="#fff3c4"/>
<rect x="204" y="427" width="8" height="8" fill="#ffc64b"/>
<rect x="204" y="427" width="8" height="3" fill="#fff3c4"/>
<rect x="212" y="427" width="8" height="8" fill="#ffc64b"/>
<rect x="212" y="427" width="8" height="3" fill="#fff3c4"/>
<rect x="220" y="427" width="8" height="8" fill="#ffc64b"/>
<rect x="220" y="427" width="8" height="3" fill="#fff3c4"/>
<rect x="212" y="435" width="8" height="8" fill="#ffc64b"/>
<rect x="212" y="435" width="8" height="3" fill="#fff3c4"/>
<rect x="212" y="443" width="8" height="8" fill="#ffc64b"/>
<rect x="212" y="451" width="8" height="8" fill="#ffc64b"/>
<rect x="188" y="459" width="8" height="8" fill="#ffc64b"/>
<rect x="212" y="459" width="8" height="8" fill="#ffc64b"/>
<rect x="188" y="467" width="8" height="8" fill="#ffc64b"/>
<rect x="212" y="467" width="8" height="8" fill="#ffc64b"/>
<rect x="196" y="475" width="8" height="8" fill="#ffc64b"/>
<rect x="204" y="475" width="8" height="8" fill="#ffc64b"/>
<rect x="236" y="427" width="8" height="8" fill="#ffc64b"/>
<rect x="236" y="427" width="8" height="3" fill="#fff3c4"/>
<rect x="244" y="427" width="8" height="8" fill="#ffc64b"/>
<rect x="244" y="427" width="8" height="3" fill="#fff3c4"/>
<rect x="252" y="427" width="8" height="8" fill="#ffc64b"/>
<rect x="252" y="427" width="8" height="3" fill="#fff3c4"/>
<rect x="260" y="427" width="8" height="8" fill="#ffc64b"/>
<rect x="260" y="427" width="8" height="3" fill="#fff3c4"/>
<rect x="268" y="427" width="8" height="8" fill="#ffc64b"/>
<rect x="268" y="427" width="8" height="3" fill="#fff3c4"/>
<rect x="236" y="435" width="8" height="8" fill="#ffc64b"/>
<rect x="236" y="435" width="8" height="3" fill="#fff3c4"/>
<rect x="236" y="443" width="8" height="8" fill="#ffc64b"/>
<rect x="236" y="451" width="8" height="8" fill="#ffc64b"/>
<rect x="244" y="451" width="8" height="8" fill="#ffc64b"/>
<rect x="252" y="451" width="8" height="8" fill="#ffc64b"/>
<rect x="260" y="451" width="8" height="8" fill="#ffc64b"/>
<rect x="236" y="459" width="8" height="8" fill="#ffc64b"/>
<rect x="236" y="467" width="8" height="8" fill="#ffc64b"/>
<rect x="236" y="475" width="8" height="8" fill="#ffc64b"/>
<rect x="244" y="475" width="8" height="8" fill="#ffc64b"/>
<rect x="252" y="475" width="8" height="8" fill="#ffc64b"/>
<rect x="260" y="475" width="8" height="8" fill="#ffc64b"/>
<rect x="268" y="475" width="8" height="8" fill="#ffc64b"/>
<rect x="284" y="427" width="8" height="8" fill="#ffc64b"/>
<rect x="284" y="427" width="8" height="3" fill="#fff3c4"/>
<rect x="292" y="427" width="8" height="8" fill="#ffc64b"/>
<rect x="292" y="427" width="8" height="3" fill="#fff3c4"/>
<rect x="300" y="427" width="8" height="8" fill="#ffc64b"/>
<rect x="300" y="427" width="8" height="3" fill="#fff3c4"/>
<rect x="308" y="427" width="8" height="8" fill="#ffc64b"/>
<rect x="308" y="427" width="8" height="3" fill="#fff3c4"/>
<rect x="316" y="427" width="8" height="8" fill="#ffc64b"/>
<rect x="316" y="427" width="8" height="3" fill="#fff3c4"/>
<rect x="308" y="435" width="8" height="8" fill="#ffc64b"/>
<rect x="308" y="435" width="8" height="3" fill="#fff3c4"/>
<rect x="308" y="443" width="8" height="8" fill="#ffc64b"/>
<rect x="308" y="451" width="8" height="8" fill="#ffc64b"/>
<rect x="284" y="459" width="8" height="8" fill="#ffc64b"/>
<rect x="308" y="459" width="8" height="8" fill="#ffc64b"/>
<rect x="284" y="467" width="8" height="8" fill="#ffc64b"/>
<rect x="308" y="467" width="8" height="8" fill="#ffc64b"/>
<rect x="292" y="475" width="8" height="8" fill="#ffc64b"/>
<rect x="300" y="475" width="8" height="8" fill="#ffc64b"/>
<rect x="56" y="252" width="36" height="12" fill="#ffc64b"/>
<rect x="68" y="240" width="12" height="36" fill="#ffc64b"/>
<rect x="413" y="131" width="36" height="12" fill="#ffc64b"/>
<rect x="425" y="119" width="12" height="36" fill="#ffc64b"/>
<rect x="434" y="385" width="24" height="8" fill="#ffc64b"/>
<rect x="442" y="377" width="8" height="24" fill="#ffc64b"/>
</svg>
