# Made in Blockbench 5.1.6
mtllib juice_table.mtl

o part_1_clean_countertop
v 1.00000000 0.50000000 0.75000000
v 1.00000000 0.50000000 0.25000000
v 1.00000000 0.43750000 0.75000000
v 1.00000000 0.43750000 0.25000000
v 0.00000000 0.50000000 0.25000000
v 0.00000000 0.50000000 0.75000000
v 0.00000000 0.43750000 0.25000000
v 0.00000000 0.43750000 0.75000000
vt 0.5 1
vt 0.75 1
vt 0.75 0.75
vt 0.5 0.75
vt 0.5 1
vt 0.75 1
vt 0.75 0.75
vt 0.5 0.75
vt 0.5 1
vt 0.75 1
vt 0.75 0.75
vt 0.5 0.75
vt 0.5 1
vt 0.75 1
vt 0.75 0.75
vt 0.5 0.75
vt 0.75 1
vt 1 1
vt 1 0.75
vt 0.75 0.75
vt 0.25 1
vt 0.5 1
vt 0.5 0.75
vt 0.25 0.75
vn 0 0 -1
vn 1 0 0
vn 0 0 1
vn -1 0 0
vn 0 1 0
vn 0 -1 0
usemtl m_93064393-0add-ca65-e57e-d8c351095e93
f 4/4/1 7/3/1 5/2/1 2/1/1
f 3/8/2 4/7/2 2/6/2 1/5/2
f 8/12/3 3/11/3 1/10/3 6/9/3
f 7/16/4 8/15/4 6/14/4 5/13/4
f 6/20/5 1/19/5 2/18/5 5/17/5
f 7/24/6 4/23/6 3/22/6 8/21/6
o part_2_simple_leg_2_2
v 0.12500000 0.43750000 0.37500000
v 0.12500000 0.43750000 0.31250000
v 0.12500000 0.00000000 0.37500000
v 0.12500000 0.00000000 0.31250000
v 0.06250000 0.43750000 0.31250000
v 0.06250000 0.43750000 0.37500000
v 0.06250000 0.00000000 0.31250000
v 0.06250000 0.00000000 0.37500000
vt 0 1
vt 0.25 1
vt 0.25 0.75
vt 0 0.75
vt 0 1
vt 0.25 1
vt 0.25 0.75
vt 0 0.75
vt 0 1
vt 0.25 1
vt 0.25 0.75
vt 0 0.75
vt 0 1
vt 0.25 1
vt 0.25 0.75
vt 0 0.75
vt 0 1
vt 0.25 1
vt 0.25 0.75
vt 0 0.75
vt 0 1
vt 0.25 1
vt 0.25 0.75
vt 0 0.75
vn 0 0 -1
vn 1 0 0
vn 0 0 1
vn -1 0 0
vn 0 1 0
vn 0 -1 0
usemtl m_93064393-0add-ca65-e57e-d8c351095e93
f 12/28/7 15/27/7 13/26/7 10/25/7
f 11/32/8 12/31/8 10/30/8 9/29/8
f 16/36/9 11/35/9 9/34/9 14/33/9
f 15/40/10 16/39/10 14/38/10 13/37/10
f 14/44/11 9/43/11 10/42/11 13/41/11
f 15/48/12 12/47/12 11/46/12 16/45/12
o part_3_simple_leg_2_12
v 0.12500000 0.43750000 0.68750000
v 0.12500000 0.43750000 0.62500000
v 0.12500000 0.00000000 0.68750000
v 0.12500000 0.00000000 0.62500000
v 0.06250000 0.43750000 0.62500000
v 0.06250000 0.43750000 0.68750000
v 0.06250000 0.00000000 0.62500000
v 0.06250000 0.00000000 0.68750000
vt 0 1
vt 0.25 1
vt 0.25 0.75
vt 0 0.75
vt 0 1
vt 0.25 1
vt 0.25 0.75
vt 0 0.75
vt 0 1
vt 0.25 1
vt 0.25 0.75
vt 0 0.75
vt 0 1
vt 0.25 1
vt 0.25 0.75
vt 0 0.75
vt 0 1
vt 0.25 1
vt 0.25 0.75
vt 0 0.75
vt 0 1
vt 0.25 1
vt 0.25 0.75
vt 0 0.75
vn 0 0 -1
vn 1 0 0
vn 0 0 1
vn -1 0 0
vn 0 1 0
vn 0 -1 0
usemtl m_93064393-0add-ca65-e57e-d8c351095e93
f 20/52/13 23/51/13 21/50/13 18/49/13
f 19/56/14 20/55/14 18/54/14 17/53/14
f 24/60/15 19/59/15 17/58/15 22/57/15
f 23/64/16 24/63/16 22/62/16 21/61/16
f 22/68/17 17/67/17 18/66/17 21/65/17
f 23/72/18 20/71/18 19/70/18 24/69/18
o part_4_simple_leg_28_2
v 0.93750000 0.43750000 0.37500000
v 0.93750000 0.43750000 0.31250000
v 0.93750000 0.00000000 0.37500000
v 0.93750000 0.00000000 0.31250000
v 0.87500000 0.43750000 0.31250000
v 0.87500000 0.43750000 0.37500000
v 0.87500000 0.00000000 0.31250000
v 0.87500000 0.00000000 0.37500000
vt 0 1
vt 0.25 1
vt 0.25 0.75
vt 0 0.75
vt 0 1
vt 0.25 1
vt 0.25 0.75
vt 0 0.75
vt 0 1
vt 0.25 1
vt 0.25 0.75
vt 0 0.75
vt 0 1
vt 0.25 1
vt 0.25 0.75
vt 0 0.75
vt 0 1
vt 0.25 1
vt 0.25 0.75
vt 0 0.75
vt 0 1
vt 0.25 1
vt 0.25 0.75
vt 0 0.75
vn 0 0 -1
vn 1 0 0
vn 0 0 1
vn -1 0 0
vn 0 1 0
vn 0 -1 0
usemtl m_93064393-0add-ca65-e57e-d8c351095e93
f 28/76/19 31/75/19 29/74/19 26/73/19
f 27/80/20 28/79/20 26/78/20 25/77/20
f 32/84/21 27/83/21 25/82/21 30/81/21
f 31/88/22 32/87/22 30/86/22 29/85/22
f 30/92/23 25/91/23 26/90/23 29/89/23
f 31/96/24 28/95/24 27/94/24 32/93/24
o part_5_simple_leg_28_12
v 0.93750000 0.37500000 0.68750000
v 0.93750000 0.37500000 0.62500000
v 0.93750000 0.00000000 0.68750000
v 0.93750000 0.00000000 0.62500000
v 0.87500000 0.37500000 0.62500000
v 0.87500000 0.37500000 0.68750000
v 0.87500000 0.00000000 0.62500000
v 0.87500000 0.00000000 0.68750000
vt 0 1
vt 0.25 1
vt 0.25 0.75
vt 0 0.75
vt 0 1
vt 0.25 1
vt 0.25 0.75
vt 0 0.75
vt 0 1
vt 0.25 1
vt 0.25 0.75
vt 0 0.75
vt 0 1
vt 0.25 1
vt 0.25 0.75
vt 0 0.75
vt 0 1
vt 0.25 1
vt 0.25 0.75
vt 0 0.75
vt 0 1
vt 0.25 1
vt 0.25 0.75
vt 0 0.75
vn 0 0 -1
vn 1 0 0
vn 0 0 1
vn -1 0 0
vn 0 1 0
vn 0 -1 0
usemtl m_93064393-0add-ca65-e57e-d8c351095e93
f 36/100/25 39/99/25 37/98/25 34/97/25
f 35/104/26 36/103/26 34/102/26 33/101/26
f 40/108/27 35/107/27 33/106/27 38/105/27
f 39/112/28 40/111/28 38/110/28 37/109/28
f 38/116/29 33/115/29 34/114/29 37/113/29
f 39/120/30 36/119/30 35/118/30 40/117/30
o part_6_simple_apron_2
v 0.93750000 0.43750000 0.31250000
v 0.93750000 0.43750000 0.28125000
v 0.93750000 0.35937500 0.31250000
v 0.93750000 0.35937500 0.28125000
v 0.03125000 0.43750000 0.28125000
v 0.03125000 0.43750000 0.31250000
v 0.03125000 0.35937500 0.28125000
v 0.03125000 0.35937500 0.31250000
vt 0.5 1
vt 0.75 1
vt 0.75 0.75
vt 0.5 0.75
vt 0.5 1
vt 0.75 1
vt 0.75 0.75
vt 0.5 0.75
vt 0.5 1
vt 0.75 1
vt 0.75 0.75
vt 0.5 0.75
vt 0.5 1
vt 0.75 1
vt 0.75 0.75
vt 0.5 0.75
vt 0.5 1
vt 0.75 1
vt 0.75 0.75
vt 0.5 0.75
vt 0.5 1
vt 0.75 1
vt 0.75 0.75
vt 0.5 0.75
vn 0 0 -1
vn 1 0 0
vn 0 0 1
vn -1 0 0
vn 0 1 0
vn 0 -1 0
usemtl m_93064393-0add-ca65-e57e-d8c351095e93
f 44/124/31 47/123/31 45/122/31 42/121/31
f 43/128/32 44/127/32 42/126/32 41/125/32
f 48/132/33 43/131/33 41/130/33 46/129/33
f 47/136/34 48/135/34 46/134/34 45/133/34
f 46/140/35 41/139/35 42/138/35 45/137/35
f 47/144/36 44/143/36 43/142/36 48/141/36
o part_7_simple_apron_13
v 0.93750000 0.43750000 0.71875000
v 0.93750000 0.43750000 0.68750000
v 0.93750000 0.35937500 0.71875000
v 0.93750000 0.35937500 0.68750000
v 0.06250000 0.43750000 0.68750000
v 0.06250000 0.43750000 0.71875000
v 0.06250000 0.35937500 0.68750000
v 0.06250000 0.35937500 0.71875000
vt 0.5 1
vt 0.75 1
vt 0.75 0.75
vt 0.5 0.75
vt 0.5 1
vt 0.75 1
vt 0.75 0.75
vt 0.5 0.75
vt 0.5 1
vt 0.75 1
vt 0.75 0.75
vt 0.5 0.75
vt 0.5 1
vt 0.75 1
vt 0.75 0.75
vt 0.5 0.75
vt 0.5 1
vt 0.75 1
vt 0.75 0.75
vt 0.5 0.75
vt 0.5 1
vt 0.75 1
vt 0.75 0.75
vt 0.5 0.75
vn 0 0 -1
vn 1 0 0
vn 0 0 1
vn -1 0 0
vn 0 1 0
vn 0 -1 0
usemtl m_93064393-0add-ca65-e57e-d8c351095e93
f 52/148/37 55/147/37 53/146/37 50/145/37
f 51/152/38 52/151/38 50/150/38 49/149/38
f 56/156/39 51/155/39 49/154/39 54/153/39
f 55/160/40 56/159/40 54/158/40 53/157/40
f 54/164/41 49/163/41 50/162/41 53/161/41
f 55/168/42 52/167/42 51/166/42 56/165/42
o part_8_single_lower_shelf
v 0.90625000 0.12500000 0.65625000
v 0.90625000 0.12500000 0.34375000
v 0.90625000 0.09375000 0.65625000
v 0.90625000 0.09375000 0.34375000
v 0.09375000 0.12500000 0.34375000
v 0.09375000 0.12500000 0.65625000
v 0.09375000 0.09375000 0.34375000
v 0.09375000 0.09375000 0.65625000
vt 0.5 0.25
vt 0.75 0.25
vt 0.75 0
vt 0.5 0
vt 0.5 0.25
vt 0.75 0.25
vt 0.75 0
vt 0.5 0
vt 0.5 0.25
vt 0.75 0.25
vt 0.75 0
vt 0.5 0
vt 0.5 0.25
vt 0.75 0.25
vt 0.75 0
vt 0.5 0
vt 0.5 0.25
vt 0.75 0.25
vt 0.75 0
vt 0.5 0
vt 0.5 0.25
vt 0.75 0.25
vt 0.75 0
vt 0.5 0
vn 0 0 -1
vn 1 0 0
vn 0 0 1
vn -1 0 0
vn 0 1 0
vn 0 -1 0
usemtl m_93064393-0add-ca65-e57e-d8c351095e93
f 60/172/43 63/171/43 61/170/43 58/169/43
f 59/176/44 60/175/44 58/174/44 57/173/44
f 64/180/45 59/179/45 57/178/45 62/177/45
f 63/184/46 64/183/46 62/182/46 61/181/46
f 62/188/47 57/187/47 58/186/47 61/185/47
f 63/192/48 60/191/48 59/190/48 64/189/48
o part_9_foot_iron_cuff_2_2
v 0.12687500 0.04375000 0.37687500
v 0.12687500 0.04375000 0.31062500
v 0.12687500 0.02500000 0.37687500
v 0.12687500 0.02500000 0.31062500
v 0.06062500 0.04375000 0.31062500
v 0.06062500 0.04375000 0.37687500
v 0.06062500 0.02500000 0.31062500
v 0.06062500 0.02500000 0.37687500
vt 0 0.75
vt 0.25 0.75
vt 0.25 0.5
vt 0 0.5
vt 0 0.75
vt 0.25 0.75
vt 0.25 0.5
vt 0 0.5
vt 0 0.75
vt 0.25 0.75
vt 0.25 0.5
vt 0 0.5
vt 0 0.75
vt 0.25 0.75
vt 0.25 0.5
vt 0 0.5
vt 0 0.75
vt 0.25 0.75
vt 0.25 0.5
vt 0 0.5
vt 0 0.75
vt 0.25 0.75
vt 0.25 0.5
vt 0 0.5
vn 0 0 -1
vn 1 0 0
vn 0 0 1
vn -1 0 0
vn 0 1 0
vn 0 -1 0
usemtl m_93064393-0add-ca65-e57e-d8c351095e93
f 68/196/49 71/195/49 69/194/49 66/193/49
f 67/200/50 68/199/50 66/198/50 65/197/50
f 72/204/51 67/203/51 65/202/51 70/201/51
f 71/208/52 72/207/52 70/206/52 69/205/52
f 70/212/53 65/211/53 66/210/53 69/209/53
f 71/216/54 68/215/54 67/214/54 72/213/54
o part_10_foot_iron_cuff_2_12
v 0.12687500 0.04375000 0.68937500
v 0.12687500 0.04375000 0.62312500
v 0.12687500 0.02500000 0.68937500
v 0.12687500 0.02500000 0.62312500
v 0.06062500 0.04375000 0.62312500
v 0.06062500 0.04375000 0.68937500
v 0.06062500 0.02500000 0.62312500
v 0.06062500 0.02500000 0.68937500
vt 0 0.75
vt 0.25 0.75
vt 0.25 0.5
vt 0 0.5
vt 0 0.75
vt 0.25 0.75
vt 0.25 0.5
vt 0 0.5
vt 0 0.75
vt 0.25 0.75
vt 0.25 0.5
vt 0 0.5
vt 0 0.75
vt 0.25 0.75
vt 0.25 0.5
vt 0 0.5
vt 0 0.75
vt 0.25 0.75
vt 0.25 0.5
vt 0 0.5
vt 0 0.75
vt 0.25 0.75
vt 0.25 0.5
vt 0 0.5
vn 0 0 -1
vn 1 0 0
vn 0 0 1
vn -1 0 0
vn 0 1 0
vn 0 -1 0
usemtl m_93064393-0add-ca65-e57e-d8c351095e93
f 76/220/55 79/219/55 77/218/55 74/217/55
f 75/224/56 76/223/56 74/222/56 73/221/56
f 80/228/57 75/227/57 73/226/57 78/225/57
f 79/232/58 80/231/58 78/230/58 77/229/58
f 78/236/59 73/235/59 74/234/59 77/233/59
f 79/240/60 76/239/60 75/238/60 80/237/60
o part_11_foot_iron_cuff_28_2
v 0.93937500 0.04375000 0.37687500
v 0.93937500 0.04375000 0.31062500
v 0.93937500 0.02500000 0.37687500
v 0.93937500 0.02500000 0.31062500
v 0.87312500 0.04375000 0.31062500
v 0.87312500 0.04375000 0.37687500
v 0.87312500 0.02500000 0.31062500
v 0.87312500 0.02500000 0.37687500
vt 0 0.75
vt 0.25 0.75
vt 0.25 0.5
vt 0 0.5
vt 0 0.75
vt 0.25 0.75
vt 0.25 0.5
vt 0 0.5
vt 0 0.75
vt 0.25 0.75
vt 0.25 0.5
vt 0 0.5
vt 0 0.75
vt 0.25 0.75
vt 0.25 0.5
vt 0 0.5
vt 0 0.75
vt 0.25 0.75
vt 0.25 0.5
vt 0 0.5
vt 0 0.75
vt 0.25 0.75
vt 0.25 0.5
vt 0 0.5
vn 0 0 -1
vn 1 0 0
vn 0 0 1
vn -1 0 0
vn 0 1 0
vn 0 -1 0
usemtl m_93064393-0add-ca65-e57e-d8c351095e93
f 84/244/61 87/243/61 85/242/61 82/241/61
f 83/248/62 84/247/62 82/246/62 81/245/62
f 88/252/63 83/251/63 81/250/63 86/249/63
f 87/256/64 88/255/64 86/254/64 85/253/64
f 86/260/65 81/259/65 82/258/65 85/257/65
f 87/264/66 84/263/66 83/262/66 88/261/66
o part_12_foot_iron_cuff_28_12
v 0.93937500 0.04375000 0.68937500
v 0.93937500 0.04375000 0.62312500
v 0.93937500 0.02500000 0.68937500
v 0.93937500 0.02500000 0.62312500
v 0.87312500 0.04375000 0.62312500
v 0.87312500 0.04375000 0.68937500
v 0.87312500 0.02500000 0.62312500
v 0.87312500 0.02500000 0.68937500
vt 0 0.75
vt 0.25 0.75
vt 0.25 0.5
vt 0 0.5
vt 0 0.75
vt 0.25 0.75
vt 0.25 0.5
vt 0 0.5
vt 0 0.75
vt 0.25 0.75
vt 0.25 0.5
vt 0 0.5
vt 0 0.75
vt 0.25 0.75
vt 0.25 0.5
vt 0 0.5
vt 0 0.75
vt 0.25 0.75
vt 0.25 0.5
vt 0 0.5
vt 0 0.75
vt 0.25 0.75
vt 0.25 0.5
vt 0 0.5
vn 0 0 -1
vn 1 0 0
vn 0 0 1
vn -1 0 0
vn 0 1 0
vn 0 -1 0
usemtl m_93064393-0add-ca65-e57e-d8c351095e93
f 92/268/67 95/267/67 93/266/67 90/265/67
f 91/272/68 92/271/68 90/270/68 89/269/68
f 96/276/69 91/275/69 89/274/69 94/273/69
f 95/280/70 96/279/70 94/278/70 93/277/70
f 94/284/71 89/283/71 90/282/71 93/281/71
f 95/288/72 92/287/72 91/286/72 96/285/72
o part_13_countertop_corner_fitting_0_7_0_7
v 0.06562500 0.50406250 0.30625000
v 0.06562500 0.50406250 0.27187500
v 0.06562500 0.50046875 0.30625000
v 0.06562500 0.50046875 0.27187500
v 0.02187500 0.50406250 0.27187500
v 0.02187500 0.50406250 0.30625000
v 0.02187500 0.50046875 0.27187500
v 0.02187500 0.50046875 0.30625000
vt 0 0.75
vt 0.25 0.75
vt 0.25 0.5
vt 0 0.5
vt 0 0.75
vt 0.25 0.75
vt 0.25 0.5
vt 0 0.5
vt 0 0.75
vt 0.25 0.75
vt 0.25 0.5
vt 0 0.5
vt 0 0.75
vt 0.25 0.75
vt 0.25 0.5
vt 0 0.5
vt 0 0.75
vt 0.25 0.75
vt 0.25 0.5
vt 0 0.5
vt 0 0.75
vt 0.25 0.75
vt 0.25 0.5
vt 0 0.5
vn 0 0 -1
vn 1 0 0
vn 0 0 1
vn -1 0 0
vn 0 1 0
vn 0 -1 0
usemtl m_93064393-0add-ca65-e57e-d8c351095e93
f 100/292/73 103/291/73 101/290/73 98/289/73
f 99/296/74 100/295/74 98/294/74 97/293/74
f 104/300/75 99/299/75 97/298/75 102/297/75
f 103/304/76 104/303/76 102/302/76 101/301/76
f 102/308/77 97/307/77 98/306/77 101/305/77
f 103/312/78 100/311/78 99/310/78 104/309/78
o part_14_countertop_corner_fitting_0_7_14_1
v 0.06562500 0.50406250 0.72500000
v 0.06562500 0.50406250 0.69062500
v 0.06562500 0.50046875 0.72500000
v 0.06562500 0.50046875 0.69062500
v 0.02187500 0.50406250 0.69062500
v 0.02187500 0.50406250 0.72500000
v 0.02187500 0.50046875 0.69062500
v 0.02187500 0.50046875 0.72500000
vt 0 0.75
vt 0.25 0.75
vt 0.25 0.5
vt 0 0.5
vt 0 0.75
vt 0.25 0.75
vt 0.25 0.5
vt 0 0.5
vt 0 0.75
vt 0.25 0.75
vt 0.25 0.5
vt 0 0.5
vt 0 0.75
vt 0.25 0.75
vt 0.25 0.5
vt 0 0.5
vt 0 0.75
vt 0.25 0.75
vt 0.25 0.5
vt 0 0.5
vt 0 0.75
vt 0.25 0.75
vt 0.25 0.5
vt 0 0.5
vn 0 0 -1
vn 1 0 0
vn 0 0 1
vn -1 0 0
vn 0 1 0
vn 0 -1 0
usemtl m_93064393-0add-ca65-e57e-d8c351095e93
f 108/316/79 111/315/79 109/314/79 106/313/79
f 107/320/80 108/319/80 106/318/80 105/317/80
f 112/324/81 107/323/81 105/322/81 110/321/81
f 111/328/82 112/327/82 110/326/82 109/325/82
f 110/332/83 105/331/83 106/330/83 109/329/83
f 111/336/84 108/335/84 107/334/84 112/333/84
o part_15_countertop_corner_fitting_29_9_0_7
v 0.97812500 0.50406250 0.30625000
v 0.97812500 0.50406250 0.27187500
v 0.97812500 0.50046875 0.30625000
v 0.97812500 0.50046875 0.27187500
v 0.93437500 0.50406250 0.27187500
v 0.93437500 0.50406250 0.30625000
v 0.93437500 0.50046875 0.27187500
v 0.93437500 0.50046875 0.30625000
vt 0 0.75
vt 0.25 0.75
vt 0.25 0.5
vt 0 0.5
vt 0 0.75
vt 0.25 0.75
vt 0.25 0.5
vt 0 0.5
vt 0 0.75
vt 0.25 0.75
vt 0.25 0.5
vt 0 0.5
vt 0 0.75
vt 0.25 0.75
vt 0.25 0.5
vt 0 0.5
vt 0 0.75
vt 0.25 0.75
vt 0.25 0.5
vt 0 0.5
vt 0 0.75
vt 0.25 0.75
vt 0.25 0.5
vt 0 0.5
vn 0 0 -1
vn 1 0 0
vn 0 0 1
vn -1 0 0
vn 0 1 0
vn 0 -1 0
usemtl m_93064393-0add-ca65-e57e-d8c351095e93
f 116/340/85 119/339/85 117/338/85 114/337/85
f 115/344/86 116/343/86 114/342/86 113/341/86
f 120/348/87 115/347/87 113/346/87 118/345/87
f 119/352/88 120/351/88 118/350/88 117/349/88
f 118/356/89 113/355/89 114/354/89 117/353/89
f 119/360/90 116/359/90 115/358/90 120/357/90
o part_16_countertop_corner_fitting_29_9_14_1
v 0.97812500 0.50406250 0.72500000
v 0.97812500 0.50406250 0.69062500
v 0.97812500 0.50046875 0.72500000
v 0.97812500 0.50046875 0.69062500
v 0.93437500 0.50406250 0.69062500
v 0.93437500 0.50406250 0.72500000
v 0.93437500 0.50046875 0.69062500
v 0.93437500 0.50046875 0.72500000
vt 0 0.75
vt 0.25 0.75
vt 0.25 0.5
vt 0 0.5
vt 0 0.75
vt 0.25 0.75
vt 0.25 0.5
vt 0 0.5
vt 0 0.75
vt 0.25 0.75
vt 0.25 0.5
vt 0 0.5
vt 0 0.75
vt 0.25 0.75
vt 0.25 0.5
vt 0 0.5
vt 0 0.75
vt 0.25 0.75
vt 0.25 0.5
vt 0 0.5
vt 0 0.75
vt 0.25 0.75
vt 0.25 0.5
vt 0 0.5
vn 0 0 -1
vn 1 0 0
vn 0 0 1
vn -1 0 0
vn 0 1 0
vn 0 -1 0
usemtl m_93064393-0add-ca65-e57e-d8c351095e93
f 124/364/91 127/363/91 125/362/91 122/361/91
f 123/368/92 124/367/92 122/366/92 121/365/92
f 128/372/93 123/371/93 121/370/93 126/369/93
f 127/376/94 128/375/94 126/374/94 125/373/94
f 126/380/95 121/379/95 122/378/95 125/377/95
f 127/384/96 124/383/96 123/382/96 128/381/96
o part_17_oak_breadboard_edge_0
v 1.00000000 0.50375000 0.26875000
v 1.00000000 0.50375000 0.25000000
v 1.00000000 0.50000000 0.26875000
v 1.00000000 0.50000000 0.25000000
v 0.00000000 0.50375000 0.25000000
v 0.00000000 0.50375000 0.26875000
v 0.00000000 0.50000000 0.25000000
v 0.00000000 0.50000000 0.26875000
vt 0 1
vt 0.25 1
vt 0.25 0.75
vt 0 0.75
vt 0 1
vt 0.25 1
vt 0.25 0.75
vt 0 0.75
vt 0 1
vt 0.25 1
vt 0.25 0.75
vt 0 0.75
vt 0 1
vt 0.25 1
vt 0.25 0.75
vt 0 0.75
vt 0 1
vt 0.25 1
vt 0.25 0.75
vt 0 0.75
vt 0 1
vt 0.25 1
vt 0.25 0.75
vt 0 0.75
vn 0 0 -1
vn 1 0 0
vn 0 0 1
vn -1 0 0
vn 0 1 0
vn 0 -1 0
usemtl m_93064393-0add-ca65-e57e-d8c351095e93
f 132/388/97 135/387/97 133/386/97 130/385/97
f 131/392/98 132/391/98 130/390/98 129/389/98
f 136/396/99 131/395/99 129/394/99 134/393/99
f 135/400/100 136/399/100 134/398/100 133/397/100
f 134/404/101 129/403/101 130/402/101 133/401/101
f 135/408/102 132/407/102 131/406/102 136/405/102
o part_18_oak_breadboard_edge_15_4
v 1.00000000 0.50375000 0.75000000
v 1.00000000 0.50375000 0.73125000
v 1.00000000 0.50000000 0.75000000
v 1.00000000 0.50000000 0.73125000
v 0.00000000 0.50375000 0.73125000
v 0.00000000 0.50375000 0.75000000
v 0.00000000 0.50000000 0.73125000
v 0.00000000 0.50000000 0.75000000
vt 0 1
vt 0.25 1
vt 0.25 0.75
vt 0 0.75
vt 0 1
vt 0.25 1
vt 0.25 0.75
vt 0 0.75
vt 0 1
vt 0.25 1
vt 0.25 0.75
vt 0 0.75
vt 0 1
vt 0.25 1
vt 0.25 0.75
vt 0 0.75
vt 0 1
vt 0.25 1
vt 0.25 0.75
vt 0 0.75
vt 0 1
vt 0.25 1
vt 0.25 0.75
vt 0 0.75
vn 0 0 -1
vn 1 0 0
vn 0 0 1
vn -1 0 0
vn 0 1 0
vn 0 -1 0
usemtl m_93064393-0add-ca65-e57e-d8c351095e93
f 140/412/103 143/411/103 141/410/103 138/409/103
f 139/416/104 140/415/104 138/414/104 137/413/104
f 144/420/105 139/419/105 137/418/105 142/417/105
f 143/424/106 144/423/106 142/422/106 141/421/106
f 142/428/107 137/427/107 138/426/107 141/425/107
f 143/432/108 140/431/108 139/430/108 144/429/108
o part_19_end_apron_2
v 0.06250000 0.43750000 0.71875000
v 0.06250000 0.43750000 0.31250000
v 0.06250000 0.35937500 0.71875000
v 0.06250000 0.35937500 0.31250000
v 0.03125000 0.43750000 0.31250000
v 0.03125000 0.43750000 0.71875000
v 0.03125000 0.35937500 0.31250000
v 0.03125000 0.35937500 0.71875000
vt 0.5 1
vt 0.75 1
vt 0.75 0.75
vt 0.5 0.75
vt 0.5 1
vt 0.75 1
vt 0.75 0.75
vt 0.5 0.75
vt 0.5 1
vt 0.75 1
vt 0.75 0.75
vt 0.5 0.75
vt 0.5 1
vt 0.75 1
vt 0.75 0.75
vt 0.5 0.75
vt 0.5 1
vt 0.75 1
vt 0.75 0.75
vt 0.5 0.75
vt 0.5 1
vt 0.75 1
vt 0.75 0.75
vt 0.5 0.75
vn 0 0 -1
vn 1 0 0
vn 0 0 1
vn -1 0 0
vn 0 1 0
vn 0 -1 0
usemtl m_93064393-0add-ca65-e57e-d8c351095e93
f 148/436/109 151/435/109 149/434/109 146/433/109
f 147/440/110 148/439/110 146/438/110 145/437/110
f 152/444/111 147/443/111 145/442/111 150/441/111
f 151/448/112 152/447/112 150/446/112 149/445/112
f 150/452/113 145/451/113 146/450/113 149/449/113
f 151/456/114 148/455/114 147/454/114 152/453/114
o part_20_end_apron_29
v 0.96875000 0.43750000 0.71875000
v 0.96875000 0.43750000 0.28125000
v 0.96875000 0.35937500 0.71875000
v 0.96875000 0.35937500 0.28125000
v 0.93750000 0.43750000 0.28125000
v 0.93750000 0.43750000 0.71875000
v 0.93750000 0.35937500 0.28125000
v 0.93750000 0.35937500 0.71875000
vt 0.5 1
vt 0.75 1
vt 0.75 0.75
vt 0.5 0.75
vt 0.5 1
vt 0.75 1
vt 0.75 0.75
vt 0.5 0.75
vt 0.5 1
vt 0.75 1
vt 0.75 0.75
vt 0.5 0.75
vt 0.5 1
vt 0.75 1
vt 0.75 0.75
vt 0.5 0.75
vt 0.5 1
vt 0.75 1
vt 0.75 0.75
vt 0.5 0.75
vt 0.5 1
vt 0.75 1
vt 0.75 0.75
vt 0.5 0.75
vn 0 0 -1
vn 1 0 0
vn 0 0 1
vn -1 0 0
vn 0 1 0
vn 0 -1 0
usemtl m_93064393-0add-ca65-e57e-d8c351095e93
f 156/460/115 159/459/115 157/458/115 154/457/115
f 155/464/116 156/463/116 154/462/116 153/461/116
f 160/468/117 155/467/117 153/466/117 158/465/117
f 159/472/118 160/471/118 158/470/118 157/469/118
f 158/476/119 153/475/119 154/474/119 157/473/119
f 159/480/120 156/479/120 155/478/120 160/477/120
o part_21_juice_station_badge
v 0.53437500 0.42500000 0.68953125
v 0.53437500 0.42500000 0.68768750
v 0.53437500 0.37500000 0.68953125
v 0.53437500 0.37500000 0.68768750
v 0.46562500 0.42500000 0.68768750
v 0.46562500 0.42500000 0.68953125
v 0.46562500 0.37500000 0.68768750
v 0.46562500 0.37500000 0.68953125
vt 0.75 0.5
vt 1 0.5
vt 1 0.25
vt 0.75 0.25
vt 0.75 0.5
vt 1 0.5
vt 1 0.25
vt 0.75 0.25
vt 0.75 0.5
vt 1 0.5
vt 1 0.25
vt 0.75 0.25
vt 0.75 0.5
vt 1 0.5
vt 1 0.25
vt 0.75 0.25
vt 0.75 0.5
vt 1 0.5
vt 1 0.25
vt 0.75 0.25
vt 0.75 0.5
vt 1 0.5
vt 1 0.25
vt 0.75 0.25
vn 0 0 -1
vn 1 0 0
vn 0 0 1
vn -1 0 0
vn 0 1 0
vn 0 -1 0
usemtl m_93064393-0add-ca65-e57e-d8c351095e93
f 164/484/121 167/483/121 165/482/121 162/481/121
f 163/488/122 164/487/122 162/486/122 161/485/122
f 168/492/123 163/491/123 161/490/123 166/489/123
f 167/496/124 168/495/124 166/494/124 165/493/124
f 166/500/125 161/499/125 162/498/125 165/497/125
f 167/504/126 164/503/126 163/502/126 168/501/126
o part_22_press_base
v 0.40625000 0.53125000 0.56250000
v 0.40625000 0.53125000 0.31250000
v 0.40625000 0.50000000 0.56250000
v 0.40625000 0.50000000 0.31250000
v 0.09375000 0.53125000 0.31250000
v 0.09375000 0.53125000 0.56250000
v 0.09375000 0.50000000 0.31250000
v 0.09375000 0.50000000 0.56250000
vt 0.25 1
vt 0.5 1
vt 0.5 0.75
vt 0.25 0.75
vt 0.25 1
vt 0.5 1
vt 0.5 0.75
vt 0.25 0.75
vt 0.25 1
vt 0.5 1
vt 0.5 0.75
vt 0.25 0.75
vt 0.25 1
vt 0.5 1
vt 0.5 0.75
vt 0.25 0.75
vt 0.25 1
vt 0.5 1
vt 0.5 0.75
vt 0.25 0.75
vt 0.25 1
vt 0.5 1
vt 0.5 0.75
vt 0.25 0.75
vn 0 0 -1
vn 1 0 0
vn 0 0 1
vn -1 0 0
vn 0 1 0
vn 0 -1 0
usemtl m_93064393-0add-ca65-e57e-d8c351095e93
f 172/508/127 175/507/127 173/506/127 170/505/127
f 171/512/128 172/511/128 170/510/128 169/509/128
f 176/516/129 171/515/129 169/514/129 174/513/129
f 175/520/130 176/519/130 174/518/130 173/517/130
f 174/524/131 169/523/131 170/522/131 173/521/131
f 175/528/132 172/527/132 171/526/132 176/525/132
o part_23_press_support_3_5
v 0.14062500 0.81250000 0.45312500
v 0.14062500 0.81250000 0.40625000
v 0.14062500 0.53125000 0.45312500
v 0.14062500 0.53125000 0.40625000
v 0.10937500 0.81250000 0.40625000
v 0.10937500 0.81250000 0.45312500
v 0.10937500 0.53125000 0.40625000
v 0.10937500 0.53125000 0.45312500
vt 0 1
vt 0.25 1
vt 0.25 0.75
vt 0 0.75
vt 0 1
vt 0.25 1
vt 0.25 0.75
vt 0 0.75
vt 0 1
vt 0.25 1
vt 0.25 0.75
vt 0 0.75
vt 0 1
vt 0.25 1
vt 0.25 0.75
vt 0 0.75
vt 0 1
vt 0.25 1
vt 0.25 0.75
vt 0 0.75
vt 0 1
vt 0.25 1
vt 0.25 0.75
vt 0 0.75
vn 0 0 -1
vn 1 0 0
vn 0 0 1
vn -1 0 0
vn 0 1 0
vn 0 -1 0
usemtl m_93064393-0add-ca65-e57e-d8c351095e93
f 180/532/133 183/531/133 181/530/133 178/529/133
f 179/536/134 180/535/134 178/534/134 177/533/134
f 184/540/135 179/539/135 177/538/135 182/537/135
f 183/544/136 184/543/136 182/542/136 181/541/136
f 182/548/137 177/547/137 178/546/137 181/545/137
f 183/552/138 180/551/138 179/550/138 184/549/138
o part_24_press_support_11_5
v 0.39062500 0.81250000 0.45312500
v 0.39062500 0.81250000 0.40625000
v 0.39062500 0.53125000 0.45312500
v 0.39062500 0.53125000 0.40625000
v 0.35937500 0.81250000 0.40625000
v 0.35937500 0.81250000 0.45312500
v 0.35937500 0.53125000 0.40625000
v 0.35937500 0.53125000 0.45312500
vt 0 1
vt 0.25 1
vt 0.25 0.75
vt 0 0.75
vt 0 1
vt 0.25 1
vt 0.25 0.75
vt 0 0.75
vt 0 1
vt 0.25 1
vt 0.25 0.75
vt 0 0.75
vt 0 1
vt 0.25 1
vt 0.25 0.75
vt 0 0.75
vt 0 1
vt 0.25 1
vt 0.25 0.75
vt 0 0.75
vt 0 1
vt 0.25 1
vt 0.25 0.75
vt 0 0.75
vn 0 0 -1
vn 1 0 0
vn 0 0 1
vn -1 0 0
vn 0 1 0
vn 0 -1 0
usemtl m_93064393-0add-ca65-e57e-d8c351095e93
f 188/556/139 191/555/139 189/554/139 186/553/139
f 187/560/140 188/559/140 186/558/140 185/557/140
f 192/564/141 187/563/141 185/562/141 190/561/141
f 191/568/142 192/567/142 190/566/142 189/565/142
f 190/572/143 185/571/143 186/570/143 189/569/143
f 191/576/144 188/575/144 187/574/144 192/573/144
o part_25_press_crossbeam
v 0.40625000 0.82812500 0.45625000
v 0.40625000 0.82812500 0.40312500
v 0.40625000 0.79687500 0.45625000
v 0.40625000 0.79687500 0.40312500
v 0.09375000 0.82812500 0.40312500
v 0.09375000 0.82812500 0.45625000
v 0.09375000 0.79687500 0.40312500
v 0.09375000 0.79687500 0.45625000
vt 0.25 1
vt 0.5 1
vt 0.5 0.75
vt 0.25 0.75
vt 0.25 1
vt 0.5 1
vt 0.5 0.75
vt 0.25 0.75
vt 0.25 1
vt 0.5 1
vt 0.5 0.75
vt 0.25 0.75
vt 0.25 1
vt 0.5 1
vt 0.5 0.75
vt 0.25 0.75
vt 0.25 1
vt 0.5 1
vt 0.5 0.75
vt 0.25 0.75
vt 0.25 1
vt 0.5 1
vt 0.5 0.75
vt 0.25 0.75
vn 0 0 -1
vn 1 0 0
vn 0 0 1
vn -1 0 0
vn 0 1 0
vn 0 -1 0
usemtl m_93064393-0add-ca65-e57e-d8c351095e93
f 196/580/145 199/579/145 197/578/145 194/577/145
f 195/584/146 196/583/146 194/582/146 193/581/146
f 200/588/147 195/587/147 193/586/147 198/585/147
f 199/592/148 200/591/148 198/590/148 197/589/148
f 198/596/149 193/595/149 194/594/149 197/593/149
f 199/600/150 196/599/150 195/598/150 200/597/150
o part_26_press_screw_collar
v 0.28593750 0.84375000 0.47812500
v 0.28593750 0.84375000 0.42812500
v 0.28593750 0.79375000 0.47812500
v 0.28593750 0.79375000 0.42812500
v 0.23906250 0.84375000 0.42812500
v 0.23906250 0.84375000 0.47812500
v 0.23906250 0.79375000 0.42812500
v 0.23906250 0.79375000 0.47812500
vt 0.25 0.75
vt 0.5 0.75
vt 0.5 0.5
vt 0.25 0.5
vt 0.25 0.75
vt 0.5 0.75
vt 0.5 0.5
vt 0.25 0.5
vt 0.25 0.75
vt 0.5 0.75
vt 0.5 0.5
vt 0.25 0.5
vt 0.25 0.75
vt 0.5 0.75
vt 0.5 0.5
vt 0.25 0.5
vt 0.25 0.75
vt 0.5 0.75
vt 0.5 0.5
vt 0.25 0.5
vt 0.25 0.75
vt 0.5 0.75
vt 0.5 0.5
vt 0.25 0.5
vn 0 0 -1
vn 1 0 0
vn 0 0 1
vn -1 0 0
vn 0 1 0
vn 0 -1 0
usemtl m_93064393-0add-ca65-e57e-d8c351095e93
f 204/604/151 207/603/151 205/602/151 202/601/151
f 203/608/152 204/607/152 202/606/152 201/605/152
f 208/612/153 203/611/153 201/610/153 206/609/153
f 207/616/154 208/615/154 206/614/154 205/613/154
f 206/620/155 201/619/155 202/618/155 205/617/155
f 207/624/156 204/623/156 203/622/156 208/621/156
o part_27_low_poly_eight_sided_press_barrel
v 0.26562500 0.53125000 0.45312500
v 0.26562500 0.65625000 0.45312500
v 0.35937500 0.53125000 0.45312500
v 0.35937500 0.65625000 0.45312500
v 0.33191626 0.53125000 0.51941626
v 0.33191626 0.65625000 0.51941626
v 0.26562500 0.53125000 0.54687500
v 0.26562500 0.65625000 0.54687500
v 0.19933374 0.53125000 0.51941626
v 0.19933374 0.65625000 0.51941626
v 0.17187500 0.53125000 0.45312500
v 0.17187500 0.65625000 0.45312500
v 0.19933374 0.53125000 0.38683374
v 0.19933374 0.65625000 0.38683374
v 0.26562500 0.53125000 0.35937500
v 0.26562500 0.65625000 0.35937500
v 0.33191626 0.53125000 0.38683374
v 0.33191626 0.65625000 0.38683374
vt 0.5 0.75
vt 0.25 0.75
vt 0.25 1
vt 0.5 1
vt 0.375 0.875
vt 0.4545495128834866 0.7954504871165133
vt 0.4875 0.875
vt 0.375 0.875
vt 0.4875 0.875
vt 0.4545495128834866 0.7954504871165133
vt 0.5 0.75
vt 0.25 0.75
vt 0.25 1
vt 0.5 1
vt 0.375 0.875
vt 0.375 0.7625
vt 0.4545495128834866 0.7954504871165133
vt 0.375 0.875
vt 0.4545495128834866 0.7954504871165133
vt 0.375 0.7625
vt 0.5 0.75
vt 0.25 0.75
vt 0.25 1
vt 0.5 1
vt 0.375 0.875
vt 0.2954504871165134 0.7954504871165133
vt 0.375 0.7625
vt 0.375 0.875
vt 0.375 0.7625
vt 0.2954504871165134 0.7954504871165133
vt 0.5 0.75
vt 0.25 0.75
vt 0.25 1
vt 0.5 1
vt 0.375 0.875
vt 0.2625 0.875
vt 0.2954504871165134 0.7954504871165133
vt 0.375 0.875
vt 0.2954504871165134 0.7954504871165133
vt 0.2625 0.875
vt 0.5 0.75
vt 0.25 0.75
vt 0.25 1
vt 0.5 1
vt 0.375 0.875
vt 0.2954504871165134 0.9545495128834866
vt 0.2625 0.875
vt 0.375 0.875
vt 0.2625 0.875
vt 0.2954504871165134 0.9545495128834866
vt 0.5 0.75
vt 0.25 0.75
vt 0.25 1
vt 0.5 1
vt 0.375 0.875
vt 0.375 0.9875
vt 0.2954504871165134 0.9545495128834866
vt 0.375 0.875
vt 0.2954504871165134 0.9545495128834866
vt 0.375 0.9875
vt 0.5 0.75
vt 0.25 0.75
vt 0.25 1
vt 0.5 1
vt 0.375 0.875
vt 0.45454951288348655 0.9545495128834867
vt 0.375 0.9875
vt 0.375 0.875
vt 0.375 0.9875
vt 0.45454951288348655 0.9545495128834867
vt 0.5 0.75
vt 0.25 0.75
vt 0.25 1
vt 0.5 1
vt 0.375 0.875
vt 0.4875 0.875
vt 0.45454951288348655 0.9545495128834867
vt 0.375 0.875
vt 0.45454951288348655 0.9545495128834867
vt 0.4875 0.875
vn 0.9238795325112868 0 0.3826834323650897
vn 0 1 0
vn 0 -1 0
vn 0.3826834323650898 0 0.9238795325112867
vn 0 1 0
vn 0 -1 0
vn -0.3826834323650897 0 0.9238795325112868
vn 0 1 0
vn 0 -1 0
vn -0.9238795325112867 0 0.38268343236508984
vn 0 1 0
vn 0 -1 0
vn -0.9238795325112868 0 -0.38268343236508967
vn 0 1 0
vn 0 -1 0
vn -0.38268343236508984 0 -0.9238795325112867
vn 0 1 0
vn 0 -1 0
vn 0.3826834323650897 0 -0.9238795325112868
vn 0 1 0
vn 0 -1 0
vn 0.9238795325112867 0 -0.38268343236509
vn 0 1 0
vn 0 -1 0
usemtl m_93064393-0add-ca65-e57e-d8c351095e93
f 213/625/157 211/626/157 212/627/157 214/628/157
f 210/629/158 214/630/158 212/631/158
f 209/632/159 211/633/159 213/634/159
f 215/635/160 213/636/160 214/637/160 216/638/160
f 210/639/161 216/640/161 214/641/161
f 209/642/162 213/643/162 215/644/162
f 217/645/163 215/646/163 216/647/163 218/648/163
f 210/649/164 218/650/164 216/651/164
f 209/652/165 215/653/165 217/654/165
f 219/655/166 217/656/166 218/657/166 220/658/166
f 210/659/167 220/660/167 218/661/167
f 209/662/168 217/663/168 219/664/168
f 221/665/169 219/666/169 220/667/169 222/668/169
f 210/669/170 222/670/170 220/671/170
f 209/672/171 219/673/171 221/674/171
f 223/675/172 221/676/172 222/677/172 224/678/172
f 210/679/173 224/680/173 222/681/173
f 209/682/174 221/683/174 223/684/174
f 225/685/175 223/686/175 224/687/175 226/688/175
f 210/689/176 226/690/176 224/691/176
f 209/692/177 223/693/177 225/694/177
f 211/695/178 225/696/178 226/697/178 212/698/178
f 210/699/179 212/700/179 226/701/179
f 209/702/180 225/703/180 211/704/180
o part_28_simple_press_spindle
v 0.27031250 0.90000000 0.46093750
v 0.27031250 0.90000000 0.44531250
v 0.27031250 0.68125000 0.46093750
v 0.27031250 0.68125000 0.44531250
v 0.25468750 0.90000000 0.44531250
v 0.25468750 0.90000000 0.46093750
v 0.25468750 0.68125000 0.44531250
v 0.25468750 0.68125000 0.46093750
vt 0 0.75
vt 0.25 0.75
vt 0.25 0.5
vt 0 0.5
vt 0 0.75
vt 0.25 0.75
vt 0.25 0.5
vt 0 0.5
vt 0 0.75
vt 0.25 0.75
vt 0.25 0.5
vt 0 0.5
vt 0 0.75
vt 0.25 0.75
vt 0.25 0.5
vt 0 0.5
vt 0 0.75
vt 0.25 0.75
vt 0.25 0.5
vt 0 0.5
vt 0 0.75
vt 0.25 0.75
vt 0.25 0.5
vt 0 0.5
vn 0 0 -1
vn 1 0 0
vn 0 0 1
vn -1 0 0
vn 0 1 0
vn 0 -1 0
usemtl m_93064393-0add-ca65-e57e-d8c351095e93
f 230/708/181 233/707/181 231/706/181 228/705/181
f 229/712/182 230/711/182 228/710/182 227/709/182
f 234/716/183 229/715/183 227/714/183 232/713/183
f 233/720/184 234/719/184 232/718/184 231/717/184
f 232/724/185 227/723/185 228/722/185 231/721/185
f 233/728/186 230/727/186 229/726/186 234/725/186
o part_29_single_crank_handle
v 0.35312500 0.90625000 0.46250000
v 0.35312500 0.90625000 0.44375000
v 0.35312500 0.89062500 0.46250000
v 0.35312500 0.89062500 0.44375000
v 0.17187500 0.90625000 0.44375000
v 0.17187500 0.90625000 0.46250000
v 0.17187500 0.89062500 0.44375000
v 0.17187500 0.89062500 0.46250000
vt 0.25 0.75
vt 0.5 0.75
vt 0.5 0.5
vt 0.25 0.5
vt 0.25 0.75
vt 0.5 0.75
vt 0.5 0.5
vt 0.25 0.5
vt 0.25 0.75
vt 0.5 0.75
vt 0.5 0.5
vt 0.25 0.5
vt 0.25 0.75
vt 0.5 0.75
vt 0.5 0.5
vt 0.25 0.5
vt 0.25 0.75
vt 0.5 0.75
vt 0.5 0.5
vt 0.25 0.5
vt 0.25 0.75
vt 0.5 0.75
vt 0.5 0.5
vt 0.25 0.5
vn 0 0 -1
vn 1 0 0
vn 0 0 1
vn -1 0 0
vn 0 1 0
vn 0 -1 0
usemtl m_93064393-0add-ca65-e57e-d8c351095e93
f 238/732/187 241/731/187 239/730/187 236/729/187
f 237/736/188 238/735/188 236/734/188 235/733/188
f 242/740/189 237/739/189 235/738/189 240/737/189
f 241/744/190 242/743/190 240/742/190 239/741/190
f 240/748/191 235/747/191 236/746/191 239/745/191
f 241/752/192 238/751/192 237/750/192 242/749/192
o part_30_wood_crank_grip_5_3
v 0.19062500 0.91000000 0.46500000
v 0.19062500 0.91000000 0.44125000
v 0.19062500 0.88593750 0.46500000
v 0.19062500 0.88593750 0.44125000
v 0.16562500 0.91000000 0.44125000
v 0.16562500 0.91000000 0.46500000
v 0.16562500 0.88593750 0.44125000
v 0.16562500 0.88593750 0.46500000
vt 0 1
vt 0.25 1
vt 0.25 0.75
vt 0 0.75
vt 0 1
vt 0.25 1
vt 0.25 0.75
vt 0 0.75
vt 0 1
vt 0.25 1
vt 0.25 0.75
vt 0 0.75
vt 0 1
vt 0.25 1
vt 0.25 0.75
vt 0 0.75
vt 0 1
vt 0.25 1
vt 0.25 0.75
vt 0 0.75
vt 0 1
vt 0.25 1
vt 0.25 0.75
vt 0 0.75
vn 0 0 -1
vn 1 0 0
vn 0 0 1
vn -1 0 0
vn 0 1 0
vn 0 -1 0
usemtl m_93064393-0add-ca65-e57e-d8c351095e93
f 246/756/193 249/755/193 247/754/193 244/753/193
f 245/760/194 246/759/194 244/758/194 243/757/194
f 250/764/195 245/763/195 243/762/195 248/761/195
f 249/768/196 250/767/196 248/766/196 247/765/196
f 248/772/197 243/771/197 244/770/197 247/769/197
f 249/776/198 246/775/198 245/774/198 250/773/198
o part_31_wood_crank_grip_10_7
v 0.35937500 0.91000000 0.46500000
v 0.35937500 0.91000000 0.44125000
v 0.35937500 0.88593750 0.46500000
v 0.35937500 0.88593750 0.44125000
v 0.33437500 0.91000000 0.44125000
v 0.33437500 0.91000000 0.46500000
v 0.33437500 0.88593750 0.44125000
v 0.33437500 0.88593750 0.46500000
vt 0 1
vt 0.25 1
vt 0.25 0.75
vt 0 0.75
vt 0 1
vt 0.25 1
vt 0.25 0.75
vt 0 0.75
vt 0 1
vt 0.25 1
vt 0.25 0.75
vt 0 0.75
vt 0 1
vt 0.25 1
vt 0.25 0.75
vt 0 0.75
vt 0 1
vt 0.25 1
vt 0.25 0.75
vt 0 0.75
vt 0 1
vt 0.25 1
vt 0.25 0.75
vt 0 0.75
vn 0 0 -1
vn 1 0 0
vn 0 0 1
vn -1 0 0
vn 0 1 0
vn 0 -1 0
usemtl m_93064393-0add-ca65-e57e-d8c351095e93
f 254/780/199 257/779/199 255/778/199 252/777/199
f 253/784/200 254/783/200 252/782/200 251/781/200
f 258/788/201 253/787/201 251/786/201 256/785/201
f 257/792/202 258/791/202 256/790/202 255/789/202
f 256/796/203 251/795/203 252/794/203 255/793/203
f 257/800/204 254/799/204 253/798/204 258/797/204
o part_32_rounded_eight_sided_pressing_plate
v 0.26562500 0.65625000 0.45312500
v 0.26562500 0.68437500 0.45312500
v 0.33125000 0.65625000 0.45312500
v 0.33125000 0.68437500 0.45312500
v 0.31202888 0.65625000 0.49952889
v 0.31202888 0.68437500 0.49952889
v 0.26562500 0.65625000 0.51875000
v 0.26562500 0.68437500 0.51875000
v 0.21922111 0.65625000 0.49952889
v 0.21922111 0.68437500 0.49952889
v 0.20000000 0.65625000 0.45312500
v 0.20000000 0.68437500 0.45312500
v 0.21922111 0.65625000 0.40672111
v 0.21922111 0.68437500 0.40672111
v 0.26562500 0.65625000 0.38750000
v 0.26562500 0.68437500 0.38750000
v 0.31202888 0.65625000 0.40672111
v 0.31202888 0.68437500 0.40672111
vt 0.5 0.75
vt 0.25 0.75
vt 0.25 1
vt 0.5 1
vt 0.375 0.875
vt 0.4545495128834866 0.7954504871165133
vt 0.4875 0.875
vt 0.375 0.875
vt 0.4875 0.875
vt 0.4545495128834866 0.7954504871165133
vt 0.5 0.75
vt 0.25 0.75
vt 0.25 1
vt 0.5 1
vt 0.375 0.875
vt 0.375 0.7625
vt 0.4545495128834866 0.7954504871165133
vt 0.375 0.875
vt 0.4545495128834866 0.7954504871165133
vt 0.375 0.7625
vt 0.5 0.75
vt 0.25 0.75
vt 0.25 1
vt 0.5 1
vt 0.375 0.875
vt 0.2954504871165134 0.7954504871165133
vt 0.375 0.7625
vt 0.375 0.875
vt 0.375 0.7625
vt 0.2954504871165134 0.7954504871165133
vt 0.5 0.75
vt 0.25 0.75
vt 0.25 1
vt 0.5 1
vt 0.375 0.875
vt 0.2625 0.875
vt 0.2954504871165134 0.7954504871165133
vt 0.375 0.875
vt 0.2954504871165134 0.7954504871165133
vt 0.2625 0.875
vt 0.5 0.75
vt 0.25 0.75
vt 0.25 1
vt 0.5 1
vt 0.375 0.875
vt 0.2954504871165134 0.9545495128834866
vt 0.2625 0.875
vt 0.375 0.875
vt 0.2625 0.875
vt 0.2954504871165134 0.9545495128834866
vt 0.5 0.75
vt 0.25 0.75
vt 0.25 1
vt 0.5 1
vt 0.375 0.875
vt 0.375 0.9875
vt 0.2954504871165134 0.9545495128834866
vt 0.375 0.875
vt 0.2954504871165134 0.9545495128834866
vt 0.375 0.9875
vt 0.5 0.75
vt 0.25 0.75
vt 0.25 1
vt 0.5 1
vt 0.375 0.875
vt 0.45454951288348655 0.9545495128834867
vt 0.375 0.9875
vt 0.375 0.875
vt 0.375 0.9875
vt 0.45454951288348655 0.9545495128834867
vt 0.5 0.75
vt 0.25 0.75
vt 0.25 1
vt 0.5 1
vt 0.375 0.875
vt 0.4875 0.875
vt 0.45454951288348655 0.9545495128834867
vt 0.375 0.875
vt 0.45454951288348655 0.9545495128834867
vt 0.4875 0.875
vn 0.9238795325112868 0 0.3826834323650896
vn 0 1 0
vn 0 -1 0
vn 0.3826834323650897 0 0.9238795325112867
vn 0 1 0
vn 0 -1 0
vn -0.3826834323650896 0 0.923879532511287
vn 0 1 0
vn 0 -1 0
vn -0.9238795325112867 0 0.3826834323650897
vn 0 1 0
vn 0 -1 0
vn -0.923879532511287 0 -0.3826834323650896
vn 0 1 0
vn 0 -1 0
vn -0.3826834323650898 0 -0.9238795325112867
vn 0 1 0
vn 0 -1 0
vn 0.3826834323650896 0 -0.923879532511287
vn 0 1 0
vn 0 -1 0
vn 0.9238795325112867 0 -0.38268343236508984
vn 0 1 0
vn 0 -1 0
usemtl m_93064393-0add-ca65-e57e-d8c351095e93
f 263/801/205 261/802/205 262/803/205 264/804/205
f 260/805/206 264/806/206 262/807/206
f 259/808/207 261/809/207 263/810/207
f 265/811/208 263/812/208 264/813/208 266/814/208
f 260/815/209 266/816/209 264/817/209
f 259/818/210 263/819/210 265/820/210
f 267/821/211 265/822/211 266/823/211 268/824/211
f 260/825/212 268/826/212 266/827/212
f 259/828/213 265/829/213 267/830/213
f 269/831/214 267/832/214 268/833/214 270/834/214
f 260/835/215 270/836/215 268/837/215
f 259/838/216 267/839/216 269/840/216
f 271/841/217 269/842/217 270/843/217 272/844/217
f 260/845/218 272/846/218 270/847/218
f 259/848/219 269/849/219 271/850/219
f 273/851/220 271/852/220 272/853/220 274/854/220
f 260/855/221 274/856/221 272/857/221
f 259/858/222 271/859/222 273/860/222
f 275/861/223 273/862/223 274/863/223 276/864/223
f 260/865/224 276/866/224 274/867/224
f 259/868/225 273/869/225 275/870/225
f 261/871/226 275/872/226 276/873/226 262/874/226
f 260/875/227 262/876/227 276/877/227
f 259/878/228 275/879/228 261/880/228
o part_33_juice_bottle_body_0
v 0.65937500 0.60312500 0.41250000
v 0.65937500 0.60312500 0.34375000
v 0.65937500 0.50000000 0.41250000
v 0.65937500 0.50000000 0.34375000
v 0.59062500 0.60312500 0.34375000
v 0.59062500 0.60312500 0.41250000
v 0.59062500 0.50000000 0.34375000
v 0.59062500 0.50000000 0.41250000
vt 0.75 0.75
vt 1 0.75
vt 1 0.5
vt 0.75 0.5
vt 0.75 0.75
vt 1 0.75
vt 1 0.5
vt 0.75 0.5
vt 0.75 0.75
vt 1 0.75
vt 1 0.5
vt 0.75 0.5
vt 0.75 0.75
vt 1 0.75
vt 1 0.5
vt 0.75 0.5
vt 0.75 0.75
vt 1 0.75
vt 1 0.5
vt 0.75 0.5
vt 0.75 0.75
vt 1 0.75
vt 1 0.5
vt 0.75 0.5
vn 0 0 -1
vn 1 0 0
vn 0 0 1
vn -1 0 0
vn 0 1 0
vn 0 -1 0
usemtl m_93064393-0add-ca65-e57e-d8c351095e93
f 280/884/229 283/883/229 281/882/229 278/881/229
f 279/888/230 280/887/230 278/886/230 277/885/230
f 284/892/231 279/891/231 277/890/231 282/889/231
f 283/896/232 284/895/232 282/894/232 281/893/232
f 282/900/233 277/899/233 278/898/233 281/897/233
f 283/904/234 280/903/234 279/902/234 284/901/234
o part_34_juice_bottle_neck_0
v 0.63906250 0.63593750 0.39218750
v 0.63906250 0.63593750 0.36406250
v 0.63906250 0.60312500 0.39218750
v 0.63906250 0.60312500 0.36406250
v 0.61093750 0.63593750 0.36406250
v 0.61093750 0.63593750 0.39218750
v 0.61093750 0.60312500 0.36406250
v 0.61093750 0.60312500 0.39218750
vt 0.5 0.75
vt 0.75 0.75
vt 0.75 0.5
vt 0.5 0.5
vt 0.5 0.75
vt 0.75 0.75
vt 0.75 0.5
vt 0.5 0.5
vt 0.5 0.75
vt 0.75 0.75
vt 0.75 0.5
vt 0.5 0.5
vt 0.5 0.75
vt 0.75 0.75
vt 0.75 0.5
vt 0.5 0.5
vt 0.5 0.75
vt 0.75 0.75
vt 0.75 0.5
vt 0.5 0.5
vt 0.5 0.75
vt 0.75 0.75
vt 0.75 0.5
vt 0.5 0.5
vn 0 0 -1
vn 1 0 0
vn 0 0 1
vn -1 0 0
vn 0 1 0
vn 0 -1 0
usemtl m_93064393-0add-ca65-e57e-d8c351095e93
f 288/908/235 291/907/235 289/906/235 286/905/235
f 287/912/236 288/911/236 286/910/236 285/909/236
f 292/916/237 287/915/237 285/914/237 290/913/237
f 291/920/238 292/919/238 290/918/238 289/917/238
f 290/924/239 285/923/239 286/922/239 289/921/239
f 291/928/240 288/927/240 287/926/240 292/925/240
o part_35_juice_bottle_stopper_0
v 0.64218750 0.65156250 0.39531250
v 0.64218750 0.65156250 0.36093750
v 0.64218750 0.63593750 0.39531250
v 0.64218750 0.63593750 0.36093750
v 0.60781250 0.65156250 0.36093750
v 0.60781250 0.65156250 0.39531250
v 0.60781250 0.63593750 0.36093750
v 0.60781250 0.63593750 0.39531250
vt 0.25 1
vt 0.5 1
vt 0.5 0.75
vt 0.25 0.75
vt 0.25 1
vt 0.5 1
vt 0.5 0.75
vt 0.25 0.75
vt 0.25 1
vt 0.5 1
vt 0.5 0.75
vt 0.25 0.75
vt 0.25 1
vt 0.5 1
vt 0.5 0.75
vt 0.25 0.75
vt 0.25 1
vt 0.5 1
vt 0.5 0.75
vt 0.25 0.75
vt 0.25 1
vt 0.5 1
vt 0.5 0.75
vt 0.25 0.75
vn 0 0 -1
vn 1 0 0
vn 0 0 1
vn -1 0 0
vn 0 1 0
vn 0 -1 0
usemtl m_93064393-0add-ca65-e57e-d8c351095e93
f 296/932/241 299/931/241 297/930/241 294/929/241
f 295/936/242 296/935/242 294/934/242 293/933/242
f 300/940/243 295/939/243 293/938/243 298/937/243
f 299/944/244 300/943/244 298/942/244 297/941/244
f 298/948/245 293/947/245 294/946/245 297/945/245
f 299/952/246 296/951/246 295/950/246 300/949/246
o part_36_simple_fruit_label_0
v 0.65000000 0.58437500 0.41390625
v 0.65000000 0.58437500 0.41265625
v 0.65000000 0.52187500 0.41390625
v 0.65000000 0.52187500 0.41265625
v 0.60000000 0.58437500 0.41265625
v 0.60000000 0.58437500 0.41390625
v 0.60000000 0.52187500 0.41265625
v 0.60000000 0.52187500 0.41390625
vt 0.75 0.5
vt 1 0.5
vt 1 0.25
vt 0.75 0.25
vt 0.75 0.5
vt 1 0.5
vt 1 0.25
vt 0.75 0.25
vt 0.75 0.5
vt 1 0.5
vt 1 0.25
vt 0.75 0.25
vt 0.75 0.5
vt 1 0.5
vt 1 0.25
vt 0.75 0.25
vt 0.75 0.5
vt 1 0.5
vt 1 0.25
vt 0.75 0.25
vt 0.75 0.5
vt 1 0.5
vt 1 0.25
vt 0.75 0.25
vn 0 0 -1
vn 1 0 0
vn 0 0 1
vn -1 0 0
vn 0 1 0
vn 0 -1 0
usemtl m_93064393-0add-ca65-e57e-d8c351095e93
f 304/956/247 307/955/247 305/954/247 302/953/247
f 303/960/248 304/959/248 302/958/248 301/957/248
f 308/964/249 303/963/249 301/962/249 306/961/249
f 307/968/250 308/967/250 306/966/250 305/965/250
f 306/972/251 301/971/251 302/970/251 305/969/251
f 307/976/252 304/975/252 303/974/252 308/973/252
o part_37_juice_bottle_body_1
v 0.78437500 0.60312500 0.41250000
v 0.78437500 0.60312500 0.34375000
v 0.78437500 0.50000000 0.41250000
v 0.78437500 0.50000000 0.34375000
v 0.71562500 0.60312500 0.34375000
v 0.71562500 0.60312500 0.41250000
v 0.71562500 0.50000000 0.34375000
v 0.71562500 0.50000000 0.41250000
vt 0 0.5
vt 0.25 0.5
vt 0.25 0.25
vt 0 0.25
vt 0 0.5
vt 0.25 0.5
vt 0.25 0.25
vt 0 0.25
vt 0 0.5
vt 0.25 0.5
vt 0.25 0.25
vt 0 0.25
vt 0 0.5
vt 0.25 0.5
vt 0.25 0.25
vt 0 0.25
vt 0 0.5
vt 0.25 0.5
vt 0.25 0.25
vt 0 0.25
vt 0 0.5
vt 0.25 0.5
vt 0.25 0.25
vt 0 0.25
vn 0 0 -1
vn 1 0 0
vn 0 0 1
vn -1 0 0
vn 0 1 0
vn 0 -1 0
usemtl m_93064393-0add-ca65-e57e-d8c351095e93
f 312/980/253 315/979/253 313/978/253 310/977/253
f 311/984/254 312/983/254 310/982/254 309/981/254
f 316/988/255 311/987/255 309/986/255 314/985/255
f 315/992/256 316/991/256 314/990/256 313/989/256
f 314/996/257 309/995/257 310/994/257 313/993/257
f 315/1000/258 312/999/258 311/998/258 316/997/258
o part_38_juice_bottle_neck_1
v 0.76406250 0.63593750 0.39218750
v 0.76406250 0.63593750 0.36406250
v 0.76406250 0.60312500 0.39218750
v 0.76406250 0.60312500 0.36406250
v 0.73593750 0.63593750 0.36406250
v 0.73593750 0.63593750 0.39218750
v 0.73593750 0.60312500 0.36406250
v 0.73593750 0.60312500 0.39218750
vt 0.5 0.75
vt 0.75 0.75
vt 0.75 0.5
vt 0.5 0.5
vt 0.5 0.75
vt 0.75 0.75
vt 0.75 0.5
vt 0.5 0.5
vt 0.5 0.75
vt 0.75 0.75
vt 0.75 0.5
vt 0.5 0.5
vt 0.5 0.75
vt 0.75 0.75
vt 0.75 0.5
vt 0.5 0.5
vt 0.5 0.75
vt 0.75 0.75
vt 0.75 0.5
vt 0.5 0.5
vt 0.5 0.75
vt 0.75 0.75
vt 0.75 0.5
vt 0.5 0.5
vn 0 0 -1
vn 1 0 0
vn 0 0 1
vn -1 0 0
vn 0 1 0
vn 0 -1 0
usemtl m_93064393-0add-ca65-e57e-d8c351095e93
f 320/1004/259 323/1003/259 321/1002/259 318/1001/259
f 319/1008/260 320/1007/260 318/1006/260 317/1005/260
f 324/1012/261 319/1011/261 317/1010/261 322/1009/261
f 323/1016/262 324/1015/262 322/1014/262 321/1013/262
f 322/1020/263 317/1019/263 318/1018/263 321/1017/263
f 323/1024/264 320/1023/264 319/1022/264 324/1021/264
o part_39_juice_bottle_stopper_1
v 0.76718750 0.65156250 0.39531250
v 0.76718750 0.65156250 0.36093750
v 0.76718750 0.63593750 0.39531250
v 0.76718750 0.63593750 0.36093750
v 0.73281250 0.65156250 0.36093750
v 0.73281250 0.65156250 0.39531250
v 0.73281250 0.63593750 0.36093750
v 0.73281250 0.63593750 0.39531250
vt 0.25 1
vt 0.5 1
vt 0.5 0.75
vt 0.25 0.75
vt 0.25 1
vt 0.5 1
vt 0.5 0.75
vt 0.25 0.75
vt 0.25 1
vt 0.5 1
vt 0.5 0.75
vt 0.25 0.75
vt 0.25 1
vt 0.5 1
vt 0.5 0.75
vt 0.25 0.75
vt 0.25 1
vt 0.5 1
vt 0.5 0.75
vt 0.25 0.75
vt 0.25 1
vt 0.5 1
vt 0.5 0.75
vt 0.25 0.75
vn 0 0 -1
vn 1 0 0
vn 0 0 1
vn -1 0 0
vn 0 1 0
vn 0 -1 0
usemtl m_93064393-0add-ca65-e57e-d8c351095e93
f 328/1028/265 331/1027/265 329/1026/265 326/1025/265
f 327/1032/266 328/1031/266 326/1030/266 325/1029/266
f 332/1036/267 327/1035/267 325/1034/267 330/1033/267
f 331/1040/268 332/1039/268 330/1038/268 329/1037/268
f 330/1044/269 325/1043/269 326/1042/269 329/1041/269
f 331/1048/270 328/1047/270 327/1046/270 332/1045/270
o part_40_simple_fruit_label_1
v 0.77500000 0.58437500 0.41390625
v 0.77500000 0.58437500 0.41265625
v 0.77500000 0.52187500 0.41390625
v 0.77500000 0.52187500 0.41265625
v 0.72500000 0.58437500 0.41265625
v 0.72500000 0.58437500 0.41390625
v 0.72500000 0.52187500 0.41265625
v 0.72500000 0.52187500 0.41390625
vt 0 0.25
vt 0.25 0.25
vt 0.25 0
vt 0 0
vt 0 0.25
vt 0.25 0.25
vt 0.25 0
vt 0 0
vt 0 0.25
vt 0.25 0.25
vt 0.25 0
vt 0 0
vt 0 0.25
vt 0.25 0.25
vt 0.25 0
vt 0 0
vt 0 0.25
vt 0.25 0.25
vt 0.25 0
vt 0 0
vt 0 0.25
vt 0.25 0.25
vt 0.25 0
vt 0 0
vn 0 0 -1
vn 1 0 0
vn 0 0 1
vn -1 0 0
vn 0 1 0
vn 0 -1 0
usemtl m_93064393-0add-ca65-e57e-d8c351095e93
f 336/1052/271 339/1051/271 337/1050/271 334/1049/271
f 335/1056/272 336/1055/272 334/1054/272 333/1053/272
f 340/1060/273 335/1059/273 333/1058/273 338/1057/273
f 339/1064/274 340/1063/274 338/1062/274 337/1061/274
f 338/1068/275 333/1067/275 334/1066/275 337/1065/275
f 339/1072/276 336/1071/276 335/1070/276 340/1069/276
o part_41_juice_bottle_body_2
v 0.90937500 0.60312500 0.41250000
v 0.90937500 0.60312500 0.34375000
v 0.90937500 0.50000000 0.41250000
v 0.90937500 0.50000000 0.34375000
v 0.84062500 0.60312500 0.34375000
v 0.84062500 0.60312500 0.41250000
v 0.84062500 0.50000000 0.34375000
v 0.84062500 0.50000000 0.41250000
vt 0.25 0.5
vt 0.5 0.5
vt 0.5 0.25
vt 0.25 0.25
vt 0.25 0.5
vt 0.5 0.5
vt 0.5 0.25
vt 0.25 0.25
vt 0.25 0.5
vt 0.5 0.5
vt 0.5 0.25
vt 0.25 0.25
vt 0.25 0.5
vt 0.5 0.5
vt 0.5 0.25
vt 0.25 0.25
vt 0.25 0.5
vt 0.5 0.5
vt 0.5 0.25
vt 0.25 0.25
vt 0.25 0.5
vt 0.5 0.5
vt 0.5 0.25
vt 0.25 0.25
vn 0 0 -1
vn 1 0 0
vn 0 0 1
vn -1 0 0
vn 0 1 0
vn 0 -1 0
usemtl m_93064393-0add-ca65-e57e-d8c351095e93
f 344/1076/277 347/1075/277 345/1074/277 342/1073/277
f 343/1080/278 344/1079/278 342/1078/278 341/1077/278
f 348/1084/279 343/1083/279 341/1082/279 346/1081/279
f 347/1088/280 348/1087/280 346/1086/280 345/1085/280
f 346/1092/281 341/1091/281 342/1090/281 345/1089/281
f 347/1096/282 344/1095/282 343/1094/282 348/1093/282
o part_42_juice_bottle_neck_2
v 0.88906250 0.63593750 0.39218750
v 0.88906250 0.63593750 0.36406250
v 0.88906250 0.60312500 0.39218750
v 0.88906250 0.60312500 0.36406250
v 0.86093750 0.63593750 0.36406250
v 0.86093750 0.63593750 0.39218750
v 0.86093750 0.60312500 0.36406250
v 0.86093750 0.60312500 0.39218750
vt 0.5 0.75
vt 0.75 0.75
vt 0.75 0.5
vt 0.5 0.5
vt 0.5 0.75
vt 0.75 0.75
vt 0.75 0.5
vt 0.5 0.5
vt 0.5 0.75
vt 0.75 0.75
vt 0.75 0.5
vt 0.5 0.5
vt 0.5 0.75
vt 0.75 0.75
vt 0.75 0.5
vt 0.5 0.5
vt 0.5 0.75
vt 0.75 0.75
vt 0.75 0.5
vt 0.5 0.5
vt 0.5 0.75
vt 0.75 0.75
vt 0.75 0.5
vt 0.5 0.5
vn 0 0 -1
vn 1 0 0
vn 0 0 1
vn -1 0 0
vn 0 1 0
vn 0 -1 0
usemtl m_93064393-0add-ca65-e57e-d8c351095e93
f 352/1100/283 355/1099/283 353/1098/283 350/1097/283
f 351/1104/284 352/1103/284 350/1102/284 349/1101/284
f 356/1108/285 351/1107/285 349/1106/285 354/1105/285
f 355/1112/286 356/1111/286 354/1110/286 353/1109/286
f 354/1116/287 349/1115/287 350/1114/287 353/1113/287
f 355/1120/288 352/1119/288 351/1118/288 356/1117/288
o part_43_juice_bottle_stopper_2
v 0.89218750 0.65156250 0.39531250
v 0.89218750 0.65156250 0.36093750
v 0.89218750 0.63593750 0.39531250
v 0.89218750 0.63593750 0.36093750
v 0.85781250 0.65156250 0.36093750
v 0.85781250 0.65156250 0.39531250
v 0.85781250 0.63593750 0.36093750
v 0.85781250 0.63593750 0.39531250
vt 0.25 1
vt 0.5 1
vt 0.5 0.75
vt 0.25 0.75
vt 0.25 1
vt 0.5 1
vt 0.5 0.75
vt 0.25 0.75
vt 0.25 1
vt 0.5 1
vt 0.5 0.75
vt 0.25 0.75
vt 0.25 1
vt 0.5 1
vt 0.5 0.75
vt 0.25 0.75
vt 0.25 1
vt 0.5 1
vt 0.5 0.75
vt 0.25 0.75
vt 0.25 1
vt 0.5 1
vt 0.5 0.75
vt 0.25 0.75
vn 0 0 -1
vn 1 0 0
vn 0 0 1
vn -1 0 0
vn 0 1 0
vn 0 -1 0
usemtl m_93064393-0add-ca65-e57e-d8c351095e93
f 360/1124/289 363/1123/289 361/1122/289 358/1121/289
f 359/1128/290 360/1127/290 358/1126/290 357/1125/290
f 364/1132/291 359/1131/291 357/1130/291 362/1129/291
f 363/1136/292 364/1135/292 362/1134/292 361/1133/292
f 362/1140/293 357/1139/293 358/1138/293 361/1137/293
f 363/1144/294 360/1143/294 359/1142/294 364/1141/294
o part_44_simple_fruit_label_2
v 0.90000000 0.58437500 0.41390625
v 0.90000000 0.58437500 0.41265625
v 0.90000000 0.52187500 0.41390625
v 0.90000000 0.52187500 0.41265625
v 0.85000000 0.58437500 0.41265625
v 0.85000000 0.58437500 0.41390625
v 0.85000000 0.52187500 0.41265625
v 0.85000000 0.52187500 0.41390625
vt 0.25 0.25
vt 0.5 0.25
vt 0.5 0
vt 0.25 0
vt 0.25 0.25
vt 0.5 0.25
vt 0.5 0
vt 0.25 0
vt 0.25 0.25
vt 0.5 0.25
vt 0.5 0
vt 0.25 0
vt 0.25 0.25
vt 0.5 0.25
vt 0.5 0
vt 0.25 0
vt 0.25 0.25
vt 0.5 0.25
vt 0.5 0
vt 0.25 0
vt 0.25 0.25
vt 0.5 0.25
vt 0.5 0
vt 0.25 0
vn 0 0 -1
vn 1 0 0
vn 0 0 1
vn -1 0 0
vn 0 1 0
vn 0 -1 0
usemtl m_93064393-0add-ca65-e57e-d8c351095e93
f 368/1148/295 371/1147/295 369/1146/295 366/1145/295
f 367/1152/296 368/1151/296 366/1150/296 365/1149/296
f 372/1156/297 367/1155/297 365/1154/297 370/1153/297
f 371/1160/298 372/1159/298 370/1158/298 369/1157/298
f 370/1164/299 365/1163/299 366/1162/299 369/1161/299
f 371/1168/300 368/1167/300 367/1166/300 372/1165/300
o part_45_single_juice_spout
v 0.27812500 0.54843750 0.60312500
v 0.27812500 0.54843750 0.54062500
v 0.27812500 0.53437500 0.60312500
v 0.27812500 0.53437500 0.54062500
v 0.25312500 0.54843750 0.54062500
v 0.25312500 0.54843750 0.60312500
v 0.25312500 0.53437500 0.54062500
v 0.25312500 0.53437500 0.60312500
vt 0.25 0.75
vt 0.5 0.75
vt 0.5 0.5
vt 0.25 0.5
vt 0.25 0.75
vt 0.5 0.75
vt 0.5 0.5
vt 0.25 0.5
vt 0.25 0.75
vt 0.5 0.75
vt 0.5 0.5
vt 0.25 0.5
vt 0.25 0.75
vt 0.5 0.75
vt 0.5 0.5
vt 0.25 0.5
vt 0.25 0.75
vt 0.5 0.75
vt 0.5 0.5
vt 0.25 0.5
vt 0.25 0.75
vt 0.5 0.75
vt 0.5 0.5
vt 0.25 0.5
vn 0 0 -1
vn 1 0 0
vn 0 0 1
vn -1 0 0
vn 0 1 0
vn 0 -1 0
usemtl m_93064393-0add-ca65-e57e-d8c351095e93
f 376/1172/301 379/1171/301 377/1170/301 374/1169/301
f 375/1176/302 376/1175/302 374/1174/302 373/1173/302
f 380/1180/303 375/1179/303 373/1178/303 378/1177/303
f 379/1184/304 380/1183/304 378/1182/304 377/1181/304
f 378/1188/305 373/1187/305 374/1186/305 377/1185/305
f 379/1192/306 376/1191/306 375/1190/306 380/1189/306
o part_46_simple_collection_cup
v 0.30312500 0.55937500 0.65937500
v 0.30312500 0.55937500 0.58437500
v 0.30312500 0.50000000 0.65937500
v 0.30312500 0.50000000 0.58437500
v 0.22812500 0.55937500 0.58437500
v 0.22812500 0.55937500 0.65937500
v 0.22812500 0.50000000 0.58437500
v 0.22812500 0.50000000 0.65937500
vt 0.75 1
vt 1 1
vt 1 0.75
vt 0.75 0.75
vt 0.75 1
vt 1 1
vt 1 0.75
vt 0.75 0.75
vt 0.75 1
vt 1 1
vt 1 0.75
vt 0.75 0.75
vt 0.75 1
vt 1 1
vt 1 0.75
vt 0.75 0.75
vt 0.75 0.75
vt 1 0.75
vt 1 0.5
vt 0.75 0.5
vt 0.75 1
vt 1 1
vt 1 0.75
vt 0.75 0.75
vn 0 0 -1
vn 1 0 0
vn 0 0 1
vn -1 0 0
vn 0 1 0
vn 0 -1 0
usemtl m_93064393-0add-ca65-e57e-d8c351095e93
f 384/1196/307 387/1195/307 385/1194/307 382/1193/307
f 383/1200/308 384/1199/308 382/1198/308 381/1197/308
f 388/1204/309 383/1203/309 381/1202/309 386/1201/309
f 387/1208/310 388/1207/310 386/1206/310 385/1205/310
f 386/1212/311 381/1211/311 382/1210/311 385/1209/311
f 387/1216/312 384/1215/312 383/1214/312 388/1213/312
o part_47_collection_cup_handle
v 0.32343750 0.54687500 0.63750000
v 0.32343750 0.54687500 0.60468750
v 0.32343750 0.51875000 0.63750000
v 0.32343750 0.51875000 0.60468750
v 0.30250000 0.54687500 0.60468750
v 0.30250000 0.54687500 0.63750000
v 0.30250000 0.51875000 0.60468750
v 0.30250000 0.51875000 0.63750000
vt 0.75 1
vt 1 1
vt 1 0.75
vt 0.75 0.75
vt 0.75 1
vt 1 1
vt 1 0.75
vt 0.75 0.75
vt 0.75 1
vt 1 1
vt 1 0.75
vt 0.75 0.75
vt 0.75 1
vt 1 1
vt 1 0.75
vt 0.75 0.75
vt 0.75 1
vt 1 1
vt 1 0.75
vt 0.75 0.75
vt 0.75 1
vt 1 1
vt 1 0.75
vt 0.75 0.75
vn 0 0 -1
vn 1 0 0
vn 0 0 1
vn -1 0 0
vn 0 1 0
vn 0 -1 0
usemtl m_93064393-0add-ca65-e57e-d8c351095e93
f 392/1220/313 395/1219/313 393/1218/313 390/1217/313
f 391/1224/314 392/1223/314 390/1222/314 389/1221/314
f 396/1228/315 391/1227/315 389/1226/315 394/1225/315
f 395/1232/316 396/1231/316 394/1230/316 393/1229/316
f 394/1236/317 389/1235/317 390/1234/317 393/1233/317
f 395/1240/318 392/1239/318 391/1238/318 396/1237/318
o part_48_fruit_crate_base
v 0.20312500 0.51093750 0.70312500
v 0.20312500 0.51093750 0.59375000
v 0.20312500 0.50000000 0.70312500
v 0.20312500 0.50000000 0.59375000
v 0.04687500 0.51093750 0.59375000
v 0.04687500 0.51093750 0.70312500
v 0.04687500 0.50000000 0.59375000
v 0.04687500 0.50000000 0.70312500
vt 0.5 0.25
vt 0.75 0.25
vt 0.75 0
vt 0.5 0
vt 0.5 0.25
vt 0.75 0.25
vt 0.75 0
vt 0.5 0
vt 0.5 0.25
vt 0.75 0.25
vt 0.75 0
vt 0.5 0
vt 0.5 0.25
vt 0.75 0.25
vt 0.75 0
vt 0.5 0
vt 0.5 0.25
vt 0.75 0.25
vt 0.75 0
vt 0.5 0
vt 0.5 0.25
vt 0.75 0.25
vt 0.75 0
vt 0.5 0
vn 0 0 -1
vn 1 0 0
vn 0 0 1
vn -1 0 0
vn 0 1 0
vn 0 -1 0
usemtl m_93064393-0add-ca65-e57e-d8c351095e93
f 400/1244/319 403/1243/319 401/1242/319 398/1241/319
f 399/1248/320 400/1247/320 398/1246/320 397/1245/320
f 404/1252/321 399/1251/321 397/1250/321 402/1249/321
f 403/1256/322 404/1255/322 402/1254/322 401/1253/322
f 402/1260/323 397/1259/323 398/1258/323 401/1257/323
f 403/1264/324 400/1263/324 399/1262/324 404/1261/324
o part_49_fruit_crate_long_side_11
v 0.20312500 0.55000000 0.60312500
v 0.20312500 0.55000000 0.59375000
v 0.20312500 0.51093750 0.60312500
v 0.20312500 0.51093750 0.59375000
v 0.04687500 0.55000000 0.59375000
v 0.04687500 0.55000000 0.60312500
v 0.04687500 0.51093750 0.59375000
v 0.04687500 0.51093750 0.60312500
vt 0 1
vt 0.25 1
vt 0.25 0.75
vt 0 0.75
vt 0 1
vt 0.25 1
vt 0.25 0.75
vt 0 0.75
vt 0 1
vt 0.25 1
vt 0.25 0.75
vt 0 0.75
vt 0 1
vt 0.25 1
vt 0.25 0.75
vt 0 0.75
vt 0 1
vt 0.25 1
vt 0.25 0.75
vt 0 0.75
vt 0 1
vt 0.25 1
vt 0.25 0.75
vt 0 0.75
vn 0 0 -1
vn 1 0 0
vn 0 0 1
vn -1 0 0
vn 0 1 0
vn 0 -1 0
usemtl m_93064393-0add-ca65-e57e-d8c351095e93
f 408/1268/325 411/1267/325 409/1266/325 406/1265/325
f 407/1272/326 408/1271/326 406/1270/326 405/1269/326
f 412/1276/327 407/1275/327 405/1274/327 410/1273/327
f 411/1280/328 412/1279/328 410/1278/328 409/1277/328
f 410/1284/329 405/1283/329 406/1282/329 409/1281/329
f 411/1288/330 408/1287/330 407/1286/330 412/1285/330
o part_50_fruit_crate_long_side_14_2
v 0.20312500 0.55000000 0.70312500
v 0.20312500 0.55000000 0.69375000
v 0.20312500 0.51093750 0.70312500
v 0.20312500 0.51093750 0.69375000
v 0.04687500 0.55000000 0.69375000
v 0.04687500 0.55000000 0.70312500
v 0.04687500 0.51093750 0.69375000
v 0.04687500 0.51093750 0.70312500
vt 0 1
vt 0.25 1
vt 0.25 0.75
vt 0 0.75
vt 0 1
vt 0.25 1
vt 0.25 0.75
vt 0 0.75
vt 0 1
vt 0.25 1
vt 0.25 0.75
vt 0 0.75
vt 0 1
vt 0.25 1
vt 0.25 0.75
vt 0 0.75
vt 0 1
vt 0.25 1
vt 0.25 0.75
vt 0 0.75
vt 0 1
vt 0.25 1
vt 0.25 0.75
vt 0 0.75
vn 0 0 -1
vn 1 0 0
vn 0 0 1
vn -1 0 0
vn 0 1 0
vn 0 -1 0
usemtl m_93064393-0add-ca65-e57e-d8c351095e93
f 416/1292/331 419/1291/331 417/1290/331 414/1289/331
f 415/1296/332 416/1295/332 414/1294/332 413/1293/332
f 420/1300/333 415/1299/333 413/1298/333 418/1297/333
f 419/1304/334 420/1303/334 418/1302/334 417/1301/334
f 418/1308/335 413/1307/335 414/1306/335 417/1305/335
f 419/1312/336 416/1311/336 415/1310/336 420/1309/336
o part_51_fruit_crate_end_1_5
v 0.05625000 0.55000000 0.69375000
v 0.05625000 0.55000000 0.60312500
v 0.05625000 0.51093750 0.69375000
v 0.05625000 0.51093750 0.60312500
v 0.04687500 0.55000000 0.60312500
v 0.04687500 0.55000000 0.69375000
v 0.04687500 0.51093750 0.60312500
v 0.04687500 0.51093750 0.69375000
vt 0 1
vt 0.25 1
vt 0.25 0.75
vt 0 0.75
vt 0 1
vt 0.25 1
vt 0.25 0.75
vt 0 0.75
vt 0 1
vt 0.25 1
vt 0.25 0.75
vt 0 0.75
vt 0 1
vt 0.25 1
vt 0.25 0.75
vt 0 0.75
vt 0 1
vt 0.25 1
vt 0.25 0.75
vt 0 0.75
vt 0 1
vt 0.25 1
vt 0.25 0.75
vt 0 0.75
vn 0 0 -1
vn 1 0 0
vn 0 0 1
vn -1 0 0
vn 0 1 0
vn 0 -1 0
usemtl m_93064393-0add-ca65-e57e-d8c351095e93
f 424/1316/337 427/1315/337 425/1314/337 422/1313/337
f 423/1320/338 424/1319/338 422/1318/338 421/1317/338
f 428/1324/339 423/1323/339 421/1322/339 426/1321/339
f 427/1328/340 428/1327/340 426/1326/340 425/1325/340
f 426/1332/341 421/1331/341 422/1330/341 425/1329/341
f 427/1336/342 424/1335/342 423/1334/342 428/1333/342
o part_52_fruit_crate_end_6_2
v 0.20312500 0.55000000 0.69375000
v 0.20312500 0.55000000 0.60312500
v 0.20312500 0.51093750 0.69375000
v 0.20312500 0.51093750 0.60312500
v 0.19375000 0.55000000 0.60312500
v 0.19375000 0.55000000 0.69375000
v 0.19375000 0.51093750 0.60312500
v 0.19375000 0.51093750 0.69375000
vt 0 1
vt 0.25 1
vt 0.25 0.75
vt 0 0.75
vt 0 1
vt 0.25 1
vt 0.25 0.75
vt 0 0.75
vt 0 1
vt 0.25 1
vt 0.25 0.75
vt 0 0.75
vt 0 1
vt 0.25 1
vt 0.25 0.75
vt 0 0.75
vt 0 1
vt 0.25 1
vt 0.25 0.75
vt 0 0.75
vt 0 1
vt 0.25 1
vt 0.25 0.75
vt 0 0.75
vn 0 0 -1
vn 1 0 0
vn 0 0 1
vn -1 0 0
vn 0 1 0
vn 0 -1 0
usemtl m_93064393-0add-ca65-e57e-d8c351095e93
f 432/1340/343 435/1339/343 433/1338/343 430/1337/343
f 431/1344/344 432/1343/344 430/1342/344 429/1341/344
f 436/1348/345 431/1347/345 429/1346/345 434/1345/345
f 435/1352/346 436/1351/346 434/1350/346 433/1349/346
f 434/1356/347 429/1355/347 430/1354/347 433/1353/347
f 435/1360/348 432/1359/348 431/1358/348 436/1357/348
o part_53_fresh_orange
v 0.11093750 0.55625000 0.65781250
v 0.11093750 0.55625000 0.61718750
v 0.11093750 0.51562500 0.65781250
v 0.11093750 0.51562500 0.61718750
v 0.07031250 0.55625000 0.61718750
v 0.07031250 0.55625000 0.65781250
v 0.07031250 0.51562500 0.61718750
v 0.07031250 0.51562500 0.65781250
vt 0.75 0.75
vt 1 0.75
vt 1 0.5
vt 0.75 0.5
vt 0.75 0.75
vt 1 0.75
vt 1 0.5
vt 0.75 0.5
vt 0.75 0.75
vt 1 0.75
vt 1 0.5
vt 0.75 0.5
vt 0.75 0.75
vt 1 0.75
vt 1 0.5
vt 0.75 0.5
vt 0.75 0.75
vt 1 0.75
vt 1 0.5
vt 0.75 0.5
vt 0.75 0.75
vt 1 0.75
vt 1 0.5
vt 0.75 0.5
vn 0 0 -1
vn 1 0 0
vn 0 0 1
vn -1 0 0
vn 0 1 0
vn 0 -1 0
usemtl m_93064393-0add-ca65-e57e-d8c351095e93
f 440/1364/349 443/1363/349 441/1362/349 438/1361/349
f 439/1368/350 440/1367/350 438/1366/350 437/1365/350
f 444/1372/351 439/1371/351 437/1370/351 442/1369/351
f 443/1376/352 444/1375/352 442/1374/352 441/1373/352
f 442/1380/353 437/1379/353 438/1378/353 441/1377/353
f 443/1384/354 440/1383/354 439/1382/354 444/1381/354
o part_54_fresh_berry_cluster
v 0.15468750 0.55781250 0.67656250
v 0.15468750 0.55781250 0.64062500
v 0.15468750 0.51875000 0.67656250
v 0.15468750 0.51875000 0.64062500
v 0.11875000 0.55781250 0.64062500
v 0.11875000 0.55781250 0.67656250
v 0.11875000 0.51875000 0.64062500
v 0.11875000 0.51875000 0.67656250
vt 0 0.5
vt 0.25 0.5
vt 0.25 0.25
vt 0 0.25
vt 0 0.5
vt 0.25 0.5
vt 0.25 0.25
vt 0 0.25
vt 0 0.5
vt 0.25 0.5
vt 0.25 0.25
vt 0 0.25
vt 0 0.5
vt 0.25 0.5
vt 0.25 0.25
vt 0 0.25
vt 0 0.5
vt 0.25 0.5
vt 0.25 0.25
vt 0 0.25
vt 0 0.5
vt 0.25 0.5
vt 0.25 0.25
vt 0 0.25
vn 0 0 -1
vn 1 0 0
vn 0 0 1
vn -1 0 0
vn 0 1 0
vn 0 -1 0
usemtl m_93064393-0add-ca65-e57e-d8c351095e93
f 448/1388/355 451/1387/355 449/1386/355 446/1385/355
f 447/1392/356 448/1391/356 446/1390/356 445/1389/356
f 452/1396/357 447/1395/357 445/1394/357 450/1393/357
f 451/1400/358 452/1399/358 450/1398/358 449/1397/358
f 450/1404/359 445/1403/359 446/1402/359 449/1401/359
f 451/1408/360 448/1407/360 447/1406/360 452/1405/360
o part_55_fresh_green_apple
v 0.18750000 0.55937500 0.65312500
v 0.18750000 0.55937500 0.61406250
v 0.18750000 0.51562500 0.65312500
v 0.18750000 0.51562500 0.61406250
v 0.14843750 0.55937500 0.61406250
v 0.14843750 0.55937500 0.65312500
v 0.14843750 0.51562500 0.61406250
v 0.14843750 0.51562500 0.65312500
vt 0.25 0.5
vt 0.5 0.5
vt 0.5 0.25
vt 0.25 0.25
vt 0.25 0.5
vt 0.5 0.5
vt 0.5 0.25
vt 0.25 0.25
vt 0.25 0.5
vt 0.5 0.5
vt 0.5 0.25
vt 0.25 0.25
vt 0.25 0.5
vt 0.5 0.5
vt 0.5 0.25
vt 0.25 0.25
vt 0.25 0.5
vt 0.5 0.5
vt 0.5 0.25
vt 0.25 0.25
vt 0.25 0.5
vt 0.5 0.5
vt 0.5 0.25
vt 0.25 0.25
vn 0 0 -1
vn 1 0 0
vn 0 0 1
vn -1 0 0
vn 0 1 0
vn 0 -1 0
usemtl m_93064393-0add-ca65-e57e-d8c351095e93
f 456/1412/361 459/1411/361 457/1410/361 454/1409/361
f 455/1416/362 456/1415/362 454/1414/362 453/1413/362
f 460/1420/363 455/1419/363 453/1418/363 458/1417/363
f 459/1424/364 460/1423/364 458/1422/364 457/1421/364
f 458/1428/365 453/1427/365 454/1426/365 457/1425/365
f 459/1432/366 456/1431/366 455/1430/366 460/1429/366
o part_56_orange_leaf
v 0.11093750 0.56156250 0.64531250
v 0.11093750 0.56156250 0.63125000
v 0.11093750 0.55625000 0.64531250
v 0.11093750 0.55625000 0.63125000
v 0.08906250 0.56156250 0.63125000
v 0.08906250 0.56156250 0.64531250
v 0.08906250 0.55625000 0.63125000
v 0.08906250 0.55625000 0.64531250
vt 0.25 0.5
vt 0.5 0.5
vt 0.5 0.25
vt 0.25 0.25
vt 0.25 0.5
vt 0.5 0.5
vt 0.5 0.25
vt 0.25 0.25
vt 0.25 0.5
vt 0.5 0.5
vt 0.5 0.25
vt 0.25 0.25
vt 0.25 0.5
vt 0.5 0.5
vt 0.5 0.25
vt 0.25 0.25
vt 0.25 0.5
vt 0.5 0.5
vt 0.5 0.25
vt 0.25 0.25
vt 0.25 0.5
vt 0.5 0.5
vt 0.5 0.25
vt 0.25 0.25
vn 0 0 -1
vn 1 0 0
vn 0 0 1
vn -1 0 0
vn 0 1 0
vn 0 -1 0
usemtl m_93064393-0add-ca65-e57e-d8c351095e93
f 464/1436/367 467/1435/367 465/1434/367 462/1433/367
f 463/1440/368 464/1439/368 462/1438/368 461/1437/368
f 468/1444/369 463/1443/369 461/1442/369 466/1441/369
f 467/1448/370 468/1447/370 466/1446/370 465/1445/370
f 466/1452/371 461/1451/371 462/1450/371 465/1449/371
f 467/1456/372 464/1455/372 463/1454/372 468/1453/372
o part_57_apple_leaf
v 0.18593750 0.56468750 0.63750000
v 0.18593750 0.56468750 0.62500000
v 0.18593750 0.55937500 0.63750000
v 0.18593750 0.55937500 0.62500000
v 0.16250000 0.56468750 0.62500000
v 0.16250000 0.56468750 0.63750000
v 0.16250000 0.55937500 0.62500000
v 0.16250000 0.55937500 0.63750000
vt 0.25 0.5
vt 0.5 0.5
vt 0.5 0.25
vt 0.25 0.25
vt 0.25 0.5
vt 0.5 0.5
vt 0.5 0.25
vt 0.25 0.25
vt 0.25 0.5
vt 0.5 0.5
vt 0.5 0.25
vt 0.25 0.25
vt 0.25 0.5
vt 0.5 0.5
vt 0.5 0.25
vt 0.25 0.25
vt 0.25 0.5
vt 0.5 0.5
vt 0.5 0.25
vt 0.25 0.25
vt 0.25 0.5
vt 0.5 0.5
vt 0.5 0.25
vt 0.25 0.25
vn 0 0 -1
vn 1 0 0
vn 0 0 1
vn -1 0 0
vn 0 1 0
vn 0 -1 0
usemtl m_93064393-0add-ca65-e57e-d8c351095e93
f 472/1460/373 475/1459/373 473/1458/373 470/1457/373
f 471/1464/374 472/1463/374 470/1462/374 469/1461/374
f 476/1468/375 471/1467/375 469/1466/375 474/1465/375
f 475/1472/376 476/1471/376 474/1470/376 473/1469/376
f 474/1476/377 469/1475/377 470/1474/377 473/1473/377
f 475/1480/378 472/1479/378 471/1478/378 476/1477/378
o part_58_oak_chopping_board
v 0.65625000 0.51312500 0.70312500
v 0.65625000 0.51312500 0.56250000
v 0.65625000 0.50000000 0.70312500
v 0.65625000 0.50000000 0.56250000
v 0.43750000 0.51312500 0.56250000
v 0.43750000 0.51312500 0.70312500
v 0.43750000 0.50000000 0.56250000
v 0.43750000 0.50000000 0.70312500
vt 0.5 0.25
vt 0.75 0.25
vt 0.75 0
vt 0.5 0
vt 0.5 0.25
vt 0.75 0.25
vt 0.75 0
vt 0.5 0
vt 0.5 0.25
vt 0.75 0.25
vt 0.75 0
vt 0.5 0
vt 0.5 0.25
vt 0.75 0.25
vt 0.75 0
vt 0.5 0
vt 0.5 0.25
vt 0.75 0.25
vt 0.75 0
vt 0.5 0
vt 0.5 0.25
vt 0.75 0.25
vt 0.75 0
vt 0.5 0
vn 0 0 -1
vn 1 0 0
vn 0 0 1
vn -1 0 0
vn 0 1 0
vn 0 -1 0
usemtl m_93064393-0add-ca65-e57e-d8c351095e93
f 480/1484/379 483/1483/379 481/1482/379 478/1481/379
f 479/1488/380 480/1487/380 478/1486/380 477/1485/380
f 484/1492/381 479/1491/381 477/1490/381 482/1489/381
f 483/1496/382 484/1495/382 482/1494/382 481/1493/382
f 482/1500/383 477/1499/383 478/1498/383 481/1497/383
f 483/1504/384 480/1503/384 479/1502/384 484/1501/384
o part_59_knife_blade
v 0.59071202 0.51937500 0.66369396
v 0.59053477 0.51937500 0.64338224
v 0.59071202 0.51406250 0.66369396
v 0.59053477 0.51406250 0.64338224
v 0.50616297 0.51937500 0.64411854
v 0.50634024 0.51937500 0.66443027
v 0.50616297 0.51406250 0.64411854
v 0.50634024 0.51406250 0.66443027
vt 0 0.75
vt 0.25 0.75
vt 0.25 0.5
vt 0 0.5
vt 0 0.75
vt 0.25 0.75
vt 0.25 0.5
vt 0 0.5
vt 0 0.75
vt 0.25 0.75
vt 0.25 0.5
vt 0 0.5
vt 0 0.75
vt 0.25 0.75
vt 0.25 0.5
vt 0 0.5
vt 0 0.75
vt 0.25 0.75
vt 0.25 0.5
vt 0 0.5
vt 0 0.75
vt 0.25 0.75
vt 0.25 0.5
vt 0 0.5
vn -0.008726535498373935 0 -0.9999619230641713
vn 0.9999619230641713 0 -0.008726535498373935
vn 0.008726535498373935 0 0.9999619230641713
vn -0.9999619230641713 0 0.008726535498373935
vn 0 1 0
vn 0 -1 0
usemtl m_93064393-0add-ca65-e57e-d8c351095e93
f 488/1508/385 491/1507/385 489/1506/385 486/1505/385
f 487/1512/386 488/1511/386 486/1510/386 485/1509/386
f 492/1516/387 487/1515/387 485/1514/387 490/1513/387
f 491/1520/388 492/1519/388 490/1518/388 489/1517/388
f 490/1524/389 485/1523/389 486/1522/389 489/1521/389
f 491/1528/390 488/1527/390 487/1526/390 492/1525/390
o part_60_knife_wooden_handle
v 0.62612013 0.52250000 0.66532509
v 0.62917383 0.52250000 0.65095854
v 0.62612013 0.51375000 0.66532509
v 0.62917383 0.51375000 0.65095854
v 0.58637987 0.52250000 0.64186241
v 0.58332617 0.52250000 0.65622896
v 0.58637987 0.51375000 0.64186241
v 0.58332617 0.51375000 0.65622896
vt 0.25 1
vt 0.5 1
vt 0.5 0.75
vt 0.25 0.75
vt 0.25 1
vt 0.5 1
vt 0.5 0.75
vt 0.25 0.75
vt 0.25 1
vt 0.5 1
vt 0.5 0.75
vt 0.25 0.75
vt 0.25 1
vt 0.5 1
vt 0.5 0.75
vt 0.25 0.75
vt 0.25 1
vt 0.5 1
vt 0.5 0.75
vt 0.25 0.75
vt 0.25 1
vt 0.5 1
vt 0.5 0.75
vt 0.25 0.75
vn 0.2079116908177593 0 -0.9781476007338057
vn 0.9781476007338057 0 0.2079116908177593
vn -0.2079116908177593 0 0.9781476007338057
vn -0.9781476007338057 0 -0.2079116908177593
vn 0 1 0
vn 0 -1 0
usemtl m_93064393-0add-ca65-e57e-d8c351095e93
f 496/1532/391 499/1531/391 497/1530/391 494/1529/391
f 495/1536/392 496/1535/392 494/1534/392 493/1533/392
f 500/1540/393 495/1539/393 493/1538/393 498/1537/393
f 499/1544/394 500/1543/394 498/1542/394 497/1541/394
f 498/1548/395 493/1547/395 494/1546/395 497/1545/395
f 499/1552/396 496/1551/396 495/1550/396 500/1549/396
o part_61_cut_fruit_slice
v 0.51562500 0.52125000 0.63906250
v 0.51562500 0.52125000 0.58593750
v 0.51562500 0.51343750 0.63906250
v 0.51562500 0.51343750 0.58593750
v 0.46250000 0.52125000 0.58593750
v 0.46250000 0.52125000 0.63906250
v 0.46250000 0.51343750 0.58593750
v 0.46250000 0.51343750 0.63906250
vt 0.75 0.75
vt 1 0.75
vt 1 0.5
vt 0.75 0.5
vt 0.75 0.75
vt 1 0.75
vt 1 0.5
vt 0.75 0.5
vt 0.75 0.75
vt 1 0.75
vt 1 0.5
vt 0.75 0.5
vt 0.75 0.75
vt 1 0.75
vt 1 0.5
vt 0.75 0.5
vt 0.75 0.75
vt 1 0.75
vt 1 0.5
vt 0.75 0.5
vt 0.75 0.75
vt 1 0.75
vt 1 0.5
vt 0.75 0.5
vn 0 0 -1
vn 1 0 0
vn 0 0 1
vn -1 0 0
vn 0 1 0
vn 0 -1 0
usemtl m_93064393-0add-ca65-e57e-d8c351095e93
f 504/1556/397 507/1555/397 505/1554/397 502/1553/397
f 503/1560/398 504/1559/398 502/1558/398 501/1557/398
f 508/1564/399 503/1563/399 501/1562/399 506/1561/399
f 507/1568/400 508/1567/400 506/1566/400 505/1565/400
f 506/1572/401 501/1571/401 502/1570/401 505/1569/401
f 507/1576/402 504/1575/402 503/1574/402 508/1573/402
o part_62_recipe_book_pages_and_painted_cover
v 0.93437500 0.52250000 0.68750000
v 0.93437500 0.52250000 0.54687500
v 0.93437500 0.50000000 0.68750000
v 0.93437500 0.50000000 0.54687500
v 0.73750000 0.52250000 0.54687500
v 0.73750000 0.52250000 0.68750000
v 0.73750000 0.50000000 0.54687500
v 0.73750000 0.50000000 0.68750000
vt 0.75 1
vt 1 1
vt 1 0.75
vt 0.75 0.75
vt 0.75 1
vt 1 1
vt 1 0.75
vt 0.75 0.75
vt 0.75 1
vt 1 1
vt 1 0.75
vt 0.75 0.75
vt 0.75 1
vt 1 1
vt 1 0.75
vt 0.75 0.75
vt 0.75 0.25
vt 1 0.25
vt 1 0
vt 0.75 0
vt 0.5 1
vt 0.75 1
vt 0.75 0.75
vt 0.5 0.75
vn 0 0 -1
vn 1 0 0
vn 0 0 1
vn -1 0 0
vn 0 1 0
vn 0 -1 0
usemtl m_93064393-0add-ca65-e57e-d8c351095e93
f 512/1580/403 515/1579/403 513/1578/403 510/1577/403
f 511/1584/404 512/1583/404 510/1582/404 509/1581/404
f 516/1588/405 511/1587/405 509/1586/405 514/1585/405
f 515/1592/406 516/1591/406 514/1590/406 513/1589/406
f 514/1596/407 509/1595/407 510/1594/407 513/1593/407
f 515/1600/408 512/1599/408 511/1598/408 516/1597/408
o part_63_recipe_book_spine
v 0.74843750 0.52687500 0.69062500
v 0.74843750 0.52687500 0.54375000
v 0.74843750 0.50000000 0.69062500
v 0.74843750 0.50000000 0.54375000
v 0.72968750 0.52687500 0.54375000
v 0.72968750 0.52687500 0.69062500
v 0.72968750 0.50000000 0.54375000
v 0.72968750 0.50000000 0.69062500
vt 0.5 1
vt 0.75 1
vt 0.75 0.75
vt 0.5 0.75
vt 0.5 1
vt 0.75 1
vt 0.75 0.75
vt 0.5 0.75
vt 0.5 1
vt 0.75 1
vt 0.75 0.75
vt 0.5 0.75
vt 0.5 1
vt 0.75 1
vt 0.75 0.75
vt 0.5 0.75
vt 0.5 1
vt 0.75 1
vt 0.75 0.75
vt 0.5 0.75
vt 0.5 1
vt 0.75 1
vt 0.75 0.75
vt 0.5 0.75
vn 0 0 -1
vn 1 0 0
vn 0 0 1
vn -1 0 0
vn 0 1 0
vn 0 -1 0
usemtl m_93064393-0add-ca65-e57e-d8c351095e93
f 520/1604/409 523/1603/409 521/1602/409 518/1601/409
f 519/1608/410 520/1607/410 518/1606/410 517/1605/410
f 524/1612/411 519/1611/411 517/1610/411 522/1609/411
f 523/1616/412 524/1615/412 522/1614/412 521/1613/412
f 522/1620/413 517/1619/413 518/1618/413 521/1617/413
f 523/1624/414 520/1623/414 519/1622/414 524/1621/414
o part_64_recipe_book_gold_clasp
v 0.92968750 0.52968750 0.69687500
v 0.92968750 0.52968750 0.68281250
v 0.92968750 0.50937500 0.69687500
v 0.92968750 0.50937500 0.68281250
v 0.91250000 0.52968750 0.68281250
v 0.91250000 0.52968750 0.69687500
v 0.91250000 0.50937500 0.68281250
v 0.91250000 0.50937500 0.69687500
vt 0.25 0.75
vt 0.5 0.75
vt 0.5 0.5
vt 0.25 0.5
vt 0.25 0.75
vt 0.5 0.75
vt 0.5 0.5
vt 0.25 0.5
vt 0.25 0.75
vt 0.5 0.75
vt 0.5 0.5
vt 0.25 0.5
vt 0.25 0.75
vt 0.5 0.75
vt 0.5 0.5
vt 0.25 0.5
vt 0.25 0.75
vt 0.5 0.75
vt 0.5 0.5
vt 0.25 0.5
vt 0.25 0.75
vt 0.5 0.75
vt 0.5 0.5
vt 0.25 0.5
vn 0 0 -1
vn 1 0 0
vn 0 0 1
vn -1 0 0
vn 0 1 0
vn 0 -1 0
usemtl m_93064393-0add-ca65-e57e-d8c351095e93
f 528/1628/415 531/1627/415 529/1626/415 526/1625/415
f 527/1632/416 528/1631/416 526/1630/416 525/1629/416
f 532/1636/417 527/1635/417 525/1634/417 530/1633/417
f 531/1640/418 532/1639/418 530/1638/418 529/1637/418
f 530/1644/419 525/1643/419 526/1642/419 529/1641/419
f 531/1648/420 528/1647/420 527/1646/420 532/1645/420
